<svg width="1440" height="948" viewBox="0 0 1440 948" fill="none" xmlns="http://www.w3.org/2000/svg">
<g opacity="0.5">
<path d="M1671.93 590.691C1674.86 296.441 1253.71 53.6944 731.267 48.5021C208.823 43.3097 -217.076 277.638 -220.007 571.888C-222.937 866.138 198.211 1108.88 720.655 1114.08C1243.1 1119.27 1669 884.941 1671.93 590.691Z" stroke="#E7E8E3" stroke-width="0.291332" stroke-miterlimit="10"/>
<path d="M1368.3 520.755C1370.28 321.178 1084.62 156.533 730.255 153.011C375.887 149.489 87.0043 308.424 85.0168 508.001C83.0292 707.579 368.69 872.224 723.057 875.746C1077.43 879.268 1366.31 720.333 1368.3 520.755Z" stroke="#E7E8E3" stroke-width="0.291332" stroke-miterlimit="10"/>
<path d="M1445.5 532.81C1447.73 309.179 1127.65 124.691 730.574 120.744C333.502 116.798 9.80652 294.888 7.57941 518.52C5.3523 742.151 325.437 926.639 722.509 930.586C1119.58 934.532 1443.28 756.442 1445.5 532.81Z" stroke="#E7E8E3" stroke-width="0.291332" stroke-miterlimit="10"/>
<path d="M1559.74 556.635C1562.33 297.363 1191.28 83.4739 730.985 78.8992C270.691 74.3245 -104.544 280.797 -107.126 540.069C-109.708 799.34 261.341 1013.23 721.634 1017.8C1181.93 1022.38 1557.16 815.906 1559.74 556.635Z" stroke="#E7E8E3" stroke-width="0.291332" stroke-miterlimit="10"/>
<path d="M1305.06 566.198C1306.79 392.059 1049.01 248.316 729.275 245.138C409.544 241.961 148.945 380.552 147.21 554.69C145.476 728.829 403.264 872.572 722.995 875.75C1042.73 878.927 1303.33 740.336 1305.06 566.198Z" stroke="#E7E8E3" stroke-width="0.291332" stroke-miterlimit="10"/>
<path d="M1211.98 615.72C1213.44 469.445 996.891 348.702 728.31 346.032C459.729 343.363 240.821 459.779 239.364 606.054C237.907 752.329 454.454 873.072 723.035 875.741C991.616 878.411 1210.52 761.995 1211.98 615.72Z" stroke="#E7E8E3" stroke-width="0.291332" stroke-miterlimit="10"/>
<path d="M1107.94 667.264C1109.09 552.095 938.637 457.029 727.227 454.928C515.817 452.827 343.505 544.487 342.358 659.655C341.211 774.824 511.663 869.89 723.074 871.991C934.484 874.093 1106.8 782.433 1107.94 667.264Z" stroke="#E7E8E3" stroke-width="0.291332" stroke-miterlimit="10"/>
<path d="M994.49 731.212C995.3 649.888 875.085 582.761 725.982 581.279C576.879 579.797 455.351 644.522 454.541 725.845C453.731 807.169 573.946 874.296 723.049 875.777C872.152 877.259 993.68 812.535 994.49 731.212Z" stroke="#E7E8E3" stroke-width="0.291332" stroke-miterlimit="10"/>
<path d="M494.875 801.966C519.357 742.448 612.549 701.515 724.859 702.655C837.111 703.795 930.645 746.496 953.929 806.47" stroke="#E7E8E3" stroke-width="0.291332" stroke-miterlimit="10"/>
<path d="M618.826 863.594C649.243 854.928 685.082 850.14 723.317 850.539C761.268 850.938 796.65 856.354 826.724 865.418" stroke="#E7E8E3" stroke-width="0.291332" stroke-miterlimit="10"/>
<path d="M461.204 756.308C457.78 746.73 454.356 737.152 450.818 727.689C287.661 290.823 -341.398 644.568 -341.398 644.568" stroke="#E7E8E3" stroke-width="0.291332" stroke-miterlimit="10"/>
<path d="M650.727 869.238C632.693 890.902 604.787 1348.92 604.787 1348.92" stroke="#E7E8E3" stroke-width="0.291332" stroke-miterlimit="10"/>
<path d="M130.324 1260.67C130.324 1260.67 370.523 786.517 546.007 837.769" stroke="#E7E8E3" stroke-width="0.291332" stroke-miterlimit="10"/>
<path d="M498.242 807.268C352.661 522.96 -158.324 948.254 -158.324 948.254" stroke="#E7E8E3" stroke-width="0.291332" stroke-miterlimit="10"/>
<path d="M-203.066 310.776C-203.066 310.776 280.413 197.441 459.206 511.736C486.313 559.396 515.589 685.673 542.982 836.236" stroke="#E7E8E3" stroke-width="0.291332" stroke-miterlimit="10"/>
<path d="M722.689 872.038L730.907 -7.9082" stroke="#E7E8E3" stroke-width="0.291332" stroke-miterlimit="10"/>
<path d="M155.379 68.7129C155.379 68.7129 462.29 135.927 529.459 367.216C557.422 463.563 584.701 654.489 607.813 860.579" stroke="#E7E8E3" stroke-width="0.291332" stroke-miterlimit="10"/>
<path d="M471.477 5.43213C471.477 5.43213 616.885 137.923 636.403 460.028C642.566 561.506 650.727 711.1 659.059 868.447" stroke="#E7E8E3" stroke-width="0.291332" stroke-miterlimit="10"/>
<path d="M983.604 773.126C988.397 759.671 993.248 746.388 998.27 733.162C1145.22 345.894 1897.94 514.415 1897.94 514.415" stroke="#E7E8E3" stroke-width="0.291332" stroke-miterlimit="10"/>
<path d="M797.963 869.409C828.722 862.853 892.125 1347.84 892.125 1347.84" stroke="#E7E8E3" stroke-width="0.291332" stroke-miterlimit="10"/>
<path d="M1394.21 1244.19C1394.21 1244.19 1124.56 798.09 901.027 841.246" stroke="#E7E8E3" stroke-width="0.291332" stroke-miterlimit="10"/>
<path d="M949.191 811.886C1080.68 593.767 1864.1 893.41 1862.68 895.862" stroke="#E7E8E3" stroke-width="0.291332" stroke-miterlimit="10"/>
<path d="M1610.61 215.057C1610.61 215.057 1179.29 206.449 994.275 517.095C966.198 564.186 934.411 689.835 903.994 839.885" stroke="#E7E8E3" stroke-width="0.291332" stroke-miterlimit="10"/>
<path d="M1341.08 90.8896C1341.08 90.8896 998.725 141.229 926.934 371.15C897.03 466.926 865.928 657.282 838.707 862.802" stroke="#E7E8E3" stroke-width="0.291332" stroke-miterlimit="10"/>
<path d="M1016.3 13.8125C1016.3 13.8125 845.614 84.5617 818.107 461.853C810.916 560.651 800.359 716.8 789.23 869.587" stroke="#E7E8E3" stroke-width="0.291332" stroke-miterlimit="10"/>
<path d="M1795.36 626.121C1798.67 293.461 1322.57 19.0272 731.96 13.1573C141.348 7.28749 -340.124 272.204 -343.437 604.865C-346.75 937.526 129.351 1211.96 719.963 1217.83C1310.58 1223.7 1792.05 958.782 1795.36 626.121Z" stroke="#E7E8E3" stroke-width="0.291332" stroke-miterlimit="10"/>
<path d="M1934.14 684.508C1937.88 308.682 1400 -1.36074 732.735 -7.99236C65.475 -14.624 -478.48 284.667 -482.223 660.492C-485.966 1036.32 51.9212 1346.36 719.181 1352.99C1386.44 1359.62 1930.4 1060.33 1934.14 684.508Z" stroke="#E7E8E3" stroke-width="0.291332" stroke-miterlimit="10"/>
</g>
</svg>
