<svg width="72" height="72" viewBox="0 0 72 72" fill="none" xmlns="http://www.w3.org/2000/svg">
<rect width="72" height="72" fill="#A9FF92"/>
<path d="M34.9994 60.7317H34.3779V61.3531H34.9994V60.7317Z" fill="#0100FE"/>
<path d="M32.514 60.7314H31.8926V61.3529H32.514V60.7314Z" fill="#0100FE"/>
<path d="M30.0257 60.7317H29.4043V61.3531H30.0257V60.7317Z" fill="#0100FE"/>
<path d="M39.973 59.4888H39.3516V60.1102H39.973V59.4888Z" fill="#0100FE"/>
<path d="M37.4876 59.4888H36.8662V60.1102H37.4876V59.4888Z" fill="#0100FE"/>
<path d="M34.9994 59.4888H34.3779V60.1102H34.9994V59.4888Z" fill="#0100FE"/>
<path d="M33.7562 59.4888H33.1348V60.1102H33.7562V59.4888Z" fill="#0100FE"/>
<path d="M32.514 59.4888H31.8926V60.1102H32.514V59.4888Z" fill="#0100FE"/>
<path d="M31.2709 59.4888H30.6494V60.1102H31.2709V59.4888Z" fill="#0100FE"/>
<path d="M30.0257 59.4888H29.4043V60.1102H30.0257V59.4888Z" fill="#0100FE"/>
<path d="M28.7826 59.4888H28.1611V60.1102H28.7826V59.4888Z" fill="#0100FE"/>
<path d="M27.5404 59.4888H26.9189V60.1102H27.5404V59.4888Z" fill="#0100FE"/>
<path d="M26.2972 59.4888H25.6758V60.1102H26.2972V59.4888Z" fill="#0100FE"/>
<path d="M25.0541 59.4888H24.4326V60.1102H25.0541V59.4888Z" fill="#0100FE"/>
<path d="M26.9183 58.8672H26.2969V59.4886H26.9183V58.8672Z" fill="#0100FE"/>
<path d="M24.433 58.8674H23.8115V59.4889H24.433V58.8674Z" fill="#0100FE"/>
<path d="M41.2162 58.2461H40.5947V58.8675H41.2162V58.2461Z" fill="#0100FE"/>
<path d="M38.7298 58.2461H38.1084V58.8675H38.7298V58.2461Z" fill="#0100FE"/>
<path d="M36.2425 58.2461H35.6211V58.8675H36.2425V58.2461Z" fill="#0100FE"/>
<path d="M33.7562 58.2461H33.1348V58.8675H33.7562V58.2461Z" fill="#0100FE"/>
<path d="M31.2709 58.2461H30.6494V58.8675H31.2709V58.2461Z" fill="#0100FE"/>
<path d="M30.0257 58.2461H29.4043V58.8675H30.0257V58.2461Z" fill="#0100FE"/>
<path d="M28.7826 58.2461H28.1611V58.8675H28.7826V58.2461Z" fill="#0100FE"/>
<path d="M27.5404 58.2461H26.9189V58.8675H27.5404V58.2461Z" fill="#0100FE"/>
<path d="M26.2972 58.2461H25.6758V58.8675H26.2972V58.2461Z" fill="#0100FE"/>
<path d="M25.0541 58.2461H24.4326V58.8675H25.0541V58.2461Z" fill="#0100FE"/>
<path d="M23.8099 58.2461H23.1885V58.8675H23.8099V58.2461Z" fill="#0100FE"/>
<path d="M22.5667 58.2461H21.9453V58.8675H22.5667V58.2461Z" fill="#0100FE"/>
<path d="M25.6761 57.6245H25.0547V58.2459H25.6761V57.6245Z" fill="#0100FE"/>
<path d="M24.433 57.6245H23.8115V58.2459H24.433V57.6245Z" fill="#0100FE"/>
<path d="M41.2162 57.0032H40.5947V57.6246H41.2162V57.0032Z" fill="#0100FE"/>
<path d="M38.7298 57.0029H38.1084V57.6244H38.7298V57.0029Z" fill="#0100FE"/>
<path d="M36.2425 57.0032H35.6211V57.6246H36.2425V57.0032Z" fill="#0100FE"/>
<path d="M33.7562 57.0029H33.1348V57.6244H33.7562V57.0029Z" fill="#0100FE"/>
<path d="M32.514 57.0029H31.8926V57.6244H32.514V57.0029Z" fill="#0100FE"/>
<path d="M31.2709 57.0032H30.6494V57.6246H31.2709V57.0032Z" fill="#0100FE"/>
<path d="M30.0257 57.0032H29.4043V57.6246H30.0257V57.0032Z" fill="#0100FE"/>
<path d="M28.7826 57.0029H28.1611V57.6244H28.7826V57.0029Z" fill="#0100FE"/>
<path d="M27.5404 57.0032H26.9189V57.6246H27.5404V57.0032Z" fill="#0100FE"/>
<path d="M26.2972 57.0032H25.6758V57.6246H26.2972V57.0032Z" fill="#0100FE"/>
<path d="M25.0541 57.0029H24.4326V57.6244H25.0541V57.0029Z" fill="#0100FE"/>
<path d="M23.8115 57.6245V57.0031H23.1901V56.3816H22.5686V57.0031H21.9472V56.3816H22.5686V55.7602H21.9472V55.1387H22.5686V55.7602H23.1901V55.1387H23.8115V55.7602H24.433V55.1387H25.0544V54.5173H24.433V53.8959H25.0544V54.5173H25.6758V53.8959H26.2973V53.2744H25.6758V52.653H26.2973V52.0315H25.6758V51.4101H25.0544V52.0315H24.433V51.4101H25.0544V50.7887H24.433V50.1672H25.0544V50.7887H25.6758V50.1672H26.2973V50.7887H25.6758V51.4101H26.2973V52.0315H26.9187V51.4101H27.5402V50.7887H26.9187V50.1672H27.5402V49.5458H26.9187V48.9244H27.5402V49.5458H28.1616V48.9244H28.783V48.3029H28.1616V47.6815H28.783V47.06H28.1616V46.4386H27.5402V47.06H26.9187V46.4386H27.5402V45.8172H26.9187V45.1957H27.5402V45.8172H28.1616V45.1957H28.783V45.8172H28.1616V46.4386H28.783V47.06H29.4045V46.4386H30.0259V45.8172H29.4045V45.1957H30.0259V44.5743H29.4045V43.9528H30.0259V44.5743H30.6473V43.9528H31.2688V43.3314H30.6473V42.71H31.2688V42.0885H30.6473V41.4671H30.0259V42.0885H29.4045V41.4671H30.0259V40.8456H29.4045V40.2242H30.0259V40.8456H30.6473V40.2242H31.2688V40.8456H30.6473V41.4671H31.2688V42.0885H31.8902V41.4671H32.5117V40.8456H31.8902V40.2242H32.5117V39.6028H31.8902V38.9813H32.5117V39.6028H33.1331V38.9813H33.7545V38.3599H33.1331V37.7385H33.7545V37.117H33.1331V36.4956H32.5117V37.117H31.8902V36.4956H32.5117V35.8741H31.8902V35.2527H32.5117V35.8741H33.1331V35.2527H33.7545V35.8741H33.1331V36.4956H33.7545V37.117H34.376V36.4956H34.9974V35.8741H34.376V35.2527H34.9974V34.6313H34.376V34.0098H34.9974V34.6313H35.6189V34.0098H36.2403V33.3884H35.6189V32.7669H36.2403V32.1455H35.6189V31.5241H36.2403V30.9026H35.6189V30.2812H34.9974V30.9026H34.376V30.2812H34.9974V29.6598H34.376V29.0383H33.7545V28.4169H33.1331V27.7954H32.5117V28.4169H31.8902V27.7954H32.5117V27.174H31.8902V26.5526H31.2688V27.174H30.6473V26.5526H30.0259V27.174H29.4045V26.5526H30.0259V25.9311H29.4045V25.3097H30.0259V24.6882H29.4045V24.0668H28.783V24.6882H28.1616V24.0668H28.783V23.4454H28.1616V22.8239H27.5402V23.4454H26.9187V24.0668H27.5402V24.6882H26.9187V24.0668H26.2973V24.6882H25.6758V24.0668H26.2973V23.4454H25.6758V22.8239H26.2973V22.2025H25.6758V21.5811H25.0544V22.2025H24.433V22.8239H25.0544V23.4454H24.433V24.0668H25.0544V24.6882H24.433V24.0668H23.8115V24.6882H23.1901V25.3097H23.8115V25.9311H23.1901V26.5526H23.8115V27.174H24.433V26.5526H25.0544V25.9311H24.433V25.3097H25.0544V25.9311H25.6758V25.3097H26.2973V25.9311H25.6758V26.5526H26.2973V27.174H25.6758V26.5526H25.0544V27.174H24.433V27.7954H25.0544V28.4169H24.433V29.0383H25.0544V29.6598H24.433V29.0383H23.8115V29.6598H23.1901V29.0383H23.8115V28.4169H23.1901V27.7954H23.8115V27.174H23.1901V26.5526H22.5686V27.174H21.9472V27.7954H22.5686V28.4169H21.9472V29.0383H22.5686V29.6598H21.9472V29.0383H21.3258V29.6598H20.7043V30.2812H21.3258V30.9026H20.7043V31.5241H21.3258V32.1455H21.9472V31.5241H22.5686V30.9026H21.9472V30.2812H22.5686V30.9026H23.1901V30.2812H23.8115V30.9026H23.1901V31.5241H23.8115V32.1455H23.1901V31.5241H22.5686V32.1455H21.9472V32.7669H22.5686V33.3884H21.9472V34.0098H22.5686V34.6313H21.9472V34.0098H21.3258V34.6313H20.7043V35.2527H21.3258V35.8741H20.7043V36.4956H21.3258V37.117H20.7043V36.4956H20.0829V37.117H19.4615V37.7385H20.0829V38.3599H19.4615V38.9813H20.0829V39.6028H19.4615V38.9813H18.84V39.6028H18.2186V40.2242H18.84V40.8456H18.2186V41.4671H18.84V42.0885H18.2186V41.4671H17.5971V42.0885H16.9757V42.71H17.5971V43.3314H16.9757V43.9528H17.5971V44.5743H16.9757V43.9528H16.3543V44.5743H15.7328V45.1957H16.3543V45.8172H15.7328V46.4386H16.3543V47.06H15.7328V46.4386H15.1114V47.06H14.4899V47.6815H15.1114V48.3029H14.4899V48.9244H15.1114V49.5458H14.4899V48.9244H13.8685V49.5458H13.2471V50.1672H13.8685V51.4101H15.1114V52.0315H14.4899V52.653H15.1114V53.2744H15.7328V52.653H16.3543V53.2744H15.7328V53.8959H16.3543V54.5173H16.9757V53.8959H17.5971V54.5173H16.9757V55.1387H17.5971V55.7602H18.2186V55.1387H18.84V55.7602H18.2186V56.3816H18.84V57.0031H19.4615V56.3816H20.0829V57.0031H19.4615V57.6245H21.3258V58.2459H21.9472V57.6245H22.5686V58.2459H23.1901V57.6245H23.8115ZM21.3237 55.7581H20.7023V55.1367H21.3237V55.7581ZM15.7287 50.1631H16.3501V50.7845H15.7287V50.1631ZM16.9715 48.9202H17.593V49.5416H16.9715V48.9202ZM16.9715 47.6773H17.593V48.2988H16.9715V47.6773ZM18.2165 46.4344H18.8379V47.0559H18.2165V46.4344ZM18.2165 45.1916H18.8379V45.813H18.2165V45.1916ZM19.4594 43.9466H20.0808V44.568H19.4594V43.9466ZM19.4594 42.7037H20.0808V43.3252H19.4594V42.7037ZM20.7023 41.4609H21.3237V42.0823H20.7023V41.4609ZM20.7023 40.218H21.3237V40.8394H20.7023V40.218ZM21.9451 38.9751H22.5666V39.5966H21.9451V38.9751ZM21.9451 37.7301H22.5666V38.3516H21.9451V37.7301ZM23.188 36.4873H23.8094V37.1087H23.188V36.4873ZM23.188 35.2444H23.8094V35.8658H23.188V35.2444ZM24.433 34.0015H25.0544V34.623H24.433V34.0015ZM24.433 32.7586H25.0544V33.3801H24.433V32.7586ZM25.6758 31.5137H26.2973V32.1351H25.6758V31.5137ZM25.6758 30.2708H26.2973V30.8923H25.6758V30.2708ZM26.9187 29.0279H27.5402V29.6494H26.9187V29.0279ZM26.9187 27.785H27.5402V28.4065H26.9187V27.785ZM33.7566 32.1372H33.1352V31.5158H33.7566V32.1372ZM33.7566 33.3801H33.1352V32.7586H33.7566V33.3801ZM30.028 35.8658H29.4066V35.2444H30.028V35.8658ZM31.2709 38.3537H30.6494V37.7322H31.2709V38.3537ZM27.5402 40.8394H26.9187V40.218H27.5402V40.8394ZM28.783 43.3252H28.1616V42.7037H28.783V43.3252ZM25.0544 45.813H24.433V45.1916H25.0544V45.813ZM26.2973 48.2988H25.6758V47.6773H26.2973V48.2988ZM22.5666 50.7866H21.9451V50.1652H22.5666V50.7866ZM23.8115 53.2723H23.1901V52.6509H23.8115V53.2723ZM18.2165 51.408H18.8379V52.0295H18.2165V51.408ZM18.2165 50.1631H18.8379V50.7845H18.2165V50.1631ZM19.4594 47.6773H20.0808V48.2988H19.4594V47.6773ZM19.4594 46.4344H20.0808V47.0559H19.4594V46.4344ZM20.7023 45.1916H21.3237V45.813H20.7023V45.1916ZM21.9451 42.7037H22.5666V43.3252H21.9451V42.7037ZM21.9451 41.4609H22.5666V42.0823H21.9451V41.4609ZM23.188 40.218H23.8094V40.8394H23.188V40.218ZM24.433 37.7301H25.0544V38.3516H24.433V37.7301ZM25.6758 35.2444H26.2973V35.8658H25.6758V35.2444ZM26.9187 32.7586H27.5402V33.3801H26.9187V32.7586ZM28.1616 30.2708H28.783V30.8923H28.1616V30.2708ZM31.2709 30.2708V30.8923H30.6494V30.2708H31.2709ZM32.5137 32.1372H31.8923V31.5158H32.5137V32.1372ZM30.028 33.3801H29.4066V32.7586H30.028V33.3801ZM28.783 35.8658H28.1616V35.2444H28.783V35.8658ZM28.783 37.1087H28.1616V36.4873H28.783V37.1087ZM27.5402 38.3537H26.9187V37.7322H27.5402V38.3537ZM26.2973 40.8394H25.6758V40.218H26.2973V40.8394ZM26.2973 42.0823H25.6758V41.4609H26.2973V42.0823ZM25.0544 43.3252H24.433V42.7037H25.0544V43.3252ZM23.8115 45.813H23.1901V45.1916H23.8115V45.813ZM23.8115 47.0559H23.1901V46.4344H23.8115V47.0559ZM22.5666 48.2988H21.9451V47.6773H22.5666V48.2988ZM21.3237 50.7866H20.7023V50.1652H21.3237V50.7866ZM21.3237 52.0295H20.7023V51.408H21.3237V52.0295ZM19.4594 50.1631H20.0808V50.7845H19.4594V50.1631ZM20.7023 48.2988V47.6773H21.3237V48.2988H20.7023ZM21.9451 45.1916H22.5666V45.813H21.9451V45.1916ZM23.188 43.3252V42.7037H23.8094V43.3252H23.188ZM24.433 40.218H25.0544V40.8394H24.433V40.218ZM25.6758 38.3537V37.7322H26.2973V38.3537H25.6758ZM26.9187 35.2444H27.5402V35.8658H26.9187V35.2444ZM28.1616 33.3801V32.7586H28.783V33.3801H28.1616ZM30.6494 31.5137H31.2709V32.1351H30.6494V31.5137ZM30.028 30.8923H29.4066V30.2708H30.028V30.8923ZM28.783 31.5137V32.1351H28.1616V31.5137H28.783ZM27.5402 34.0015V34.623H26.9187V34.0015H27.5402ZM26.2973 36.4873V37.1087H25.6758V36.4873H26.2973ZM25.0544 38.9751V39.5966H24.433V38.9751H25.0544ZM23.8115 41.4609V42.0823H23.1901V41.4609H23.8115ZM22.5666 43.9466V44.568H21.9451V43.9466H22.5666ZM21.3237 46.4344V47.0559H20.7023V46.4344H21.3237ZM20.0808 48.9202V49.5416H19.4594V48.9202H20.0808ZM19.4594 52.6509H20.0808V53.2723H19.4594V52.6509ZM20.7023 53.2723V52.6509H21.3237V53.2723H20.7023ZM21.9451 52.6509H22.5666V53.2723H21.9451V52.6509ZM22.5666 52.0295H21.9451V51.408H22.5666V52.0295ZM21.9451 49.5416V48.9202H22.5666V49.5416H21.9451ZM23.188 48.2988V47.6773H23.8094V48.2988H23.188ZM24.433 47.6773H25.0544V48.2988H24.433V47.6773ZM25.0544 47.0559H24.433V46.4344H25.0544V47.0559ZM24.433 44.5701V43.9487H25.0544V44.5701H24.433ZM25.6758 43.3252V42.7037H26.2973V43.3252H25.6758ZM26.9187 42.7037H27.5402V43.3252H26.9187V42.7037ZM27.5402 42.0823H26.9187V41.4609H27.5402V42.0823ZM26.9187 39.5966V38.9751H27.5402V39.5966H26.9187ZM28.1616 38.3537V37.7322H28.783V38.3537H28.1616ZM29.4045 37.7301H30.0259V38.3516H29.4045V37.7301ZM30.028 37.1087H29.4066V36.4873H30.028V37.1087ZM29.4045 34.623V34.0015H30.0259V34.623H29.4045ZM30.6494 33.3801V32.7586H31.2709V33.3801H30.6494ZM31.8923 32.7586H32.5137V33.3801H31.8923V32.7586ZM32.5137 30.8923H31.8923V30.2708H32.5137V30.8923ZM30.028 29.6494H29.4066V29.0279H30.028V29.6494ZM28.783 28.4065H28.1616V27.785H28.783V28.4065ZM27.5402 30.2708V30.8923H26.9187V30.2708H27.5402ZM26.2973 32.7586V33.3801H25.6758V32.7586H26.2973ZM25.0544 35.2444V35.8658H24.433V35.2444H25.0544ZM23.8115 37.7301V38.3516H23.1901V37.7301H23.8115ZM22.5666 40.218V40.8394H21.9451V40.218H22.5666ZM21.3237 42.7037V43.3252H20.7023V42.7037H21.3237ZM20.0808 45.1916V45.813H19.4594V45.1916H20.0808ZM18.8379 47.6773V48.2988H18.2165V47.6773H18.8379ZM17.595 50.1631V50.7845H16.9736V50.1631H17.595ZM16.9715 51.408H17.593V52.0295H16.9715V51.408ZM18.2165 52.6509H18.8379V53.2723H18.2165V52.6509ZM19.4594 53.8938H20.0808V54.5152H19.4594V53.8938ZM21.9451 54.5152V53.8938H22.5666V54.5152H21.9451ZM23.8115 54.5152H23.1901V53.8938H23.8115V54.5152ZM25.0544 52.6509V53.2723H24.433V52.6509H25.0544ZM23.8115 52.0295H23.1901V51.408H23.8115V52.0295ZM23.8115 50.7866H23.1901V50.1652H23.8115V50.7866ZM24.433 49.5416V48.9202H25.0544V49.5416H24.433ZM26.2973 49.5416H25.6758V48.9202H26.2973V49.5416ZM27.5402 47.6773V48.2988H26.9187V47.6773H27.5402ZM26.2973 47.0559H25.6758V46.4344H26.2973V47.0559ZM26.2973 45.813H25.6758V45.1916H26.2973V45.813ZM26.9187 44.5701V43.9487H27.5402V44.5701H26.9187ZM28.783 44.5701H28.1616V43.9487H28.783V44.5701ZM30.028 42.7037V43.3252H29.4066V42.7037H30.028ZM28.783 42.0823H28.1616V41.4609H28.783V42.0823ZM28.783 40.8394H28.1616V40.218H28.783V40.8394ZM29.4045 39.5966V38.9751H30.0259V39.5966H29.4045ZM31.2709 39.5966H30.6494V38.9751H31.2709V39.5966ZM32.5137 37.7301V38.3516H31.8923V37.7301H32.5137ZM31.2709 37.1087H30.6494V36.4873H31.2709V37.1087ZM31.2709 35.8658H30.6494V35.2444H31.2709V35.8658ZM31.8923 34.623V34.0015H32.5137V34.623H31.8923ZM33.7566 34.623H33.1352V34.0015H33.7566V34.623ZM34.9995 33.3801H34.378V32.7586H34.9995V33.3801ZM34.9995 31.5137V32.1351H34.378V31.5137H34.9995ZM33.7566 30.8923H33.1352V30.2708H33.7566V30.8923ZM32.5137 29.0279V29.6494H31.8923V29.0279H32.5137ZM31.2709 27.785V28.4065H30.6494V27.785H31.2709ZM30.028 27.785V28.4065H29.4066V27.785H30.028ZM28.783 27.1636H28.1616V26.5422H28.783V27.1636ZM28.783 25.2972V25.9187H28.1616V25.2972H28.783ZM26.9187 25.2972H27.5402V25.9187H26.9187V25.2972ZM26.9187 26.5422H27.5402V27.1636H26.9187V26.5422ZM25.6758 27.785H26.2973V28.4065H25.6758V27.785ZM25.6758 29.0279H26.2973V29.6494H25.6758V29.0279ZM24.433 30.2708H25.0544V30.8923H24.433V30.2708ZM24.433 31.5137H25.0544V32.1351H24.433V31.5137ZM23.188 32.7586H23.8094V33.3801H23.188V32.7586ZM23.188 34.0015H23.8094V34.623H23.188V34.0015ZM21.9451 35.2444H22.5666V35.8658H21.9451V35.2444ZM21.9451 36.4873H22.5666V37.1087H21.9451V36.4873ZM20.7023 37.7301H21.3237V38.3516H20.7023V37.7301ZM20.7023 38.9751H21.3237V39.5966H20.7023V38.9751ZM19.4594 40.218H20.0808V40.8394H19.4594V40.218ZM19.4594 41.4609H20.0808V42.0823H19.4594V41.4609ZM18.2165 42.7037H18.8379V43.3252H18.2165V42.7037ZM18.2165 43.9466H18.8379V44.568H18.2165V43.9466ZM16.9715 45.1916H17.593V45.813H16.9715V45.1916ZM16.9715 46.4344H17.593V47.0559H16.9715V46.4344ZM15.7287 47.6773H16.3501V48.2988H15.7287V47.6773ZM15.7287 48.9202H16.3501V49.5416H15.7287V48.9202ZM14.4858 50.7866V50.1652H15.1072V50.7866H14.4858ZM15.7287 52.0295V51.408H16.3501V52.0295H15.7287ZM16.9715 53.2723V52.6509H17.593V53.2723H16.9715ZM19.4594 55.7581V55.1367H20.0808V55.7581H19.4594ZM20.7023 57.0031V56.3816H21.3237V57.0031H20.7023Z" fill="#0100FE"/>
<path d="M28.1615 56.3796H27.54V57.0011H28.1615V56.3796Z" fill="#0100FE"/>
<path d="M25.6761 56.3799H25.0547V57.0013H25.6761V56.3799Z" fill="#0100FE"/>
<path d="M24.433 56.3796H23.8115V57.0011H24.433V56.3796Z" fill="#0100FE"/>
<path d="M39.973 55.7581H39.3516V56.3795H39.973V55.7581Z" fill="#0100FE"/>
<path d="M37.4876 55.7578H36.8662V56.3793H37.4876V55.7578Z" fill="#0100FE"/>
<path d="M34.9994 55.7581H34.3779V56.3795H34.9994V55.7581Z" fill="#0100FE"/>
<path d="M32.514 55.7578H31.8926V56.3793H32.514V55.7578Z" fill="#0100FE"/>
<path d="M31.2709 55.7581H30.6494V56.3795H31.2709V55.7581Z" fill="#0100FE"/>
<path d="M30.0257 55.7581H29.4043V56.3795H30.0257V55.7581Z" fill="#0100FE"/>
<path d="M28.7826 55.7578H28.1611V56.3793H28.7826V55.7578Z" fill="#0100FE"/>
<path d="M27.5404 55.7581H26.9189V56.3795H27.5404V55.7581Z" fill="#0100FE"/>
<path d="M26.2972 55.7581H25.6758V56.3795H26.2972V55.7581Z" fill="#0100FE"/>
<path d="M25.0541 55.7578H24.4326V56.3793H25.0541V55.7578Z" fill="#0100FE"/>
<path d="M23.8099 55.7578H23.1885V56.3793H23.8099V55.7578Z" fill="#0100FE"/>
<path d="M26.9183 55.1367H26.2969V55.7582H26.9183V55.1367Z" fill="#0100FE"/>
<path d="M25.6761 55.1367H25.0547V55.7582H25.6761V55.1367Z" fill="#0100FE"/>
<path d="M42.4613 54.5156H41.8398V55.1371H42.4613V54.5156Z" fill="#0100FE"/>
<path d="M39.973 54.5154H39.3516V55.1368H39.973V54.5154Z" fill="#0100FE"/>
<path d="M37.4876 54.5156H36.8662V55.1371H37.4876V54.5156Z" fill="#0100FE"/>
<path d="M36.2425 54.5154H35.6211V55.1368H36.2425V54.5154Z" fill="#0100FE"/>
<path d="M34.9994 54.5154H34.3779V55.1368H34.9994V54.5154Z" fill="#0100FE"/>
<path d="M33.7562 54.5156H33.1348V55.1371H33.7562V54.5156Z" fill="#0100FE"/>
<path d="M32.514 54.5156H31.8926V55.1371H32.514V54.5156Z" fill="#0100FE"/>
<path d="M31.2709 54.5154H30.6494V55.1368H31.2709V54.5154Z" fill="#0100FE"/>
<path d="M30.0257 54.5154H29.4043V55.1368H30.0257V54.5154Z" fill="#0100FE"/>
<path d="M28.7826 54.5156H28.1611V55.1371H28.7826V54.5156Z" fill="#0100FE"/>
<path d="M27.5404 54.5154H26.9189V55.1368H27.5404V54.5154Z" fill="#0100FE"/>
<path d="M26.2972 54.5154H25.6758V55.1368H26.2972V54.5154Z" fill="#0100FE"/>
<path d="M29.4046 53.8938H28.7832V54.5152H29.4046V53.8938Z" fill="#0100FE"/>
<path d="M26.9183 53.8936H26.2969V54.515H26.9183V53.8936Z" fill="#0100FE"/>
<path d="M43.7035 53.2725H43.082V53.8939H43.7035V53.2725Z" fill="#0100FE"/>
<path d="M41.2162 53.2725H40.5947V53.8939H41.2162V53.2725Z" fill="#0100FE"/>
<path d="M38.7298 53.2725H38.1084V53.8939H38.7298V53.2725Z" fill="#0100FE"/>
<path d="M36.2425 53.2725H35.6211V53.8939H36.2425V53.2725Z" fill="#0100FE"/>
<path d="M33.7562 53.2725H33.1348V53.8939H33.7562V53.2725Z" fill="#0100FE"/>
<path d="M32.514 53.2725H31.8926V53.8939H32.514V53.2725Z" fill="#0100FE"/>
<path d="M31.2709 53.2725H30.6494V53.8939H31.2709V53.2725Z" fill="#0100FE"/>
<path d="M30.0257 53.2725H29.4043V53.8939H30.0257V53.2725Z" fill="#0100FE"/>
<path d="M28.7826 53.2725H28.1611V53.8939H28.7826V53.2725Z" fill="#0100FE"/>
<path d="M27.5404 53.2725H26.9189V53.8939H27.5404V53.2725Z" fill="#0100FE"/>
<path d="M28.1615 52.6509H27.54V53.2723H28.1615V52.6509Z" fill="#0100FE"/>
<path d="M26.9183 52.6509H26.2969V53.2723H26.9183V52.6509Z" fill="#0100FE"/>
<path d="M43.7035 52.0293H43.082V52.6507H43.7035V52.0293Z" fill="#0100FE"/>
<path d="M41.2162 52.0295H40.5947V52.651H41.2162V52.0295Z" fill="#0100FE"/>
<path d="M38.7298 52.0293H38.1084V52.6507H38.7298V52.0293Z" fill="#0100FE"/>
<path d="M36.2425 52.0295H35.6211V52.651H36.2425V52.0295Z" fill="#0100FE"/>
<path d="M34.9994 52.0295H34.3779V52.651H34.9994V52.0295Z" fill="#0100FE"/>
<path d="M33.7562 52.0293H33.1348V52.6507H33.7562V52.0293Z" fill="#0100FE"/>
<path d="M32.514 52.0293H31.8926V52.6507H32.514V52.0293Z" fill="#0100FE"/>
<path d="M31.2709 52.0295H30.6494V52.651H31.2709V52.0295Z" fill="#0100FE"/>
<path d="M30.0257 52.0295H29.4043V52.651H30.0257V52.0295Z" fill="#0100FE"/>
<path d="M28.7826 52.0293H28.1611V52.6507H28.7826V52.0293Z" fill="#0100FE"/>
<path d="M27.5404 52.0295H26.9189V52.651H27.5404V52.0295Z" fill="#0100FE"/>
<path d="M30.6498 51.4082H30.0283V52.0296H30.6498V51.4082Z" fill="#0100FE"/>
<path d="M28.1615 51.408H27.54V52.0294H28.1615V51.408Z" fill="#0100FE"/>
<path d="M42.4613 50.7866H41.8398V51.4081H42.4613V50.7866Z" fill="#0100FE"/>
<path d="M39.973 50.7866H39.3516V51.4081H39.973V50.7866Z" fill="#0100FE"/>
<path d="M37.4876 50.7866H36.8662V51.4081H37.4876V50.7866Z" fill="#0100FE"/>
<path d="M34.9994 50.7866H34.3779V51.4081H34.9994V50.7866Z" fill="#0100FE"/>
<path d="M33.7562 50.7866H33.1348V51.4081H33.7562V50.7866Z" fill="#0100FE"/>
<path d="M32.514 50.7866H31.8926V51.4081H32.514V50.7866Z" fill="#0100FE"/>
<path d="M31.2709 50.7866H30.6494V51.4081H31.2709V50.7866Z" fill="#0100FE"/>
<path d="M30.0257 50.7866H29.4043V51.4081H30.0257V50.7866Z" fill="#0100FE"/>
<path d="M28.7826 50.7866H28.1611V51.4081H28.7826V50.7866Z" fill="#0100FE"/>
<path d="M29.4046 50.1631H28.7832V50.7845H29.4046V50.1631Z" fill="#0100FE"/>
<path d="M28.1615 50.1631H27.54V50.7845H28.1615V50.1631Z" fill="#0100FE"/>
<path d="M47.432 49.542H46.8105V50.1634H47.432V49.542Z" fill="#0100FE"/>
<path d="M44.9466 49.5417H44.3252V50.1632H44.9466V49.5417Z" fill="#0100FE"/>
<path d="M42.4613 49.542H41.8398V50.1634H42.4613V49.542Z" fill="#0100FE"/>
<path d="M41.2162 49.5417H40.5947V50.1632H41.2162V49.5417Z" fill="#0100FE"/>
<path d="M39.973 49.5417H39.3516V50.1632H39.973V49.5417Z" fill="#0100FE"/>
<path d="M38.7298 49.542H38.1084V50.1634H38.7298V49.542Z" fill="#0100FE"/>
<path d="M37.4876 49.542H36.8662V50.1634H37.4876V49.542Z" fill="#0100FE"/>
<path d="M36.2425 49.5417H35.6211V50.1632H36.2425V49.5417Z" fill="#0100FE"/>
<path d="M34.9994 49.5417H34.3779V50.1632H34.9994V49.5417Z" fill="#0100FE"/>
<path d="M33.7562 49.542H33.1348V50.1634H33.7562V49.542Z" fill="#0100FE"/>
<path d="M32.514 49.542H31.8926V50.1634H32.514V49.542Z" fill="#0100FE"/>
<path d="M31.2709 49.5417H30.6494V50.1632H31.2709V49.5417Z" fill="#0100FE"/>
<path d="M30.0257 49.5417H29.4043V50.1632H30.0257V49.5417Z" fill="#0100FE"/>
<path d="M28.7826 49.542H28.1611V50.1634H28.7826V49.542Z" fill="#0100FE"/>
<path d="M31.8919 48.9199H31.2705V49.5414H31.8919V48.9199Z" fill="#0100FE"/>
<path d="M30.6498 48.9199H30.0283V49.5414H30.6498V48.9199Z" fill="#0100FE"/>
<path d="M29.4046 48.9202H28.7832V49.5416H29.4046V48.9202Z" fill="#0100FE"/>
<path d="M46.1898 48.2988H45.5684V48.9203H46.1898V48.2988Z" fill="#0100FE"/>
<path d="M43.7035 48.2988H43.082V48.9203H43.7035V48.2988Z" fill="#0100FE"/>
<path d="M41.2162 48.2988H40.5947V48.9203H41.2162V48.2988Z" fill="#0100FE"/>
<path d="M38.7298 48.2988H38.1084V48.9203H38.7298V48.2988Z" fill="#0100FE"/>
<path d="M36.2425 48.2988H35.6211V48.9203H36.2425V48.2988Z" fill="#0100FE"/>
<path d="M34.9994 48.2988H34.3779V48.9203H34.9994V48.2988Z" fill="#0100FE"/>
<path d="M33.7562 48.2988H33.1348V48.9203H33.7562V48.2988Z" fill="#0100FE"/>
<path d="M32.514 48.2988H31.8926V48.9203H32.514V48.2988Z" fill="#0100FE"/>
<path d="M31.2709 48.2988H30.6494V48.9203H31.2709V48.2988Z" fill="#0100FE"/>
<path d="M30.0257 48.2988H29.4043V48.9203H30.0257V48.2988Z" fill="#0100FE"/>
<path d="M13.8646 48.2988H13.2432V48.9203H13.8646V48.2988Z" fill="#0100FE"/>
<path d="M30.6498 47.6777H30.0283V48.2992H30.6498V47.6777Z" fill="#0100FE"/>
<path d="M29.4046 47.6775H28.7832V48.2989H29.4046V47.6775Z" fill="#0100FE"/>
<path d="M14.4857 47.6775H13.8643V48.2989H14.4857V47.6775Z" fill="#0100FE"/>
<path d="M13.2425 47.6777H12.6211V48.2992H13.2425V47.6777Z" fill="#0100FE"/>
<path d="M48.6751 47.0557H48.0537V47.6771H48.6751V47.0557Z" fill="#0100FE"/>
<path d="M46.1898 47.0557H45.5684V47.6771H46.1898V47.0557Z" fill="#0100FE"/>
<path d="M43.7035 47.0557H43.082V47.6771H43.7035V47.0557Z" fill="#0100FE"/>
<path d="M41.2162 47.0557H40.5947V47.6771H41.2162V47.0557Z" fill="#0100FE"/>
<path d="M39.973 47.0557H39.3516V47.6771H39.973V47.0557Z" fill="#0100FE"/>
<path d="M38.7298 47.0557H38.1084V47.6771H38.7298V47.0557Z" fill="#0100FE"/>
<path d="M37.4876 47.0557H36.8662V47.6771H37.4876V47.0557Z" fill="#0100FE"/>
<path d="M36.2425 47.0557H35.6211V47.6771H36.2425V47.0557Z" fill="#0100FE"/>
<path d="M34.9994 47.0557H34.3779V47.6771H34.9994V47.0557Z" fill="#0100FE"/>
<path d="M33.7562 47.0557H33.1348V47.6771H33.7562V47.0557Z" fill="#0100FE"/>
<path d="M32.514 47.0557H31.8926V47.6771H32.514V47.0557Z" fill="#0100FE"/>
<path d="M31.2709 47.0557H30.6494V47.6771H31.2709V47.0557Z" fill="#0100FE"/>
<path d="M30.0257 47.0557H29.4043V47.6771H30.0257V47.0557Z" fill="#0100FE"/>
<path d="M13.8646 47.0557H13.2432V47.6771H13.8646V47.0557Z" fill="#0100FE"/>
<path d="M33.1351 46.4346H32.5137V47.056H33.1351V46.4346Z" fill="#0100FE"/>
<path d="M30.6498 46.4346H30.0283V47.056H30.6498V46.4346Z" fill="#0100FE"/>
<path d="M14.4857 46.4346H13.8643V47.056H14.4857V46.4346Z" fill="#0100FE"/>
<path d="M13.2425 46.4346H12.6211V47.056H13.2425V46.4346Z" fill="#0100FE"/>
<path d="M44.9466 45.813H44.3252V46.4344H44.9466V45.813Z" fill="#0100FE"/>
<path d="M42.4613 45.813H41.8398V46.4344H42.4613V45.813Z" fill="#0100FE"/>
<path d="M39.973 45.813H39.3516V46.4344H39.973V45.813Z" fill="#0100FE"/>
<path d="M37.4876 45.813H36.8662V46.4344H37.4876V45.813Z" fill="#0100FE"/>
<path d="M36.2425 45.813H35.6211V46.4344H36.2425V45.813Z" fill="#0100FE"/>
<path d="M34.9994 45.813H34.3779V46.4344H34.9994V45.813Z" fill="#0100FE"/>
<path d="M33.7562 45.813H33.1348V46.4344H33.7562V45.813Z" fill="#0100FE"/>
<path d="M32.514 45.813H31.8926V46.4344H32.514V45.813Z" fill="#0100FE"/>
<path d="M31.2709 45.813H30.6494V46.4344H31.2709V45.813Z" fill="#0100FE"/>
<path d="M15.1068 45.813H14.4854V46.4344H15.1068V45.813Z" fill="#0100FE"/>
<path d="M13.8646 45.813H13.2432V46.4344H13.8646V45.813Z" fill="#0100FE"/>
<path d="M12.6214 45.813H12V46.4344H12.6214V45.813Z" fill="#0100FE"/>
<path d="M31.8919 45.1914H31.2705V45.8128H31.8919V45.1914Z" fill="#0100FE"/>
<path d="M30.6498 45.1914H30.0283V45.8128H30.6498V45.1914Z" fill="#0100FE"/>
<path d="M15.7289 45.1917H15.1074V45.8131H15.7289V45.1917Z" fill="#0100FE"/>
<path d="M14.4857 45.1917H13.8643V45.8131H14.4857V45.1917Z" fill="#0100FE"/>
<path d="M49.9203 44.5701H49.2988V45.1915H49.9203V44.5701Z" fill="#0100FE"/>
<path d="M47.432 44.5703H46.8105V45.1917H47.432V44.5703Z" fill="#0100FE"/>
<path d="M44.9466 44.5701H44.3252V45.1915H44.9466V44.5701Z" fill="#0100FE"/>
<path d="M43.7035 44.5703H43.082V45.1917H43.7035V44.5703Z" fill="#0100FE"/>
<path d="M42.4613 44.5703H41.8398V45.1917H42.4613V44.5703Z" fill="#0100FE"/>
<path d="M41.2162 44.5701H40.5947V45.1915H41.2162V44.5701Z" fill="#0100FE"/>
<path d="M39.973 44.5701H39.3516V45.1915H39.973V44.5701Z" fill="#0100FE"/>
<path d="M38.7298 44.5703H38.1084V45.1917H38.7298V44.5703Z" fill="#0100FE"/>
<path d="M37.4876 44.5703H36.8662V45.1917H37.4876V44.5703Z" fill="#0100FE"/>
<path d="M36.2425 44.5701H35.6211V45.1915H36.2425V44.5701Z" fill="#0100FE"/>
<path d="M34.9994 44.5701H34.3779V45.1915H34.9994V44.5701Z" fill="#0100FE"/>
<path d="M33.7562 44.5703H33.1348V45.1917H33.7562V44.5703Z" fill="#0100FE"/>
<path d="M32.514 44.5703H31.8926V45.1917H32.514V44.5703Z" fill="#0100FE"/>
<path d="M31.2709 44.5701H30.6494V45.1915H31.2709V44.5701Z" fill="#0100FE"/>
<path d="M15.1068 44.5703H14.4854V45.1917H15.1068V44.5703Z" fill="#0100FE"/>
<path d="M13.8646 44.5701H13.2432V45.1915H13.8646V44.5701Z" fill="#0100FE"/>
<path d="M12.6214 44.5701H12V45.1915H12.6214V44.5701Z" fill="#0100FE"/>
<path d="M34.3783 43.9463H33.7568V44.5677H34.3783V43.9463Z" fill="#0100FE"/>
<path d="M33.1351 43.9465H32.5137V44.568H33.1351V43.9465Z" fill="#0100FE"/>
<path d="M31.8919 43.9463H31.2705V44.5677H31.8919V43.9463Z" fill="#0100FE"/>
<path d="M15.7289 43.9465H15.1074V44.568H15.7289V43.9465Z" fill="#0100FE"/>
<path d="M14.4857 43.9465H13.8643V44.568H14.4857V43.9465Z" fill="#0100FE"/>
<path d="M13.2425 43.9463H12.6211V44.5677H13.2425V43.9463Z" fill="#0100FE"/>
<path d="M51.1634 43.3252H50.542V43.9466H51.1634V43.3252Z" fill="#0100FE"/>
<path d="M48.6751 43.3252H48.0537V43.9466H48.6751V43.3252Z" fill="#0100FE"/>
<path d="M46.1898 43.3252H45.5684V43.9466H46.1898V43.3252Z" fill="#0100FE"/>
<path d="M43.7035 43.3252H43.082V43.9466H43.7035V43.3252Z" fill="#0100FE"/>
<path d="M41.2162 43.3252H40.5947V43.9466H41.2162V43.3252Z" fill="#0100FE"/>
<path d="M39.973 43.3252H39.3516V43.9466H39.973V43.3252Z" fill="#0100FE"/>
<path d="M38.7298 43.3252H38.1084V43.9466H38.7298V43.3252Z" fill="#0100FE"/>
<path d="M37.4876 43.3252H36.8662V43.9466H37.4876V43.3252Z" fill="#0100FE"/>
<path d="M36.2425 43.3252H35.6211V43.9466H36.2425V43.3252Z" fill="#0100FE"/>
<path d="M34.9994 43.3252H34.3779V43.9466H34.9994V43.3252Z" fill="#0100FE"/>
<path d="M33.7562 43.3252H33.1348V43.9466H33.7562V43.3252Z" fill="#0100FE"/>
<path d="M32.514 43.3252H31.8926V43.9466H32.514V43.3252Z" fill="#0100FE"/>
<path d="M16.35 43.3252H15.7285V43.9466H16.35V43.3252Z" fill="#0100FE"/>
<path d="M15.1068 43.3252H14.4854V43.9466H15.1068V43.3252Z" fill="#0100FE"/>
<path d="M13.8646 43.3252H13.2432V43.9466H13.8646V43.3252Z" fill="#0100FE"/>
<path d="M12.6214 43.3252H12V43.9466H12.6214V43.3252Z" fill="#0100FE"/>
<path d="M33.1351 42.7039H32.5137V43.3253H33.1351V42.7039Z" fill="#0100FE"/>
<path d="M31.8919 42.7041H31.2705V43.3255H31.8919V42.7041Z" fill="#0100FE"/>
<path d="M16.971 42.7041H16.3496V43.3255H16.971V42.7041Z" fill="#0100FE"/>
<path d="M15.7289 42.7039H15.1074V43.3253H15.7289V42.7039Z" fill="#0100FE"/>
<path d="M13.2425 42.7041H12.6211V43.3255H13.2425V42.7041Z" fill="#0100FE"/>
<path d="M51.1634 42.082H50.542V42.7035H51.1634V42.082Z" fill="#0100FE"/>
<path d="M48.6751 42.0823H48.0537V42.7037H48.6751V42.0823Z" fill="#0100FE"/>
<path d="M46.1898 42.082H45.5684V42.7035H46.1898V42.082Z" fill="#0100FE"/>
<path d="M43.7035 42.082H43.082V42.7035H43.7035V42.082Z" fill="#0100FE"/>
<path d="M42.4613 42.082H41.8398V42.7035H42.4613V42.082Z" fill="#0100FE"/>
<path d="M41.2162 42.0823H40.5947V42.7037H41.2162V42.0823Z" fill="#0100FE"/>
<path d="M39.973 42.0823H39.3516V42.7037H39.973V42.0823Z" fill="#0100FE"/>
<path d="M38.7298 42.082H38.1084V42.7035H38.7298V42.082Z" fill="#0100FE"/>
<path d="M37.4876 42.082H36.8662V42.7035H37.4876V42.082Z" fill="#0100FE"/>
<path d="M36.2425 42.0823H35.6211V42.7037H36.2425V42.0823Z" fill="#0100FE"/>
<path d="M34.9994 42.0823H34.3779V42.7037H34.9994V42.0823Z" fill="#0100FE"/>
<path d="M33.7562 42.082H33.1348V42.7035H33.7562V42.082Z" fill="#0100FE"/>
<path d="M32.514 42.082H31.8926V42.7035H32.514V42.082Z" fill="#0100FE"/>
<path d="M16.35 42.0823H15.7285V42.7037H16.35V42.0823Z" fill="#0100FE"/>
<path d="M15.1068 42.082H14.4854V42.7035H15.1068V42.082Z" fill="#0100FE"/>
<path d="M13.8646 42.0823H13.2432V42.7037H13.8646V42.0823Z" fill="#0100FE"/>
<path d="M35.6205 41.4609H34.999V42.0824H35.6205V41.4609Z" fill="#0100FE"/>
<path d="M33.1351 41.4609H32.5137V42.0824H33.1351V41.4609Z" fill="#0100FE"/>
<path d="M16.971 41.4609H16.3496V42.0824H16.971V41.4609Z" fill="#0100FE"/>
<path d="M15.7289 41.4609H15.1074V42.0824H15.7289V41.4609Z" fill="#0100FE"/>
<path d="M13.2425 41.4609H12.6211V42.0824H13.2425V41.4609Z" fill="#0100FE"/>
<path d="M49.9203 40.8394H49.2988V41.4608H49.9203V40.8394Z" fill="#0100FE"/>
<path d="M47.432 40.8394H46.8105V41.4608H47.432V40.8394Z" fill="#0100FE"/>
<path d="M44.9466 40.8394H44.3252V41.4608H44.9466V40.8394Z" fill="#0100FE"/>
<path d="M42.4613 40.8394H41.8398V41.4608H42.4613V40.8394Z" fill="#0100FE"/>
<path d="M39.973 40.8394H39.3516V41.4608H39.973V40.8394Z" fill="#0100FE"/>
<path d="M38.7298 40.8394H38.1084V41.4608H38.7298V40.8394Z" fill="#0100FE"/>
<path d="M37.4876 40.8394H36.8662V41.4608H37.4876V40.8394Z" fill="#0100FE"/>
<path d="M36.2425 40.8394H35.6211V41.4608H36.2425V40.8394Z" fill="#0100FE"/>
<path d="M34.9994 40.8394H34.3779V41.4608H34.9994V40.8394Z" fill="#0100FE"/>
<path d="M33.7562 40.8394H33.1348V41.4608H33.7562V40.8394Z" fill="#0100FE"/>
<path d="M17.5931 40.8394H16.9717V41.4608H17.5931V40.8394Z" fill="#0100FE"/>
<path d="M16.35 40.8394H15.7285V41.4608H16.35V40.8394Z" fill="#0100FE"/>
<path d="M15.1068 40.8394H14.4854V41.4608H15.1068V40.8394Z" fill="#0100FE"/>
<path d="M13.8646 40.8394H13.2432V41.4608H13.8646V40.8394Z" fill="#0100FE"/>
<path d="M34.3783 40.2178H33.7568V40.8392H34.3783V40.2178Z" fill="#0100FE"/>
<path d="M33.1351 40.218H32.5137V40.8395H33.1351V40.218Z" fill="#0100FE"/>
<path d="M18.2162 40.2178H17.5947V40.8392H18.2162V40.2178Z" fill="#0100FE"/>
<path d="M14.4857 40.218H13.8643V40.8395H14.4857V40.218Z" fill="#0100FE"/>
<path d="M52.4056 39.5967H51.7842V40.2181H52.4056V39.5967Z" fill="#0100FE"/>
<path d="M49.9203 39.5967H49.2988V40.2181H49.9203V39.5967Z" fill="#0100FE"/>
<path d="M47.432 39.5967H46.8105V40.2181H47.432V39.5967Z" fill="#0100FE"/>
<path d="M46.1898 39.5967H45.5684V40.2181H46.1898V39.5967Z" fill="#0100FE"/>
<path d="M44.9466 39.5967H44.3252V40.2181H44.9466V39.5967Z" fill="#0100FE"/>
<path d="M43.7035 39.5967H43.082V40.2181H43.7035V39.5967Z" fill="#0100FE"/>
<path d="M42.4613 39.5967H41.8398V40.2181H42.4613V39.5967Z" fill="#0100FE"/>
<path d="M41.2162 39.5967H40.5947V40.2181H41.2162V39.5967Z" fill="#0100FE"/>
<path d="M39.973 39.5967H39.3516V40.2181H39.973V39.5967Z" fill="#0100FE"/>
<path d="M38.7298 39.5967H38.1084V40.2181H38.7298V39.5967Z" fill="#0100FE"/>
<path d="M37.4876 39.5967H36.8662V40.2181H37.4876V39.5967Z" fill="#0100FE"/>
<path d="M36.2425 39.5967H35.6211V40.2181H36.2425V39.5967Z" fill="#0100FE"/>
<path d="M34.9994 39.5967H34.3779V40.2181H34.9994V39.5967Z" fill="#0100FE"/>
<path d="M33.7562 39.5967H33.1348V40.2181H33.7562V39.5967Z" fill="#0100FE"/>
<path d="M15.1068 39.5967H14.4854V40.2181H15.1068V39.5967Z" fill="#0100FE"/>
<path d="M13.8646 39.5967H13.2432V40.2181H13.8646V39.5967Z" fill="#0100FE"/>
<path d="M39.3519 38.9751H38.7305V39.5966H39.3519V38.9751Z" fill="#0100FE"/>
<path d="M36.8656 38.9751H36.2441V39.5966H36.8656V38.9751Z" fill="#0100FE"/>
<path d="M35.6205 38.9751H34.999V39.5966H35.6205V38.9751Z" fill="#0100FE"/>
<path d="M34.3783 38.9751H33.7568V39.5966H34.3783V38.9751Z" fill="#0100FE"/>
<path d="M16.35 39.5966H15.7285V40.218H16.35V40.8394H16.9714V40.218H17.5949V39.5966H16.9714V38.9751H16.35V39.5966Z" fill="#0100FE"/>
<path d="M15.7289 38.9751H15.1074V39.5966H15.7289V38.9751Z" fill="#0100FE"/>
<path d="M14.4857 38.9751H13.8643V39.5966H14.4857V38.9751Z" fill="#0100FE"/>
<path d="M53.6488 38.3538H53.0273V38.9752H53.6488V38.3538Z" fill="#0100FE"/>
<path d="M51.1634 38.3535H50.542V38.975H51.1634V38.3535Z" fill="#0100FE"/>
<path d="M48.6751 38.3538H48.0537V38.9752H48.6751V38.3538Z" fill="#0100FE"/>
<path d="M46.1898 38.3535H45.5684V38.975H46.1898V38.3535Z" fill="#0100FE"/>
<path d="M43.7035 38.3535H43.082V38.975H43.7035V38.3535Z" fill="#0100FE"/>
<path d="M42.4613 38.3535H41.8398V38.975H42.4613V38.3535Z" fill="#0100FE"/>
<path d="M41.2162 38.3538H40.5947V38.9752H41.2162V38.3538Z" fill="#0100FE"/>
<path d="M39.973 38.3538H39.3516V38.9752H39.973V38.3538Z" fill="#0100FE"/>
<path d="M38.7298 38.3535H38.1084V38.975H38.7298V38.3535Z" fill="#0100FE"/>
<path d="M37.4876 38.3535H36.8662V38.975H37.4876V38.3535Z" fill="#0100FE"/>
<path d="M36.2425 38.3538H35.6211V38.9752H36.2425V38.3538Z" fill="#0100FE"/>
<path d="M34.9994 38.3538H34.3779V38.9752H34.9994V38.3538Z" fill="#0100FE"/>
<path d="M18.2167 38.3537V37.7302H18.8381V37.1087H18.2167V36.4873H17.5952V37.1087H16.9717V37.7302H17.5952V38.3537H16.9717V38.9751H17.5952V39.5966H18.2167V38.9751H18.8381V38.3537H18.2167Z" fill="#0100FE"/>
<path d="M16.35 38.3538H15.7285V38.9752H16.35V38.3538Z" fill="#0100FE"/>
<path d="M15.1068 38.3535H14.4854V38.975H15.1068V38.3535Z" fill="#0100FE"/>
<path d="M38.1087 37.7302H37.4873V38.3517H38.1087V37.7302Z" fill="#0100FE"/>
<path d="M35.6205 37.7305H34.999V38.3519H35.6205V37.7305Z" fill="#0100FE"/>
<path d="M34.3783 37.7305H33.7568V38.3519H34.3783V37.7305Z" fill="#0100FE"/>
<path d="M19.4593 37.7302H18.8379V38.3517H19.4593V37.7302Z" fill="#0100FE"/>
<path d="M16.971 37.7305H16.3496V38.3519H16.971V37.7305Z" fill="#0100FE"/>
<path d="M15.7289 37.7302H15.1074V38.3517H15.7289V37.7302Z" fill="#0100FE"/>
<path d="M56.1371 37.1084H55.5156V37.7298H56.1371V37.1084Z" fill="#0100FE"/>
<path d="M53.6488 37.1086H53.0273V37.7301H53.6488V37.1086Z" fill="#0100FE"/>
<path d="M51.1634 37.1084H50.542V37.7298H51.1634V37.1084Z" fill="#0100FE"/>
<path d="M48.6751 37.1086H48.0537V37.7301H48.6751V37.1086Z" fill="#0100FE"/>
<path d="M46.1898 37.1084H45.5684V37.7298H46.1898V37.1084Z" fill="#0100FE"/>
<path d="M44.9466 37.1086H44.3252V37.7301H44.9466V37.1086Z" fill="#0100FE"/>
<path d="M43.7035 37.1084H43.082V37.7298H43.7035V37.1084Z" fill="#0100FE"/>
<path d="M42.4613 37.1084H41.8398V37.7298H42.4613V37.1084Z" fill="#0100FE"/>
<path d="M41.2162 37.1086H40.5947V37.7301H41.2162V37.1086Z" fill="#0100FE"/>
<path d="M39.973 37.1086H39.3516V37.7301H39.973V37.1086Z" fill="#0100FE"/>
<path d="M38.7298 37.1084H38.1084V37.7298H38.7298V37.1084Z" fill="#0100FE"/>
<path d="M37.4876 37.1084H36.8662V37.7298H37.4876V37.1084Z" fill="#0100FE"/>
<path d="M36.2425 37.1086H35.6211V37.7301H36.2425V37.1086Z" fill="#0100FE"/>
<path d="M34.9994 37.1086H34.3779V37.7301H34.9994V37.1086Z" fill="#0100FE"/>
<path d="M16.35 37.1086H15.7285V37.7301H16.35V37.1086Z" fill="#0100FE"/>
<path d="M15.1068 37.1084H14.4854V37.7298H15.1068V37.1084Z" fill="#0100FE"/>
<path d="M38.1087 36.4873H37.4873V37.1087H38.1087V36.4873Z" fill="#0100FE"/>
<path d="M36.8656 36.4873H36.2441V37.1087H36.8656V36.4873Z" fill="#0100FE"/>
<path d="M35.6205 36.4873H34.999V37.1087H35.6205V36.4873Z" fill="#0100FE"/>
<path d="M19.4593 36.4873H18.8379V37.1087H19.4593V36.4873Z" fill="#0100FE"/>
<path d="M16.971 36.4873H16.3496V37.1087H16.971V36.4873Z" fill="#0100FE"/>
<path d="M15.7289 36.4873H15.1074V37.1087H15.7289V36.4873Z" fill="#0100FE"/>
<path d="M52.4056 35.8662H51.7842V36.4876H52.4056V35.8662Z" fill="#0100FE"/>
<path d="M49.9203 35.866H49.2988V36.4874H49.9203V35.866Z" fill="#0100FE"/>
<path d="M47.432 35.8662H46.8105V36.4876H47.432V35.8662Z" fill="#0100FE"/>
<path d="M44.9466 35.866H44.3252V36.4874H44.9466V35.866Z" fill="#0100FE"/>
<path d="M42.4613 35.8662H41.8398V36.4876H42.4613V35.8662Z" fill="#0100FE"/>
<path d="M41.2162 35.866H40.5947V36.4874H41.2162V35.866Z" fill="#0100FE"/>
<path d="M39.973 35.866H39.3516V36.4874H39.973V35.866Z" fill="#0100FE"/>
<path d="M38.7298 35.8662H38.1084V36.4876H38.7298V35.8662Z" fill="#0100FE"/>
<path d="M37.4876 35.8662H36.8662V36.4876H37.4876V35.8662Z" fill="#0100FE"/>
<path d="M36.2425 35.866H35.6211V36.4874H36.2425V35.866Z" fill="#0100FE"/>
<path d="M20.0804 35.8662H19.459V36.4876H20.0804V35.8662Z" fill="#0100FE"/>
<path d="M18.8382 35.8662H18.2168V36.4876H18.8382V35.8662Z" fill="#0100FE"/>
<path d="M17.5931 35.866H16.9717V36.4874H17.5931V35.866Z" fill="#0100FE"/>
<path d="M16.35 35.866H15.7285V36.4874H16.35V35.866Z" fill="#0100FE"/>
<path d="M15.1068 35.8662H14.4854V36.4876H15.1068V35.8662Z" fill="#0100FE"/>
<path d="M36.8656 35.2441H36.2441V35.8656H36.8656V35.2441Z" fill="#0100FE"/>
<path d="M35.6205 35.2441H34.999V35.8656H35.6205V35.2441Z" fill="#0100FE"/>
<path d="M20.7025 35.2441H20.0811V35.8656H20.7025V35.2441Z" fill="#0100FE"/>
<path d="M18.2162 35.2441H17.5947V35.8656H18.2162V35.2441Z" fill="#0100FE"/>
<path d="M16.971 35.2441H16.3496V35.8656H16.971V35.2441Z" fill="#0100FE"/>
<path d="M57.3792 34.623H56.7578V35.2445H57.3792V34.623Z" fill="#0100FE"/>
<path d="M54.8939 34.623H54.2725V35.2445H54.8939V34.623Z" fill="#0100FE"/>
<path d="M53.6488 34.623H53.0273V35.2445H53.6488V34.623Z" fill="#0100FE"/>
<path d="M52.4056 34.623H51.7842V35.2445H52.4056V34.623Z" fill="#0100FE"/>
<path d="M51.1634 34.623H50.542V35.2445H51.1634V34.623Z" fill="#0100FE"/>
<path d="M49.9203 34.623H49.2988V35.2445H49.9203V34.623Z" fill="#0100FE"/>
<path d="M48.6751 34.623H48.0537V35.2445H48.6751V34.623Z" fill="#0100FE"/>
<path d="M47.432 34.623H46.8105V35.2445H47.432V34.623Z" fill="#0100FE"/>
<path d="M46.1898 34.623H45.5684V35.2445H46.1898V34.623Z" fill="#0100FE"/>
<path d="M44.9466 34.623H44.3252V35.2445H44.9466V34.623Z" fill="#0100FE"/>
<path d="M43.7035 34.623H43.082V35.2445H43.7035V34.623Z" fill="#0100FE"/>
<path d="M42.4613 34.623H41.8398V35.2445H42.4613V34.623Z" fill="#0100FE"/>
<path d="M41.2162 34.623H40.5947V35.2445H41.2162V34.623Z" fill="#0100FE"/>
<path d="M39.973 34.623H39.3516V35.2445H39.973V34.623Z" fill="#0100FE"/>
<path d="M38.7298 34.623H38.1084V35.2445H38.7298V34.623Z" fill="#0100FE"/>
<path d="M37.4876 34.623H36.8662V35.2445H37.4876V34.623Z" fill="#0100FE"/>
<path d="M36.2425 34.623H35.6211V35.2445H36.2425V34.623Z" fill="#0100FE"/>
<path d="M17.5931 34.623H16.9717V35.2445H17.5931V34.623Z" fill="#0100FE"/>
<path d="M16.35 34.623H15.7285V35.2445H16.35V34.623Z" fill="#0100FE"/>
<path d="M41.8373 34.0015H41.2158V34.6229H41.8373V34.0015Z" fill="#0100FE"/>
<path d="M39.3519 34.0015H38.7305V34.6229H39.3519V34.0015Z" fill="#0100FE"/>
<path d="M38.1087 34.0015H37.4873V34.6229H38.1087V34.0015Z" fill="#0100FE"/>
<path d="M36.8656 34.0015H36.2441V34.6229H36.8656V34.0015Z" fill="#0100FE"/>
<path d="M18.8382 34.6229H18.2168V35.2443H18.8382V35.8658H19.4597V35.2443H20.0811V34.6229H19.4597V34.0015H18.8382V34.6229Z" fill="#0100FE"/>
<path d="M18.2162 34.0015H17.5947V34.6229H18.2162V34.0015Z" fill="#0100FE"/>
<path d="M16.971 34.0015H16.3496V34.6229H16.971V34.0015Z" fill="#0100FE"/>
<path d="M58.6224 33.3801H58.001V34.0016H58.6224V33.3801Z" fill="#0100FE"/>
<path d="M56.1371 33.3799H55.5156V34.0013H56.1371V33.3799Z" fill="#0100FE"/>
<path d="M54.8939 33.3801H54.2725V34.0016H54.8939V33.3801Z" fill="#0100FE"/>
<path d="M53.6488 33.3801H53.0273V34.0016H53.6488V33.3801Z" fill="#0100FE"/>
<path d="M52.4056 33.3799H51.7842V34.0013H52.4056V33.3799Z" fill="#0100FE"/>
<path d="M51.1634 33.3799H50.542V34.0013H51.1634V33.3799Z" fill="#0100FE"/>
<path d="M49.9203 33.3801H49.2988V34.0016H49.9203V33.3801Z" fill="#0100FE"/>
<path d="M48.6751 33.3801H48.0537V34.0016H48.6751V33.3801Z" fill="#0100FE"/>
<path d="M47.432 33.3799H46.8105V34.0013H47.432V33.3799Z" fill="#0100FE"/>
<path d="M46.1898 33.3799H45.5684V34.0013H46.1898V33.3799Z" fill="#0100FE"/>
<path d="M44.9466 33.3801H44.3252V34.0016H44.9466V33.3801Z" fill="#0100FE"/>
<path d="M43.7035 33.3799H43.082V34.0013H43.7035V33.3799Z" fill="#0100FE"/>
<path d="M42.4613 33.3799H41.8398V34.0013H42.4613V33.3799Z" fill="#0100FE"/>
<path d="M41.2162 33.3801H40.5947V34.0016H41.2162V33.3801Z" fill="#0100FE"/>
<path d="M39.973 33.3801H39.3516V34.0016H39.973V33.3801Z" fill="#0100FE"/>
<path d="M38.7298 33.3799H38.1084V34.0013H38.7298V33.3799Z" fill="#0100FE"/>
<path d="M37.4876 33.3799H36.8662V34.0013H37.4876V33.3799Z" fill="#0100FE"/>
<path d="M18.8382 33.3799H18.2168V34.0013H18.8382V33.3799Z" fill="#0100FE"/>
<path d="M17.5931 33.3801H16.9717V34.0016H17.5931V33.3801Z" fill="#0100FE"/>
<path d="M16.35 33.3801H15.7285V34.0016H16.35V33.3801Z" fill="#0100FE"/>
<path d="M40.5941 32.7588H39.9727V33.3802H40.5941V32.7588Z" fill="#0100FE"/>
<path d="M38.1087 32.7585H37.4873V33.38H38.1087V32.7585Z" fill="#0100FE"/>
<path d="M36.8656 32.7588H36.2441V33.3802H36.8656V32.7588Z" fill="#0100FE"/>
<path d="M21.9457 32.7588H21.3242V33.3802H21.9457V32.7588Z" fill="#0100FE"/>
<path d="M19.4593 32.7585H18.8379V33.38H19.4593V32.7585Z" fill="#0100FE"/>
<path d="M18.2162 32.7588H17.5947V33.3802H18.2162V32.7588Z" fill="#0100FE"/>
<path d="M58.6224 32.1372H58.001V32.7586H58.6224V32.1372Z" fill="#0100FE"/>
<path d="M57.3792 32.1372H56.7578V32.7586H57.3792V32.1372Z" fill="#0100FE"/>
<path d="M56.1371 32.1372H55.5156V32.7586H56.1371V32.1372Z" fill="#0100FE"/>
<path d="M54.8939 32.1372H54.2725V32.7586H54.8939V32.1372Z" fill="#0100FE"/>
<path d="M53.6488 32.1372H53.0273V32.7586H53.6488V32.1372Z" fill="#0100FE"/>
<path d="M52.4056 32.1372H51.7842V32.7586H52.4056V32.1372Z" fill="#0100FE"/>
<path d="M51.1634 32.1372H50.542V32.7586H51.1634V32.1372Z" fill="#0100FE"/>
<path d="M49.9203 32.1372H49.2988V32.7586H49.9203V32.1372Z" fill="#0100FE"/>
<path d="M48.6751 32.1372H48.0537V32.7586H48.6751V32.1372Z" fill="#0100FE"/>
<path d="M47.432 32.1372H46.8105V32.7586H47.432V32.1372Z" fill="#0100FE"/>
<path d="M46.1898 32.1372H45.5684V32.7586H46.1898V32.1372Z" fill="#0100FE"/>
<path d="M44.9466 32.1372H44.3252V32.7586H44.9466V32.1372Z" fill="#0100FE"/>
<path d="M43.7035 32.1372H43.082V32.7586H43.7035V32.1372Z" fill="#0100FE"/>
<path d="M42.4613 32.1372H41.8398V32.7586H42.4613V32.1372Z" fill="#0100FE"/>
<path d="M41.2162 32.1372H40.5947V32.7586H41.2162V32.1372Z" fill="#0100FE"/>
<path d="M39.973 32.1372H39.3516V32.7586H39.973V32.1372Z" fill="#0100FE"/>
<path d="M38.7298 32.1372H38.1084V32.7586H38.7298V32.1372Z" fill="#0100FE"/>
<path d="M37.4876 32.1372H36.8662V32.7586H37.4876V32.1372Z" fill="#0100FE"/>
<path d="M18.8382 32.1372H18.2168V32.7586H18.8382V32.1372Z" fill="#0100FE"/>
<path d="M17.5931 32.1372H16.9717V32.7586H17.5931V32.1372Z" fill="#0100FE"/>
<path d="M40.5941 31.5137H39.9727V32.1351H40.5941V31.5137Z" fill="#0100FE"/>
<path d="M38.1087 31.5137H37.4873V32.1351H38.1087V31.5137Z" fill="#0100FE"/>
<path d="M36.8656 31.5137H36.2441V32.1351H36.8656V31.5137Z" fill="#0100FE"/>
<path d="M20.0804 32.1372H19.459V32.7586H20.0804V33.3801H19.459V34.0015H20.0804V34.6229H20.7019V34.0015H21.3233V33.3801H20.7019V32.7586H21.3233V32.1372H20.7019V31.5137H20.0804V32.1372Z" fill="#0100FE"/>
<path d="M19.4593 31.5137H18.8379V32.1351H19.4593V31.5137Z" fill="#0100FE"/>
<path d="M18.2162 31.5137H17.5947V32.1351H18.2162V31.5137Z" fill="#0100FE"/>
<path d="M58.6224 30.8923H58.001V31.5138H58.6224V30.8923Z" fill="#0100FE"/>
<path d="M57.3792 30.8923H56.7578V31.5138H57.3792V30.8923Z" fill="#0100FE"/>
<path d="M56.1371 30.8926H55.5156V31.514H56.1371V30.8926Z" fill="#0100FE"/>
<path d="M54.8939 30.8923H54.2725V31.5138H54.8939V30.8923Z" fill="#0100FE"/>
<path d="M53.6488 30.8923H53.0273V31.5138H53.6488V30.8923Z" fill="#0100FE"/>
<path d="M52.4056 30.8926H51.7842V31.514H52.4056V30.8926Z" fill="#0100FE"/>
<path d="M51.1634 30.8926H50.542V31.514H51.1634V30.8926Z" fill="#0100FE"/>
<path d="M49.9203 30.8923H49.2988V31.5138H49.9203V30.8923Z" fill="#0100FE"/>
<path d="M48.6751 30.8923H48.0537V31.5138H48.6751V30.8923Z" fill="#0100FE"/>
<path d="M47.432 30.8926H46.8105V31.514H47.432V30.8926Z" fill="#0100FE"/>
<path d="M46.1898 30.8926H45.5684V31.514H46.1898V30.8926Z" fill="#0100FE"/>
<path d="M44.9466 30.8923H44.3252V31.5138H44.9466V30.8923Z" fill="#0100FE"/>
<path d="M43.7035 30.8926H43.082V31.514H43.7035V30.8926Z" fill="#0100FE"/>
<path d="M42.4613 30.8926H41.8398V31.514H42.4613V30.8926Z" fill="#0100FE"/>
<path d="M41.2162 30.8923H40.5947V31.5138H41.2162V30.8923Z" fill="#0100FE"/>
<path d="M39.973 30.8923H39.3516V31.5138H39.973V30.8923Z" fill="#0100FE"/>
<path d="M38.7298 30.8926H38.1084V31.514H38.7298V30.8926Z" fill="#0100FE"/>
<path d="M37.4876 30.8926H36.8662V31.514H37.4876V30.8926Z" fill="#0100FE"/>
<path d="M20.0804 30.8926H19.459V31.514H20.0804V30.8926Z" fill="#0100FE"/>
<path d="M18.8382 30.8926H18.2168V31.514H18.8382V30.8926Z" fill="#0100FE"/>
<path d="M17.5931 30.8923H16.9717V31.5138H17.5931V30.8923Z" fill="#0100FE"/>
<path d="M36.8656 30.271H36.2441V30.8924H36.8656V30.271Z" fill="#0100FE"/>
<path d="M20.7025 30.271H20.0811V30.8924H20.7025V30.271Z" fill="#0100FE"/>
<path d="M19.4593 30.271H18.8379V30.8924H19.4593V30.271Z" fill="#0100FE"/>
<path d="M59.8656 29.6494H59.2441V30.2709H59.8656V29.6494Z" fill="#0100FE"/>
<path d="M58.6224 29.6494H58.001V30.2709H58.6224V29.6494Z" fill="#0100FE"/>
<path d="M57.3792 29.6494H56.7578V30.2709H57.3792V29.6494Z" fill="#0100FE"/>
<path d="M56.1371 29.6494H55.5156V30.2709H56.1371V29.6494Z" fill="#0100FE"/>
<path d="M54.8939 29.6494H54.2725V30.2709H54.8939V29.6494Z" fill="#0100FE"/>
<path d="M53.6488 29.6494H53.0273V30.2709H53.6488V29.6494Z" fill="#0100FE"/>
<path d="M52.4056 29.6494H51.7842V30.2709H52.4056V29.6494Z" fill="#0100FE"/>
<path d="M51.1634 29.6494H50.542V30.2709H51.1634V29.6494Z" fill="#0100FE"/>
<path d="M49.9203 29.6494H49.2988V30.2709H49.9203V29.6494Z" fill="#0100FE"/>
<path d="M48.6751 29.6494H48.0537V30.2709H48.6751V29.6494Z" fill="#0100FE"/>
<path d="M47.432 29.6494H46.8105V30.2709H47.432V29.6494Z" fill="#0100FE"/>
<path d="M46.1898 29.6494H45.5684V30.2709H46.1898V29.6494Z" fill="#0100FE"/>
<path d="M44.9466 29.6494H44.3252V30.2709H44.9466V29.6494Z" fill="#0100FE"/>
<path d="M43.7035 29.6494H43.082V30.2709H43.7035V29.6494Z" fill="#0100FE"/>
<path d="M42.4613 29.6494H41.8398V30.2709H42.4613V29.6494Z" fill="#0100FE"/>
<path d="M41.2162 29.6494H40.5947V30.2709H41.2162V29.6494Z" fill="#0100FE"/>
<path d="M39.973 29.6494H39.3516V30.2709H39.973V29.6494Z" fill="#0100FE"/>
<path d="M38.7298 29.6494H38.1084V30.2709H38.7298V29.6494Z" fill="#0100FE"/>
<path d="M37.4876 29.6494H36.8662V30.2709H37.4876V29.6494Z" fill="#0100FE"/>
<path d="M36.2425 29.6494H35.6211V30.2709H36.2425V29.6494Z" fill="#0100FE"/>
<path d="M20.0804 29.6494H19.459V30.2709H20.0804V29.6494Z" fill="#0100FE"/>
<path d="M18.8382 29.6494H18.2168V30.2709H18.8382V29.6494Z" fill="#0100FE"/>
<path d="M17.5931 29.6494H16.9717V30.2709H17.5931V29.6494Z" fill="#0100FE"/>
<path d="M56.7582 29.0281H56.1367V29.6495H56.7582V29.0281Z" fill="#0100FE"/>
<path d="M54.2699 29.0278H53.6484V29.6493H54.2699V29.0278Z" fill="#0100FE"/>
<path d="M51.7845 29.0281H51.1631V29.6495H51.7845V29.0281Z" fill="#0100FE"/>
<path d="M49.2992 29.0278H48.6777V29.6493H49.2992V29.0278Z" fill="#0100FE"/>
<path d="M46.8109 29.0281H46.1895V29.6495H46.8109V29.0281Z" fill="#0100FE"/>
<path d="M44.3256 29.0278H43.7041V29.6493H44.3256V29.0278Z" fill="#0100FE"/>
<path d="M41.8373 29.0281H41.2158V29.6495H41.8373V29.0281Z" fill="#0100FE"/>
<path d="M39.3519 29.0281H38.7305V29.6495H39.3519V29.0281Z" fill="#0100FE"/>
<path d="M36.8656 29.0278H36.2441V29.6493H36.8656V29.0278Z" fill="#0100FE"/>
<path d="M35.6205 29.0278H34.999V29.6493H35.6205V29.0278Z" fill="#0100FE"/>
<path d="M20.7025 29.0278H20.0811V29.6493H20.7025V29.0278Z" fill="#0100FE"/>
<path d="M19.4593 29.0281H18.8379V29.6495H19.4593V29.0281Z" fill="#0100FE"/>
<path d="M58.6224 28.4065H58.001V29.0279H58.6224V28.4065Z" fill="#0100FE"/>
<path d="M57.3792 28.4065H56.7578V29.0279H57.3792V28.4065Z" fill="#0100FE"/>
<path d="M56.1371 28.4062H55.5156V29.0277H56.1371V28.4062Z" fill="#0100FE"/>
<path d="M54.8939 28.4065H54.2725V29.0279H54.8939V28.4065Z" fill="#0100FE"/>
<path d="M53.6488 28.4065H53.0273V29.0279H53.6488V28.4065Z" fill="#0100FE"/>
<path d="M52.4056 28.4062H51.7842V29.0277H52.4056V28.4062Z" fill="#0100FE"/>
<path d="M51.1634 28.4062H50.542V29.0277H51.1634V28.4062Z" fill="#0100FE"/>
<path d="M49.9203 28.4065H49.2988V29.0279H49.9203V28.4065Z" fill="#0100FE"/>
<path d="M48.6751 28.4065H48.0537V29.0279H48.6751V28.4065Z" fill="#0100FE"/>
<path d="M47.432 28.4062H46.8105V29.0277H47.432V28.4062Z" fill="#0100FE"/>
<path d="M46.1898 28.4062H45.5684V29.0277H46.1898V28.4062Z" fill="#0100FE"/>
<path d="M44.9466 28.4065H44.3252V29.0279H44.9466V28.4065Z" fill="#0100FE"/>
<path d="M43.7035 28.4062H43.082V29.0277H43.7035V28.4062Z" fill="#0100FE"/>
<path d="M42.4613 28.4062H41.8398V29.0277H42.4613V28.4062Z" fill="#0100FE"/>
<path d="M41.2162 28.4065H40.5947V29.0279H41.2162V28.4065Z" fill="#0100FE"/>
<path d="M39.973 28.4065H39.3516V29.0279H39.973V28.4065Z" fill="#0100FE"/>
<path d="M38.7298 28.4062H38.1084V29.0277H38.7298V28.4062Z" fill="#0100FE"/>
<path d="M37.4876 28.4062H36.8662V29.0277H37.4876V28.4062Z" fill="#0100FE"/>
<path d="M36.2425 28.4065H35.6211V29.0279H36.2425V28.4065Z" fill="#0100FE"/>
<path d="M34.9994 28.4065H34.3779V29.0279H34.9994V28.4065Z" fill="#0100FE"/>
<path d="M21.3236 28.4065H20.7021V29.0279H21.3236V28.4065Z" fill="#0100FE"/>
<path d="M20.0804 28.4062H19.459V29.0277H20.0804V28.4062Z" fill="#0100FE"/>
<path d="M18.8382 28.4062H18.2168V29.0277H18.8382V28.4062Z" fill="#0100FE"/>
<path d="M24.433 27.7852H23.8115V28.4066H24.433V27.7852Z" fill="#0100FE"/>
<path d="M21.9457 27.7852H21.3242V28.4066H21.9457V27.7852Z" fill="#0100FE"/>
<path d="M20.7025 27.7852H20.0811V28.4066H20.7025V27.7852Z" fill="#0100FE"/>
<path d="M58.6224 27.1636H58.001V27.785H58.6224V27.1636Z" fill="#0100FE"/>
<path d="M57.3792 27.1636H56.7578V27.785H57.3792V27.1636Z" fill="#0100FE"/>
<path d="M56.1371 27.1636H55.5156V27.785H56.1371V27.1636Z" fill="#0100FE"/>
<path d="M54.8939 27.1636H54.2725V27.785H54.8939V27.1636Z" fill="#0100FE"/>
<path d="M53.6488 27.1636H53.0273V27.785H53.6488V27.1636Z" fill="#0100FE"/>
<path d="M52.4056 27.1636H51.7842V27.785H52.4056V27.1636Z" fill="#0100FE"/>
<path d="M51.1634 27.1636H50.542V27.785H51.1634V27.1636Z" fill="#0100FE"/>
<path d="M49.9203 27.1636H49.2988V27.785H49.9203V27.1636Z" fill="#0100FE"/>
<path d="M48.6751 27.1636H48.0537V27.785H48.6751V27.1636Z" fill="#0100FE"/>
<path d="M47.432 27.1636H46.8105V27.785H47.432V27.1636Z" fill="#0100FE"/>
<path d="M46.1898 27.1636H45.5684V27.785H46.1898V27.1636Z" fill="#0100FE"/>
<path d="M44.9466 27.1636H44.3252V27.785H44.9466V27.1636Z" fill="#0100FE"/>
<path d="M43.7035 27.1636H43.082V27.785H43.7035V27.1636Z" fill="#0100FE"/>
<path d="M42.4613 27.1636H41.8398V27.785H42.4613V27.1636Z" fill="#0100FE"/>
<path d="M41.2162 27.1636H40.5947V27.785H41.2162V27.1636Z" fill="#0100FE"/>
<path d="M39.973 27.1636H39.3516V27.785H39.973V27.1636Z" fill="#0100FE"/>
<path d="M38.7298 27.1636H38.1084V27.785H38.7298V27.1636Z" fill="#0100FE"/>
<path d="M37.4876 27.1636H36.8662V27.785H37.4876V27.1636Z" fill="#0100FE"/>
<path d="M36.2425 27.1636H35.6211V27.785H36.2425V27.1636Z" fill="#0100FE"/>
<path d="M34.9994 27.1636H34.3779V27.785H34.9994V27.1636Z" fill="#0100FE"/>
<path d="M33.7562 27.1636H33.1348V27.785H33.7562V27.1636Z" fill="#0100FE"/>
<path d="M21.3236 27.1636H20.7021V27.785H21.3236V27.1636Z" fill="#0100FE"/>
<path d="M20.0804 27.1636H19.459V27.785H20.0804V27.1636Z" fill="#0100FE"/>
<path d="M18.8382 27.1636H18.2168V27.785H18.8382V27.1636Z" fill="#0100FE"/>
<path d="M33.1351 26.5422H32.5137V27.1637H33.1351V26.5422Z" fill="#0100FE"/>
<path d="M21.9457 26.542H21.3242V27.1634H21.9457V26.542Z" fill="#0100FE"/>
<path d="M20.7025 26.542H20.0811V27.1634H20.7025V26.542Z" fill="#0100FE"/>
<path d="M57.3792 25.9207H56.7578V26.5421H57.3792V25.9207Z" fill="#0100FE"/>
<path d="M56.1371 25.9209H55.5156V26.5423H56.1371V25.9209Z" fill="#0100FE"/>
<path d="M54.8939 25.9207H54.2725V26.5421H54.8939V25.9207Z" fill="#0100FE"/>
<path d="M53.6488 25.9207H53.0273V26.5421H53.6488V25.9207Z" fill="#0100FE"/>
<path d="M52.4056 25.9209H51.7842V26.5423H52.4056V25.9209Z" fill="#0100FE"/>
<path d="M51.1634 25.9209H50.542V26.5423H51.1634V25.9209Z" fill="#0100FE"/>
<path d="M49.9203 25.9207H49.2988V26.5421H49.9203V25.9207Z" fill="#0100FE"/>
<path d="M48.6751 25.9207H48.0537V26.5421H48.6751V25.9207Z" fill="#0100FE"/>
<path d="M47.432 25.9209H46.8105V26.5423H47.432V25.9209Z" fill="#0100FE"/>
<path d="M46.1898 25.9209H45.5684V26.5423H46.1898V25.9209Z" fill="#0100FE"/>
<path d="M44.9466 25.9207H44.3252V26.5421H44.9466V25.9207Z" fill="#0100FE"/>
<path d="M43.7035 25.9209H43.082V26.5423H43.7035V25.9209Z" fill="#0100FE"/>
<path d="M42.4613 25.9209H41.8398V26.5423H42.4613V25.9209Z" fill="#0100FE"/>
<path d="M41.2162 25.9207H40.5947V26.5421H41.2162V25.9207Z" fill="#0100FE"/>
<path d="M39.973 25.9207H39.3516V26.5421H39.973V25.9207Z" fill="#0100FE"/>
<path d="M38.7298 25.9209H38.1084V26.5423H38.7298V25.9209Z" fill="#0100FE"/>
<path d="M37.4876 25.9209H36.8662V26.5423H37.4876V25.9209Z" fill="#0100FE"/>
<path d="M36.2425 25.9207H35.6211V26.5421H36.2425V25.9207Z" fill="#0100FE"/>
<path d="M34.9994 25.9207H34.3779V26.5421H34.9994V25.9207Z" fill="#0100FE"/>
<path d="M33.7562 25.9209H33.1348V26.5423H33.7562V25.9209Z" fill="#0100FE"/>
<path d="M32.514 25.9209H31.8926V26.5423H32.514V25.9209Z" fill="#0100FE"/>
<path d="M31.2709 25.9207H30.6494V26.5421H31.2709V25.9207Z" fill="#0100FE"/>
<path d="M22.5667 25.9209H21.9453V26.5423H22.5667V25.9209Z" fill="#0100FE"/>
<path d="M21.3236 25.9207H20.7021V26.5421H21.3236V25.9207Z" fill="#0100FE"/>
<path d="M20.0804 25.9209H19.459V26.5423H20.0804V25.9209Z" fill="#0100FE"/>
<path d="M23.1878 25.2974H22.5664V25.9188H23.1878V25.2974Z" fill="#0100FE"/>
<path d="M21.9457 25.2974H21.3242V25.9188H21.9457V25.2974Z" fill="#0100FE"/>
<path d="M57.3792 24.6758H56.7578V25.2972H57.3792V24.6758Z" fill="#0100FE"/>
<path d="M56.1371 24.6758H55.5156V25.2972H56.1371V24.6758Z" fill="#0100FE"/>
<path d="M54.8939 24.6758H54.2725V25.2972H54.8939V24.6758Z" fill="#0100FE"/>
<path d="M53.6488 24.6758H53.0273V25.2972H53.6488V24.6758Z" fill="#0100FE"/>
<path d="M52.4056 24.6758H51.7842V25.2972H52.4056V24.6758Z" fill="#0100FE"/>
<path d="M51.1634 24.6758H50.542V25.2972H51.1634V24.6758Z" fill="#0100FE"/>
<path d="M49.9203 24.6758H49.2988V25.2972H49.9203V24.6758Z" fill="#0100FE"/>
<path d="M48.6751 24.6758H48.0537V25.2972H48.6751V24.6758Z" fill="#0100FE"/>
<path d="M47.432 24.6758H46.8105V25.2972H47.432V24.6758Z" fill="#0100FE"/>
<path d="M46.1898 24.6758H45.5684V25.2972H46.1898V24.6758Z" fill="#0100FE"/>
<path d="M44.9466 24.6758H44.3252V25.2972H44.9466V24.6758Z" fill="#0100FE"/>
<path d="M43.7035 24.6758H43.082V25.2972H43.7035V24.6758Z" fill="#0100FE"/>
<path d="M42.4613 24.6758H41.8398V25.2972H42.4613V24.6758Z" fill="#0100FE"/>
<path d="M41.2162 24.6758H40.5947V25.2972H41.2162V24.6758Z" fill="#0100FE"/>
<path d="M39.973 24.6758H39.3516V25.2972H39.973V24.6758Z" fill="#0100FE"/>
<path d="M38.7298 24.6758H38.1084V25.2972H38.7298V24.6758Z" fill="#0100FE"/>
<path d="M37.4876 24.6758H36.8662V25.2972H37.4876V24.6758Z" fill="#0100FE"/>
<path d="M36.2425 24.6758H35.6211V25.2972H36.2425V24.6758Z" fill="#0100FE"/>
<path d="M34.9994 24.6758H34.3779V25.2972H34.9994V24.6758Z" fill="#0100FE"/>
<path d="M33.7562 24.6758H33.1348V25.2972H33.7562V24.6758Z" fill="#0100FE"/>
<path d="M32.514 24.6758H31.8926V25.2972H32.514V24.6758Z" fill="#0100FE"/>
<path d="M31.2709 24.6758H30.6494V25.2972H31.2709V24.6758Z" fill="#0100FE"/>
<path d="M22.5667 24.6758H21.9453V25.2972H22.5667V24.6758Z" fill="#0100FE"/>
<path d="M21.3236 24.6758H20.7021V25.2972H21.3236V24.6758Z" fill="#0100FE"/>
<path d="M20.0804 24.6758H19.459V25.2972H20.0804V24.6758Z" fill="#0100FE"/>
<path d="M56.7582 24.0544H56.1367V24.6759H56.7582V24.0544Z" fill="#0100FE"/>
<path d="M54.2699 24.0547H53.6484V24.6761H54.2699V24.0547Z" fill="#0100FE"/>
<path d="M51.7845 24.0544H51.1631V24.6759H51.7845V24.0544Z" fill="#0100FE"/>
<path d="M49.2992 24.0547H48.6777V24.6761H49.2992V24.0547Z" fill="#0100FE"/>
<path d="M46.8109 24.0544H46.1895V24.6759H46.8109V24.0544Z" fill="#0100FE"/>
<path d="M44.3256 24.0547H43.7041V24.6761H44.3256V24.0547Z" fill="#0100FE"/>
<path d="M41.8373 24.0544H41.2158V24.6759H41.8373V24.0544Z" fill="#0100FE"/>
<path d="M39.3519 24.0544H38.7305V24.6759H39.3519V24.0544Z" fill="#0100FE"/>
<path d="M36.8656 24.0547H36.2441V24.6761H36.8656V24.0547Z" fill="#0100FE"/>
<path d="M34.3783 24.0547H33.7568V24.6761H34.3783V24.0547Z" fill="#0100FE"/>
<path d="M31.8919 24.0547H31.2705V24.6761H31.8919V24.0547Z" fill="#0100FE"/>
<path d="M23.1878 24.0544H22.5664V24.6759H23.1878V24.0544Z" fill="#0100FE"/>
<path d="M21.9457 24.0547H21.3242V24.6761H21.9457V24.0547Z" fill="#0100FE"/>
<path d="M56.1371 23.4326H55.5156V24.0541H56.1371V23.4326Z" fill="#0100FE"/>
<path d="M54.8939 23.4329H54.2725V24.0543H54.8939V23.4329Z" fill="#0100FE"/>
<path d="M53.6488 23.4329H53.0273V24.0543H53.6488V23.4329Z" fill="#0100FE"/>
<path d="M52.4056 23.4326H51.7842V24.0541H52.4056V23.4326Z" fill="#0100FE"/>
<path d="M51.1634 23.4326H50.542V24.0541H51.1634V23.4326Z" fill="#0100FE"/>
<path d="M49.9203 23.4329H49.2988V24.0543H49.9203V23.4329Z" fill="#0100FE"/>
<path d="M48.6751 23.4329H48.0537V24.0543H48.6751V23.4329Z" fill="#0100FE"/>
<path d="M47.432 23.4326H46.8105V24.0541H47.432V23.4326Z" fill="#0100FE"/>
<path d="M46.1898 23.4326H45.5684V24.0541H46.1898V23.4326Z" fill="#0100FE"/>
<path d="M44.9466 23.4329H44.3252V24.0543H44.9466V23.4329Z" fill="#0100FE"/>
<path d="M43.7035 23.4326H43.082V24.0541H43.7035V23.4326Z" fill="#0100FE"/>
<path d="M42.4613 23.4326H41.8398V24.0541H42.4613V23.4326Z" fill="#0100FE"/>
<path d="M41.2162 23.4329H40.5947V24.0543H41.2162V23.4329Z" fill="#0100FE"/>
<path d="M39.973 23.4329H39.3516V24.0543H39.973V23.4329Z" fill="#0100FE"/>
<path d="M38.7298 23.4326H38.1084V24.0541H38.7298V23.4326Z" fill="#0100FE"/>
<path d="M37.4876 23.4326H36.8662V24.0541H37.4876V23.4326Z" fill="#0100FE"/>
<path d="M36.2425 23.4329H35.6211V24.0543H36.2425V23.4329Z" fill="#0100FE"/>
<path d="M34.9994 23.4329H34.3779V24.0543H34.9994V23.4329Z" fill="#0100FE"/>
<path d="M33.7562 23.4326H33.1348V24.0541H33.7562V23.4326Z" fill="#0100FE"/>
<path d="M32.514 23.4326H31.8926V24.0541H32.514V23.4326Z" fill="#0100FE"/>
<path d="M31.2709 23.4329H30.6494V24.0543H31.2709V23.4329Z" fill="#0100FE"/>
<path d="M30.0257 23.4329H29.4043V24.0543H30.0257V23.4329Z" fill="#0100FE"/>
<path d="M23.8099 23.4326H23.1885V24.0541H23.8099V23.4326Z" fill="#0100FE"/>
<path d="M22.5667 23.4326H21.9453V24.0541H22.5667V23.4326Z" fill="#0100FE"/>
<path d="M21.3236 23.4329H20.7021V24.0543H21.3236V23.4329Z" fill="#0100FE"/>
<path d="M26.9183 22.8115H26.2969V23.433H26.9183V22.8115Z" fill="#0100FE"/>
<path d="M24.433 22.8115H23.8115V23.433H24.433V22.8115Z" fill="#0100FE"/>
<path d="M23.1878 22.8115H22.5664V23.433H23.1878V22.8115Z" fill="#0100FE"/>
<path d="M54.8939 22.1902H54.2725V22.8116H54.8939V22.1902Z" fill="#0100FE"/>
<path d="M53.6488 22.1902H53.0273V22.8116H53.6488V22.1902Z" fill="#0100FE"/>
<path d="M52.4056 22.1904H51.7842V22.8119H52.4056V22.1904Z" fill="#0100FE"/>
<path d="M51.1634 22.1904H50.542V22.8119H51.1634V22.1904Z" fill="#0100FE"/>
<path d="M49.9203 22.1902H49.2988V22.8116H49.9203V22.1902Z" fill="#0100FE"/>
<path d="M48.6751 22.1902H48.0537V22.8116H48.6751V22.1902Z" fill="#0100FE"/>
<path d="M47.432 22.1904H46.8105V22.8119H47.432V22.1904Z" fill="#0100FE"/>
<path d="M46.1898 22.1904H45.5684V22.8119H46.1898V22.1904Z" fill="#0100FE"/>
<path d="M44.9466 22.1902H44.3252V22.8116H44.9466V22.1902Z" fill="#0100FE"/>
<path d="M43.7035 22.1904H43.082V22.8119H43.7035V22.1904Z" fill="#0100FE"/>
<path d="M42.4613 22.1904H41.8398V22.8119H42.4613V22.1904Z" fill="#0100FE"/>
<path d="M41.2162 22.1902H40.5947V22.8116H41.2162V22.1902Z" fill="#0100FE"/>
<path d="M39.973 22.1902H39.3516V22.8116H39.973V22.1902Z" fill="#0100FE"/>
<path d="M38.7298 22.1904H38.1084V22.8119H38.7298V22.1904Z" fill="#0100FE"/>
<path d="M37.4876 22.1904H36.8662V22.8119H37.4876V22.1904Z" fill="#0100FE"/>
<path d="M36.2425 22.1902H35.6211V22.8116H36.2425V22.1902Z" fill="#0100FE"/>
<path d="M34.9994 22.1902H34.3779V22.8116H34.9994V22.1902Z" fill="#0100FE"/>
<path d="M33.7562 22.1904H33.1348V22.8119H33.7562V22.1904Z" fill="#0100FE"/>
<path d="M32.514 22.1904H31.8926V22.8119H32.514V22.1904Z" fill="#0100FE"/>
<path d="M31.2709 22.1902H30.6494V22.8116H31.2709V22.1902Z" fill="#0100FE"/>
<path d="M30.0257 22.1902H29.4043V22.8116H30.0257V22.1902Z" fill="#0100FE"/>
<path d="M28.7826 22.1904H28.1611V22.8119H28.7826V22.1904Z" fill="#0100FE"/>
<path d="M27.5404 22.1902H26.9189V22.8116H27.5404V22.1902Z" fill="#0100FE"/>
<path d="M23.8099 22.1904H23.1885V22.8119H23.8099V22.1904Z" fill="#0100FE"/>
<path d="M22.5667 22.1904H21.9453V22.8119H22.5667V22.1904Z" fill="#0100FE"/>
<path d="M21.3236 22.1902H20.7021V22.8116H21.3236V22.1902Z" fill="#0100FE"/>
<path d="M28.1615 21.5686H27.54V22.1901H28.1615V21.5686Z" fill="#0100FE"/>
<path d="M26.9183 21.5684H26.2969V22.1898H26.9183V21.5684Z" fill="#0100FE"/>
<path d="M24.433 21.5686H23.8115V22.1901H24.433V21.5686Z" fill="#0100FE"/>
<path d="M23.1878 21.5686H22.5664V22.1901H23.1878V21.5686Z" fill="#0100FE"/>
<path d="M53.6488 20.9473H53.0273V21.5687H53.6488V20.9473Z" fill="#0100FE"/>
<path d="M52.4056 20.9473H51.7842V21.5687H52.4056V20.9473Z" fill="#0100FE"/>
<path d="M51.1634 20.9473H50.542V21.5687H51.1634V20.9473Z" fill="#0100FE"/>
<path d="M49.9203 20.9473H49.2988V21.5687H49.9203V20.9473Z" fill="#0100FE"/>
<path d="M48.6751 20.9473H48.0537V21.5687H48.6751V20.9473Z" fill="#0100FE"/>
<path d="M47.432 20.9473H46.8105V21.5687H47.432V20.9473Z" fill="#0100FE"/>
<path d="M46.1898 20.9473H45.5684V21.5687H46.1898V20.9473Z" fill="#0100FE"/>
<path d="M44.9466 20.9473H44.3252V21.5687H44.9466V20.9473Z" fill="#0100FE"/>
<path d="M43.7035 20.9473H43.082V21.5687H43.7035V20.9473Z" fill="#0100FE"/>
<path d="M42.4613 20.9473H41.8398V21.5687H42.4613V20.9473Z" fill="#0100FE"/>
<path d="M41.2162 20.9473H40.5947V21.5687H41.2162V20.9473Z" fill="#0100FE"/>
<path d="M39.973 20.9473H39.3516V21.5687H39.973V20.9473Z" fill="#0100FE"/>
<path d="M38.7298 20.9473H38.1084V21.5687H38.7298V20.9473Z" fill="#0100FE"/>
<path d="M37.4876 20.9473H36.8662V21.5687H37.4876V20.9473Z" fill="#0100FE"/>
<path d="M36.2425 20.9473H35.6211V21.5687H36.2425V20.9473Z" fill="#0100FE"/>
<path d="M34.9994 20.9473H34.3779V21.5687H34.9994V20.9473Z" fill="#0100FE"/>
<path d="M33.7562 20.9473H33.1348V21.5687H33.7562V20.9473Z" fill="#0100FE"/>
<path d="M32.514 20.9473H31.8926V21.5687H32.514V20.9473Z" fill="#0100FE"/>
<path d="M31.2709 20.9473H30.6494V21.5687H31.2709V20.9473Z" fill="#0100FE"/>
<path d="M30.0257 20.9473H29.4043V21.5687H30.0257V20.9473Z" fill="#0100FE"/>
<path d="M28.7826 20.9473H28.1611V21.5687H28.7826V20.9473Z" fill="#0100FE"/>
<path d="M27.5404 20.9473H26.9189V21.5687H27.5404V20.9473Z" fill="#0100FE"/>
<path d="M26.2972 20.9473H25.6758V21.5687H26.2972V20.9473Z" fill="#0100FE"/>
<path d="M25.0541 20.9473H24.4326V21.5687H25.0541V20.9473Z" fill="#0100FE"/>
<path d="M23.8099 20.9473H23.1885V21.5687H23.8099V20.9473Z" fill="#0100FE"/>
<path d="M22.5667 20.9473H21.9453V21.5687H22.5667V20.9473Z" fill="#0100FE"/>
<path d="M21.3236 20.9473H20.7021V21.5687H21.3236V20.9473Z" fill="#0100FE"/>
<path d="M25.6761 20.3257H25.0547V20.9471H25.6761V20.3257Z" fill="#0100FE"/>
<path d="M24.433 20.3257H23.8115V20.9471H24.433V20.3257Z" fill="#0100FE"/>
<path d="M52.4056 19.7041H51.7842V20.3255H52.4056V19.7041Z" fill="#0100FE"/>
<path d="M51.1634 19.7041H50.542V20.3255H51.1634V19.7041Z" fill="#0100FE"/>
<path d="M49.9203 19.7043H49.2988V20.3258H49.9203V19.7043Z" fill="#0100FE"/>
<path d="M48.6751 19.7043H48.0537V20.3258H48.6751V19.7043Z" fill="#0100FE"/>
<path d="M47.432 19.7041H46.8105V20.3255H47.432V19.7041Z" fill="#0100FE"/>
<path d="M46.1898 19.7041H45.5684V20.3255H46.1898V19.7041Z" fill="#0100FE"/>
<path d="M44.9466 19.7043H44.3252V20.3258H44.9466V19.7043Z" fill="#0100FE"/>
<path d="M43.7035 19.7041H43.082V20.3255H43.7035V19.7041Z" fill="#0100FE"/>
<path d="M42.4613 19.7041H41.8398V20.3255H42.4613V19.7041Z" fill="#0100FE"/>
<path d="M41.2162 19.7043H40.5947V20.3258H41.2162V19.7043Z" fill="#0100FE"/>
<path d="M39.973 19.7043H39.3516V20.3258H39.973V19.7043Z" fill="#0100FE"/>
<path d="M38.7298 19.7041H38.1084V20.3255H38.7298V19.7041Z" fill="#0100FE"/>
<path d="M37.4876 19.7041H36.8662V20.3255H37.4876V19.7041Z" fill="#0100FE"/>
<path d="M36.2425 19.7043H35.6211V20.3258H36.2425V19.7043Z" fill="#0100FE"/>
<path d="M34.9994 19.7043H34.3779V20.3258H34.9994V19.7043Z" fill="#0100FE"/>
<path d="M33.7562 19.7041H33.1348V20.3255H33.7562V19.7041Z" fill="#0100FE"/>
<path d="M32.514 19.7041H31.8926V20.3255H32.514V19.7041Z" fill="#0100FE"/>
<path d="M31.2709 19.7043H30.6494V20.3258H31.2709V19.7043Z" fill="#0100FE"/>
<path d="M30.0257 19.7043H29.4043V20.3258H30.0257V19.7043Z" fill="#0100FE"/>
<path d="M28.7826 19.7041H28.1611V20.3255H28.7826V19.7041Z" fill="#0100FE"/>
<path d="M27.5404 19.7043H26.9189V20.3258H27.5404V19.7043Z" fill="#0100FE"/>
<path d="M26.2972 19.7043H25.6758V20.3258H26.2972V19.7043Z" fill="#0100FE"/>
<path d="M25.0541 19.7041H24.4326V20.3255H25.0541V19.7041Z" fill="#0100FE"/>
<path d="M23.8099 19.7041H23.1885V20.3255H23.8099V19.7041Z" fill="#0100FE"/>
<path d="M22.5667 19.7041H21.9453V20.3255H22.5667V19.7041Z" fill="#0100FE"/>
<path d="M51.7845 19.0808H51.1631V19.7022H51.7845V19.0808Z" fill="#0100FE"/>
<path d="M49.2992 19.0811H48.6777V19.7025H49.2992V19.0811Z" fill="#0100FE"/>
<path d="M46.8109 19.0808H46.1895V19.7022H46.8109V19.0808Z" fill="#0100FE"/>
<path d="M44.3256 19.0811H43.7041V19.7025H44.3256V19.0811Z" fill="#0100FE"/>
<path d="M41.8373 19.0808H41.2158V19.7022H41.8373V19.0808Z" fill="#0100FE"/>
<path d="M39.3519 19.0808H38.7305V19.7022H39.3519V19.0808Z" fill="#0100FE"/>
<path d="M36.8656 19.0811H36.2441V19.7025H36.8656V19.0811Z" fill="#0100FE"/>
<path d="M34.3783 19.0811H33.7568V19.7025H34.3783V19.0811Z" fill="#0100FE"/>
<path d="M31.8919 19.0811H31.2705V19.7025H31.8919V19.0811Z" fill="#0100FE"/>
<path d="M29.4046 19.0808H28.7832V19.7022H29.4046V19.0808Z" fill="#0100FE"/>
<path d="M26.9183 19.0811H26.2969V19.7025H26.9183V19.0811Z" fill="#0100FE"/>
<path d="M25.6761 19.0811H25.0547V19.7025H25.6761V19.0811Z" fill="#0100FE"/>
<path d="M24.433 19.0808H23.8115V19.7022H24.433V19.0808Z" fill="#0100FE"/>
<path d="M21.9457 19.0811H21.3242V19.7025H21.9457V19.0811Z" fill="#0100FE"/>
<path d="M51.1634 18.4595H50.542V19.0809H51.1634V18.4595Z" fill="#0100FE"/>
<path d="M49.9203 18.4595H49.2988V19.0809H49.9203V18.4595Z" fill="#0100FE"/>
<path d="M48.6751 18.4595H48.0537V19.0809H48.6751V18.4595Z" fill="#0100FE"/>
<path d="M47.432 18.4595H46.8105V19.0809H47.432V18.4595Z" fill="#0100FE"/>
<path d="M46.1898 18.4595H45.5684V19.0809H46.1898V18.4595Z" fill="#0100FE"/>
<path d="M44.9466 18.4595H44.3252V19.0809H44.9466V18.4595Z" fill="#0100FE"/>
<path d="M43.7035 18.4595H43.082V19.0809H43.7035V18.4595Z" fill="#0100FE"/>
<path d="M42.4613 18.4595H41.8398V19.0809H42.4613V18.4595Z" fill="#0100FE"/>
<path d="M41.2162 18.4595H40.5947V19.0809H41.2162V18.4595Z" fill="#0100FE"/>
<path d="M39.973 18.4595H39.3516V19.0809H39.973V18.4595Z" fill="#0100FE"/>
<path d="M38.7298 18.4595H38.1084V19.0809H38.7298V18.4595Z" fill="#0100FE"/>
<path d="M37.4876 18.4595H36.8662V19.0809H37.4876V18.4595Z" fill="#0100FE"/>
<path d="M36.2425 18.4595H35.6211V19.0809H36.2425V18.4595Z" fill="#0100FE"/>
<path d="M34.9994 18.4595H34.3779V19.0809H34.9994V18.4595Z" fill="#0100FE"/>
<path d="M33.7562 18.4595H33.1348V19.0809H33.7562V18.4595Z" fill="#0100FE"/>
<path d="M32.514 18.4595H31.8926V19.0809H32.514V18.4595Z" fill="#0100FE"/>
<path d="M31.2709 18.4595H30.6494V19.0809H31.2709V18.4595Z" fill="#0100FE"/>
<path d="M30.0257 18.4595H29.4043V19.0809H30.0257V18.4595Z" fill="#0100FE"/>
<path d="M28.7826 18.4595H28.1611V19.0809H28.7826V18.4595Z" fill="#0100FE"/>
<path d="M27.5404 18.4595H26.9189V19.0809H27.5404V18.4595Z" fill="#0100FE"/>
<path d="M26.2972 18.4595H25.6758V19.0809H26.2972V18.4595Z" fill="#0100FE"/>
<path d="M25.0541 18.4595H24.4326V19.0809H25.0541V18.4595Z" fill="#0100FE"/>
<path d="M23.8099 18.4595H23.1885V19.0809H23.8099V18.4595Z" fill="#0100FE"/>
<path d="M22.5667 18.4595H21.9453V19.0809H22.5667V18.4595Z" fill="#0100FE"/>
<path d="M23.1878 17.8379H22.5664V18.4593H23.1878V17.8379Z" fill="#0100FE"/>
<path d="M49.9203 17.2166H49.2988V17.838H49.9203V17.2166Z" fill="#0100FE"/>
<path d="M48.6751 17.2166H48.0537V17.838H48.6751V17.2166Z" fill="#0100FE"/>
<path d="M47.432 17.2168H46.8105V17.8382H47.432V17.2168Z" fill="#0100FE"/>
<path d="M46.1898 17.2168H45.5684V17.8382H46.1898V17.2168Z" fill="#0100FE"/>
<path d="M44.9466 17.2166H44.3252V17.838H44.9466V17.2166Z" fill="#0100FE"/>
<path d="M43.7035 17.2168H43.082V17.8382H43.7035V17.2168Z" fill="#0100FE"/>
<path d="M42.4613 17.2168H41.8398V17.8382H42.4613V17.2168Z" fill="#0100FE"/>
<path d="M41.2162 17.2166H40.5947V17.838H41.2162V17.2166Z" fill="#0100FE"/>
<path d="M39.973 17.2166H39.3516V17.838H39.973V17.2166Z" fill="#0100FE"/>
<path d="M38.7298 17.2168H38.1084V17.8382H38.7298V17.2168Z" fill="#0100FE"/>
<path d="M37.4876 17.2168H36.8662V17.8382H37.4876V17.2168Z" fill="#0100FE"/>
<path d="M36.2425 17.2166H35.6211V17.838H36.2425V17.2166Z" fill="#0100FE"/>
<path d="M34.9994 17.2166H34.3779V17.838H34.9994V17.2166Z" fill="#0100FE"/>
<path d="M33.7562 17.2168H33.1348V17.8382H33.7562V17.2168Z" fill="#0100FE"/>
<path d="M32.514 17.2168H31.8926V17.8382H32.514V17.2168Z" fill="#0100FE"/>
<path d="M31.2709 17.2166H30.6494V17.838H31.2709V17.2166Z" fill="#0100FE"/>
<path d="M30.0257 17.2166H29.4043V17.838H30.0257V17.2166Z" fill="#0100FE"/>
<path d="M28.7826 17.2168H28.1611V17.8382H28.7826V17.2168Z" fill="#0100FE"/>
<path d="M27.5404 17.2166H26.9189V17.838H27.5404V17.2166Z" fill="#0100FE"/>
<path d="M26.2972 17.2166H25.6758V17.838H26.2972V17.2166Z" fill="#0100FE"/>
<path d="M25.0541 17.2168H24.4326V17.8382H25.0541V17.2168Z" fill="#0100FE"/>
<path d="M23.8099 17.2168H23.1885V17.8382H23.8099V17.2168Z" fill="#0100FE"/>
<path d="M23.1878 16.595H22.5664V17.2164H23.1878V16.595Z" fill="#0100FE"/>
<path d="M47.432 15.9736H46.8105V16.5951H47.432V15.9736Z" fill="#0100FE"/>
<path d="M46.1898 15.9736H45.5684V16.5951H46.1898V15.9736Z" fill="#0100FE"/>
<path d="M44.9466 15.9736H44.3252V16.5951H44.9466V15.9736Z" fill="#0100FE"/>
<path d="M43.7035 15.9736H43.082V16.5951H43.7035V15.9736Z" fill="#0100FE"/>
<path d="M42.4613 15.9736H41.8398V16.5951H42.4613V15.9736Z" fill="#0100FE"/>
<path d="M41.2162 15.9736H40.5947V16.5951H41.2162V15.9736Z" fill="#0100FE"/>
<path d="M39.973 15.9736H39.3516V16.5951H39.973V15.9736Z" fill="#0100FE"/>
<path d="M38.7298 15.9736H38.1084V16.5951H38.7298V15.9736Z" fill="#0100FE"/>
<path d="M37.4876 15.9736H36.8662V16.5951H37.4876V15.9736Z" fill="#0100FE"/>
<path d="M36.2425 15.9736H35.6211V16.5951H36.2425V15.9736Z" fill="#0100FE"/>
<path d="M34.9994 15.9736H34.3779V16.5951H34.9994V15.9736Z" fill="#0100FE"/>
<path d="M33.7562 15.9736H33.1348V16.5951H33.7562V15.9736Z" fill="#0100FE"/>
<path d="M32.514 15.9736H31.8926V16.5951H32.514V15.9736Z" fill="#0100FE"/>
<path d="M31.2709 15.9736H30.6494V16.5951H31.2709V15.9736Z" fill="#0100FE"/>
<path d="M30.0257 15.9736H29.4043V16.5951H30.0257V15.9736Z" fill="#0100FE"/>
<path d="M28.7826 15.9736H28.1611V16.5951H28.7826V15.9736Z" fill="#0100FE"/>
<path d="M27.5404 15.9736H26.9189V16.5951H27.5404V15.9736Z" fill="#0100FE"/>
<path d="M26.2972 15.9736H25.6758V16.5951H26.2972V15.9736Z" fill="#0100FE"/>
<path d="M25.0541 15.9736H24.4326V16.5951H25.0541V15.9736Z" fill="#0100FE"/>
<path d="M23.8099 15.9736H23.1885V16.5951H23.8099V15.9736Z" fill="#0100FE"/>
<path d="M24.433 15.3521H23.8115V15.9735H24.433V15.3521Z" fill="#0100FE"/>
<path d="M46.1898 14.7305H45.5684V15.3519H46.1898V14.7305Z" fill="#0100FE"/>
<path d="M44.9466 14.7307H44.3252V15.3521H44.9466V14.7307Z" fill="#0100FE"/>
<path d="M43.7035 14.7305H43.082V15.3519H43.7035V14.7305Z" fill="#0100FE"/>
<path d="M42.4613 14.7305H41.8398V15.3519H42.4613V14.7305Z" fill="#0100FE"/>
<path d="M41.2162 14.7307H40.5947V15.3521H41.2162V14.7307Z" fill="#0100FE"/>
<path d="M39.973 14.7307H39.3516V15.3521H39.973V14.7307Z" fill="#0100FE"/>
<path d="M38.7298 14.7305H38.1084V15.3519H38.7298V14.7305Z" fill="#0100FE"/>
<path d="M37.4876 14.7305H36.8662V15.3519H37.4876V14.7305Z" fill="#0100FE"/>
<path d="M36.2425 14.7307H35.6211V15.3521H36.2425V14.7307Z" fill="#0100FE"/>
<path d="M34.9994 14.7307H34.3779V15.3521H34.9994V14.7307Z" fill="#0100FE"/>
<path d="M33.7562 14.7305H33.1348V15.3519H33.7562V14.7305Z" fill="#0100FE"/>
<path d="M32.514 14.7305H31.8926V15.3519H32.514V14.7305Z" fill="#0100FE"/>
<path d="M31.2709 14.7307H30.6494V15.3521H31.2709V14.7307Z" fill="#0100FE"/>
<path d="M30.0257 14.7307H29.4043V15.3521H30.0257V14.7307Z" fill="#0100FE"/>
<path d="M28.7826 14.7305H28.1611V15.3519H28.7826V14.7305Z" fill="#0100FE"/>
<path d="M27.5404 14.7307H26.9189V15.3521H27.5404V14.7307Z" fill="#0100FE"/>
<path d="M26.2972 14.7307H25.6758V15.3521H26.2972V14.7307Z" fill="#0100FE"/>
<path d="M25.0541 14.7305H24.4326V15.3519H25.0541V14.7305Z" fill="#0100FE"/>
<path d="M23.8099 14.7305H23.1885V15.3519H23.8099V14.7305Z" fill="#0100FE"/>
<path d="M44.3256 14.1094H43.7041V14.7308H44.3256V14.1094Z" fill="#0100FE"/>
<path d="M41.8373 14.1094H41.2158V14.7308H41.8373V14.1094Z" fill="#0100FE"/>
<path d="M39.3519 14.1094H38.7305V14.7308H39.3519V14.1094Z" fill="#0100FE"/>
<path d="M36.8656 14.1094H36.2441V14.7308H36.8656V14.1094Z" fill="#0100FE"/>
<path d="M34.3783 14.1094H33.7568V14.7308H34.3783V14.1094Z" fill="#0100FE"/>
<path d="M31.8919 14.1094H31.2705V14.7308H31.8919V14.1094Z" fill="#0100FE"/>
<path d="M29.4046 14.1094H28.7832V14.7308H29.4046V14.1094Z" fill="#0100FE"/>
<path d="M26.9183 14.1094H26.2969V14.7308H26.9183V14.1094Z" fill="#0100FE"/>
<path d="M24.433 14.1094H23.8115V14.7308H24.433V14.1094Z" fill="#0100FE"/>
<path d="M43.7035 13.4878H43.082V14.1092H43.7035V13.4878Z" fill="#0100FE"/>
<path d="M42.4613 13.4878H41.8398V14.1092H42.4613V13.4878Z" fill="#0100FE"/>
<path d="M41.2162 13.4878H40.5947V14.1092H41.2162V13.4878Z" fill="#0100FE"/>
<path d="M39.973 13.4878H39.3516V14.1092H39.973V13.4878Z" fill="#0100FE"/>
<path d="M38.7298 13.4878H38.1084V14.1092H38.7298V13.4878Z" fill="#0100FE"/>
<path d="M37.4876 13.4878H36.8662V14.1092H37.4876V13.4878Z" fill="#0100FE"/>
<path d="M36.2425 13.4878H35.6211V14.1092H36.2425V13.4878Z" fill="#0100FE"/>
<path d="M34.9994 13.4878H34.3779V14.1092H34.9994V13.4878Z" fill="#0100FE"/>
<path d="M33.7562 13.4878H33.1348V14.1092H33.7562V13.4878Z" fill="#0100FE"/>
<path d="M32.514 13.4878H31.8926V14.1092H32.514V13.4878Z" fill="#0100FE"/>
<path d="M31.2709 13.4878H30.6494V14.1092H31.2709V13.4878Z" fill="#0100FE"/>
<path d="M30.0257 13.4878H29.4043V14.1092H30.0257V13.4878Z" fill="#0100FE"/>
<path d="M28.7826 13.4878H28.1611V14.1092H28.7826V13.4878Z" fill="#0100FE"/>
<path d="M27.5404 13.4878H26.9189V14.1092H27.5404V13.4878Z" fill="#0100FE"/>
<path d="M26.2972 13.4878H25.6758V14.1092H26.2972V13.4878Z" fill="#0100FE"/>
<path d="M25.0541 13.4878H24.4326V14.1092H25.0541V13.4878Z" fill="#0100FE"/>
<path d="M39.973 12.2429H39.3516V12.8644H39.973V12.2429Z" fill="#0100FE"/>
<path d="M38.7298 12.2432H38.1084V12.8646H38.7298V12.2432Z" fill="#0100FE"/>
<path d="M37.4876 12.2432H36.8662V12.8646H37.4876V12.2432Z" fill="#0100FE"/>
<path d="M36.2425 12.2429H35.6211V12.8644H36.2425V12.2429Z" fill="#0100FE"/>
<path d="M34.9994 12.2429H34.3779V12.8644H34.9994V12.2429Z" fill="#0100FE"/>
<path d="M33.7562 12.2432H33.1348V12.8646H33.7562V12.2432Z" fill="#0100FE"/>
<path d="M32.514 12.2432H31.8926V12.8646H32.514V12.2432Z" fill="#0100FE"/>
<path d="M31.2709 12.2429H30.6494V12.8644H31.2709V12.2429Z" fill="#0100FE"/>
<path d="M30.0257 12.2429H29.4043V12.8644H30.0257V12.2429Z" fill="#0100FE"/>
<path d="M28.7826 12.2432H28.1611V12.8646H28.7826V12.2432Z" fill="#0100FE"/>
<path d="M27.5404 12.2429H26.9189V12.8644H27.5404V12.2429Z" fill="#0100FE"/>
<path d="M26.2972 12.2429H25.6758V12.8644H26.2972V12.2429Z" fill="#0100FE"/>
<path d="M34.9994 11H34.3779V11.6214H34.9994V11Z" fill="#0100FE"/>
<path d="M33.7562 11H33.1348V11.6214H33.7562V11Z" fill="#0100FE"/>
<path d="M32.514 11H31.8926V11.6214H32.514V11Z" fill="#0100FE"/>
<path d="M31.2709 11H30.6494V11.6214H31.2709V11Z" fill="#0100FE"/>
<path d="M30.0257 11H29.4043V11.6214H30.0257V11Z" fill="#0100FE"/>
<path d="M28.7826 11H28.1611V11.6214H28.7826V11Z" fill="#0100FE"/>
<path d="M27.5404 11H26.9189V11.6214H27.5404V11Z" fill="#0100FE"/>
</svg>
