<svg width="72" height="72" viewBox="0 0 72 72" fill="none" xmlns="http://www.w3.org/2000/svg">
<rect width="72" height="72" fill="#A9FF92"/>
<path d="M46.3216 60.4255H45.7471V61.0001H46.3216V60.4255Z" fill="#0100FE"/>
<path d="M45.1722 60.4258H44.5977V61.0003H45.1722V60.4258Z" fill="#0100FE"/>
<path d="M47.471 59.2744H46.8965V59.8489H47.471V59.2744Z" fill="#0100FE"/>
<path d="M46.3216 59.2744H45.7471V59.8489H46.3216V59.2744Z" fill="#0100FE"/>
<path d="M45.1722 59.2744H44.5977V59.8489H45.1722V59.2744Z" fill="#0100FE"/>
<path d="M48.6194 58.1255H48.0449V58.7H48.6194V58.1255Z" fill="#0100FE"/>
<path d="M47.471 58.1255H46.8965V58.7H47.471V58.1255Z" fill="#0100FE"/>
<path d="M46.3216 58.1255H45.7471V58.7H46.3216V58.1255Z" fill="#0100FE"/>
<path d="M45.1722 58.1255H44.5977V58.7H45.1722V58.1255Z" fill="#0100FE"/>
<path d="M48.0452 57.551H47.4707V58.1255H48.0452V57.551Z" fill="#0100FE"/>
<path d="M45.7474 57.551H45.1729V58.1255H45.7474V57.551Z" fill="#0100FE"/>
<path d="M49.7708 56.9766H49.1963V57.5511H49.7708V56.9766Z" fill="#0100FE"/>
<path d="M48.6194 56.9766H48.0449V57.5511H48.6194V56.9766Z" fill="#0100FE"/>
<path d="M47.471 56.9766H46.8965V57.5511H47.471V56.9766Z" fill="#0100FE"/>
<path d="M46.3216 56.9766H45.7471V57.5511H46.3216V56.9766Z" fill="#0100FE"/>
<path d="M45.1722 56.9766H44.5977V57.5511H45.1722V56.9766Z" fill="#0100FE"/>
<path d="M50.9202 55.8271H50.3457V56.4017H50.9202V55.8271Z" fill="#0100FE"/>
<path d="M49.7708 55.8274H49.1963V56.4019H49.7708V55.8274Z" fill="#0100FE"/>
<path d="M48.6194 55.8274H48.0449V56.4019H48.6194V55.8274Z" fill="#0100FE"/>
<path d="M47.471 55.8271H46.8965V56.4017H47.471V55.8271Z" fill="#0100FE"/>
<path d="M46.3216 55.8274H45.7471V56.4019H46.3216V55.8274Z" fill="#0100FE"/>
<path d="M50.9202 54.6787H50.3457V55.2532H50.9202V54.6787Z" fill="#0100FE"/>
<path d="M49.7708 54.6785H49.1963V55.253H49.7708V54.6785Z" fill="#0100FE"/>
<path d="M48.6194 54.6785H48.0449V55.253H48.6194V54.6785Z" fill="#0100FE"/>
<path d="M47.471 54.6787H46.8965V55.2532H47.471V54.6787Z" fill="#0100FE"/>
<path d="M46.3216 54.6785H45.7471V55.253H46.3216V54.6785Z" fill="#0100FE"/>
<path d="M52.0687 53.5273H51.4941V54.1019H52.0687V53.5273Z" fill="#0100FE"/>
<path d="M50.9202 53.5273H50.3457V54.1019H50.9202V53.5273Z" fill="#0100FE"/>
<path d="M49.7708 53.5273H49.1963V54.1019H49.7708V53.5273Z" fill="#0100FE"/>
<path d="M48.6194 53.5273H48.0449V54.1019H48.6194V53.5273Z" fill="#0100FE"/>
<path d="M47.471 53.5273H46.8965V54.1019H47.471V53.5273Z" fill="#0100FE"/>
<path d="M46.3216 53.5273H45.7471V54.1019H46.3216V53.5273Z" fill="#0100FE"/>
<path d="M52.6438 52.9529H52.0693V53.5274H52.6438V52.9529Z" fill="#0100FE"/>
<path d="M50.345 52.9529H49.7705V53.5274H50.345V52.9529Z" fill="#0100FE"/>
<path d="M48.0452 52.9529H47.4707V53.5274H48.0452V52.9529Z" fill="#0100FE"/>
<path d="M45.7474 52.9529H45.1729V53.5274H45.7474V52.9529Z" fill="#0100FE"/>
<path d="M53.2181 52.3784H52.6436V52.9529H53.2181V52.3784Z" fill="#0100FE"/>
<path d="M52.0687 52.3784H51.4941V52.9529H52.0687V52.3784Z" fill="#0100FE"/>
<path d="M50.9202 52.3784H50.3457V52.9529H50.9202V52.3784Z" fill="#0100FE"/>
<path d="M49.7708 52.3784H49.1963V52.9529H49.7708V52.3784Z" fill="#0100FE"/>
<path d="M48.6194 52.3784H48.0449V52.9529H48.6194V52.3784Z" fill="#0100FE"/>
<path d="M47.471 52.3784H46.8965V52.9529H47.471V52.3784Z" fill="#0100FE"/>
<path d="M46.3216 52.3784H45.7471V52.9529H46.3216V52.3784Z" fill="#0100FE"/>
<path d="M53.2181 51.2295H52.6436V51.804H53.2181V51.2295Z" fill="#0100FE"/>
<path d="M52.0687 51.2292H51.4941V51.8038H52.0687V51.2292Z" fill="#0100FE"/>
<path d="M50.9202 51.2295H50.3457V51.804H50.9202V51.2295Z" fill="#0100FE"/>
<path d="M49.7708 51.2292H49.1963V51.8038H49.7708V51.2292Z" fill="#0100FE"/>
<path d="M48.6194 51.2292H48.0449V51.8038H48.6194V51.2292Z" fill="#0100FE"/>
<path d="M47.471 51.2295H46.8965V51.804H47.471V51.2295Z" fill="#0100FE"/>
<path d="M54.3665 50.0803H53.792V50.6548H54.3665V50.0803Z" fill="#0100FE"/>
<path d="M53.2181 50.0801H52.6436V50.6546H53.2181V50.0801Z" fill="#0100FE"/>
<path d="M52.0687 50.0803H51.4941V50.6548H52.0687V50.0803Z" fill="#0100FE"/>
<path d="M50.9202 50.0801H50.3457V50.6546H50.9202V50.0801Z" fill="#0100FE"/>
<path d="M49.7708 50.0803H49.1963V50.6548H49.7708V50.0803Z" fill="#0100FE"/>
<path d="M48.6194 50.0803H48.0449V50.6548H48.6194V50.0803Z" fill="#0100FE"/>
<path d="M47.471 50.0801H46.8965V50.6546H47.471V50.0801Z" fill="#0100FE"/>
<path d="M55.5179 48.9316H54.9434V49.5062H55.5179V48.9316Z" fill="#0100FE"/>
<path d="M54.3665 48.9314H53.792V49.5059H54.3665V48.9314Z" fill="#0100FE"/>
<path d="M53.2181 48.9316H52.6436V49.5062H53.2181V48.9316Z" fill="#0100FE"/>
<path d="M52.0687 48.9314H51.4941V49.5059H52.0687V48.9314Z" fill="#0100FE"/>
<path d="M50.9202 48.9316H50.3457V49.5062H50.9202V48.9316Z" fill="#0100FE"/>
<path d="M49.7708 48.9314H49.1963V49.5059H49.7708V48.9314Z" fill="#0100FE"/>
<path d="M48.6194 48.9314H48.0449V49.5059H48.6194V48.9314Z" fill="#0100FE"/>
<path d="M54.9437 48.3564H54.3691V48.931H54.9437V48.3564Z" fill="#0100FE"/>
<path d="M52.6438 48.3567H52.0693V48.9312H52.6438V48.3567Z" fill="#0100FE"/>
<path d="M50.345 48.3567H49.7705V48.9312H50.345V48.3567Z" fill="#0100FE"/>
<path d="M48.0452 48.3567H47.4707V48.9312H48.0452V48.3567Z" fill="#0100FE"/>
<path d="M55.5179 47.7803H54.9434V48.3548H55.5179V47.7803Z" fill="#0100FE"/>
<path d="M54.3665 47.7803H53.792V48.3548H54.3665V47.7803Z" fill="#0100FE"/>
<path d="M53.2181 47.7803H52.6436V48.3548H53.2181V47.7803Z" fill="#0100FE"/>
<path d="M52.0687 47.7803H51.4941V48.3548H52.0687V47.7803Z" fill="#0100FE"/>
<path d="M50.9202 47.7803H50.3457V48.3548H50.9202V47.7803Z" fill="#0100FE"/>
<path d="M49.7708 47.7803H49.1963V48.3548H49.7708V47.7803Z" fill="#0100FE"/>
<path d="M48.6194 47.7803H48.0449V48.3548H48.6194V47.7803Z" fill="#0100FE"/>
<path d="M38.8509 47.2061H38.2764V47.7806H38.8509V47.2061Z" fill="#0100FE"/>
<path d="M56.6673 46.6313H56.0928V47.2059H56.6673V46.6313Z" fill="#0100FE"/>
<path d="M55.5179 46.6313H54.9434V47.2059H55.5179V46.6313Z" fill="#0100FE"/>
<path d="M54.3665 46.6313H53.792V47.2059H54.3665V46.6313Z" fill="#0100FE"/>
<path d="M53.2181 46.6313H52.6436V47.2059H53.2181V46.6313Z" fill="#0100FE"/>
<path d="M52.0687 46.6313H51.4941V47.2059H52.0687V46.6313Z" fill="#0100FE"/>
<path d="M50.9202 46.6313H50.3457V47.2059H50.9202V46.6313Z" fill="#0100FE"/>
<path d="M49.7708 46.6313H49.1963V47.2059H49.7708V46.6313Z" fill="#0100FE"/>
<path d="M41.1497 46.0566H40.5752V46.6312H41.1497V46.0566Z" fill="#0100FE"/>
<path d="M56.6673 45.4822H56.0928V46.0567H56.6673V45.4822Z" fill="#0100FE"/>
<path d="M55.5179 45.4824H54.9434V46.0569H55.5179V45.4824Z" fill="#0100FE"/>
<path d="M54.3665 45.4822H53.792V46.0567H54.3665V45.4822Z" fill="#0100FE"/>
<path d="M53.2181 45.4824H52.6436V46.0569H53.2181V45.4824Z" fill="#0100FE"/>
<path d="M52.0687 45.4822H51.4941V46.0567H52.0687V45.4822Z" fill="#0100FE"/>
<path d="M50.9202 45.4824H50.3457V46.0569H50.9202V45.4824Z" fill="#0100FE"/>
<path d="M49.7708 45.4822H49.1963V46.0567H49.7708V45.4822Z" fill="#0100FE"/>
<path d="M44.0237 45.4822H43.4492V46.0567H44.0237V45.4822Z" fill="#0100FE"/>
<path d="M42.8733 45.4824H42.2988V46.0569H42.8733V45.4824Z" fill="#0100FE"/>
<path d="M41.7239 45.4822H41.1494V46.0567H41.7239V45.4822Z" fill="#0100FE"/>
<path d="M40.5755 45.4824H40.001V46.0569H40.5755V45.4824Z" fill="#0100FE"/>
<path d="M49.1946 44.9077H48.6201V45.4822H49.1946V44.9077Z" fill="#0100FE"/>
<path d="M48.0454 44.9079H48.6199V44.3334H48.0454V43.7589H47.4709V44.3334H46.8963V44.9079H47.4709V45.4824H46.8963V46.0569H47.4709V46.6314H46.8963V46.0569H46.3218V46.6314H45.7473V46.0569H46.3218V45.4824H45.7473V44.9079H46.3218V44.3334H45.7473V43.7589H45.1728V44.3334H44.5983V44.9079H45.1728V45.4824H44.5983V46.0569H45.1728V46.6314H44.5983V46.0569H44.0237V46.6314H43.4492V46.0569H42.8747V46.6314H42.3002V46.0569H41.7257V46.6314H41.1512V47.206H41.7257V47.7805H41.1512V47.206H40.5767V47.7805H40.0022V47.206H40.5767V46.6314H40.0022V46.0569H39.4276V46.6314H38.8531V47.206H39.4276V47.7805H38.8531V48.355H39.4276V48.9295H38.8531V48.355H38.2786V48.9295H37.7041V48.355H38.2786V47.7805H37.7041V47.206H38.2786V46.6314H37.7041V46.0569H37.1296V46.6314H36.5551V46.0569H37.1296V45.4824H36.5551V44.9079H37.1296V45.4824H37.7041V44.9079H38.2786V45.4824H37.7041V46.0569H38.2786V46.6314H38.8531V46.0569H39.4276V45.4824H38.8531V44.9079H39.4276V44.3334H38.8531V43.7589H39.4276V44.3334H40.0022V43.7589H40.5767V43.1844H40.0022V42.6098H40.5767V43.1844H41.1512V42.6098H41.7257V43.1844H42.3002V42.6098H42.8747V42.0353H42.3002V41.4608H42.8747V40.8863H42.3002V40.3118H42.8747V40.8863H43.4492V40.3118H44.0237V39.7373H43.4492V39.1628H42.8747V39.7373H42.3002V39.1628H42.8747V38.5882H42.3002V38.0137H42.8747V37.4392H42.3002V36.8647H41.7257V37.4392H41.1512V38.0137H41.7257V38.5882H41.1512V39.1628H41.7257V39.7373H41.1512V39.1628H40.5767V39.7373H40.0022V39.1628H40.5767V38.5882H40.0022V38.0137H40.5767V37.4392H40.0022V36.8647H39.4276V37.4392H38.8531V36.8647H39.4276V36.2902H38.8531V35.7157H39.4276V35.1412H38.8531V34.5666H38.2786V35.1412H37.7041V35.7157H38.2786V36.2902H37.7041V36.8647H38.2786V37.4392H37.7041V36.8647H37.1296V37.4392H36.5551V36.8647H37.1296V36.2902H36.5551V35.7157H37.1296V35.1412H36.5551V34.5666H35.9806V35.1412H35.4061V34.5666H35.9806V33.9921H35.4061V33.4176H34.8315V33.9921H34.257V34.5666H34.8315V35.1412H34.257V34.5666H33.6825V35.1412H33.108V34.5666H33.6825V33.9921H33.108V33.4176H33.6825V32.8431H33.108V32.2686H32.5335V32.8431H31.959V33.4176H32.5335V33.9921H31.959V34.5666H32.5335V35.1412H31.959V34.5666H31.3845V35.1412H30.81V34.5666H31.3845V33.9921H30.81V33.4176H31.3845V32.8431H30.81V32.2686H30.2355V32.8431H29.6609V33.4176H30.2355V33.9921H29.6609V34.5666H30.2355V35.1412H29.6609V34.5666H29.0864V35.1412H28.5119V34.5666H29.0864V33.9921H28.5119V33.4176H29.0864V32.8431H28.5119V32.2686H27.9374V32.8431H27.3628V33.4176H27.9374V33.9921H27.3628V34.5666H27.9374V35.1412H27.3628V34.5666H26.7883V35.1412H26.2138V34.5666H26.7883V33.9921H26.2138V33.4176H26.7883V32.8431H26.2138V32.2686H25.6393V32.8431H25.0648V33.4176H25.6393V33.9921H25.0648V34.5666H25.6393V35.1412H25.0648V34.5666H24.4903V35.1412H23.9158V34.5666H24.4903V33.9921H23.9158V33.4176H24.4903V32.8431H23.9158V32.2686H23.3413V32.8431H22.7667V32.2686H23.3413V31.6941H22.7667V31.1196H23.3413V31.6941H23.9158V31.1196H24.4903V31.6941H25.0648V31.1196H25.6393V30.5451H25.0648V29.9705H25.6393V30.5451H26.2138V29.9705H26.7883V29.396H26.2138V28.8215H26.7883V29.396H27.3628V28.8215H27.9374V29.396H28.5119V28.8215H29.0864V28.247H28.5119V27.6725H27.9374V28.247H27.3628V27.6725H27.9374V27.098H27.3628V26.5235H27.9374V25.9489H27.3628V25.3744H26.7883V25.9489H26.2138V25.3744H26.7883V24.7999H26.2138V24.2254H25.6393V24.7999H25.0648V25.3744H25.6393V25.9489H25.0648V25.3744H24.4903V25.9489H23.9158V25.3744H24.4903V24.7999H23.9158V24.2254H24.4903V23.6509H23.9158V23.0764H23.3413V23.6509H22.7667V24.2254H23.3413V24.7999H22.7667V24.2254H22.1922V24.7999H21.6177V24.2254H22.1922V23.6509H21.6177V23.0764H21.0432V23.6509H20.4687V23.0764H21.0432V22.5019H20.4687V21.9273H21.0432V21.3528H20.4687V20.7783H19.8942V21.3528H19.3197V21.9273H19.8942V22.5019H19.3197V23.0764H19.8942V23.6509H19.3197V23.0764H18.7452V23.6509H18.1707V23.0764H17.5961V23.6509H16.4471V24.7999H15.8726V25.3744H16.4471V25.9489H15.8726V26.5235H16.4471V27.098H15.8726V26.5235H15.298V28.247H14.7235V28.8215H15.298V29.396H14.149V30.5451H13.5745V31.1196H14.149V31.6941H13.5745V32.2686H14.149V32.8431H13.5745V33.4176H14.149V33.9921H13.5745V33.4176H13V38.5902H13.5745V38.0157H14.149V38.5902H13.5745V39.1647H14.149V39.7392H14.7235V39.1647H15.298V39.7392H15.8726V39.1647H16.4471V39.7392H17.0216V39.1647H17.5961V39.7392H18.1707V39.1647H19.8942V38.5902H19.3197V38.0157H19.8942V38.5902H20.4687V38.0157H21.0432V38.5902H21.6177V38.0157H22.1922V38.5902H22.7667V38.0157H23.3413V38.5902H23.9158V38.0157H24.4903V38.5902H23.9158V39.1647H25.6393V39.7392H26.2138V39.1647H26.7883V39.7392H26.2138V40.3137H26.7883V40.8882H27.3628V40.3137H27.9374V40.8882H27.3628V41.4627H27.9374V43.1863H28.5119V42.6118H29.0864V43.1863H28.5119V43.7608H29.0864V44.3353H28.5119V44.9098H29.0864V45.4843H28.5119V46.0589H29.0864V46.6334H28.5119V47.2079H29.0864V47.7824H28.5119V48.3569H29.0864V48.9314H28.5119V49.5059H29.0864V50.0804H28.5119V50.655H29.0864V51.804H32.5354V51.2295H31.9609V50.655H32.5354V51.2295H33.1099V50.655H33.6844V51.2295H34.259V50.655H40.5805V51.2295H41.155V50.655H41.7295V51.2295H41.155V51.804H41.7295V52.3785H42.304V51.804H42.8786V52.3785H42.304V52.953H42.8786V54.102H44.0276V54.6766H43.4531V55.2511H44.0276V55.8256H43.4531V56.4001H44.0276V56.9746H44.6021V56.4001H45.1766V55.8256H44.6021V55.2511H45.1766V54.6766H44.6021V54.102H45.1766V53.5275H44.6021V52.953H45.1766V52.3785H44.6021V51.804H45.1766V52.3785H45.7512V51.804H46.3257V51.2295H45.7512V50.655H46.3257V50.0804H45.7512V49.5059H46.3257V50.0804H46.9002V49.5059H47.4747V48.9314H46.9002V48.3569H47.4747V47.7824H46.9002V47.2079H47.4747V47.7824H48.0492V47.2079H48.6237V46.6334H48.0492V46.0589H48.6237V45.4843H48.0492V44.9098L48.0454 44.9079ZM45.1728 47.206V47.7805H44.5983V47.206H45.1728ZM45.1728 48.9314H44.5983V48.3569H45.1728V48.9314ZM44.0237 50.0804H43.4492V49.5059H44.0237V50.0804ZM44.0237 51.2295H43.4492V50.655H44.0237V51.2295ZM42.2983 49.5059H42.8728V50.0804H42.2983V49.5059ZM42.2983 48.3569H42.8728V48.9314H42.2983V48.3569ZM43.4492 48.9314V48.3569H44.0237V48.9314H43.4492ZM44.0237 47.206V47.7805H43.4492V47.206H44.0237ZM42.2983 47.206H42.8728V47.7805H42.2983V47.206ZM41.7238 48.3569V48.9314H41.1493V48.3569H41.7238ZM40.0002 48.3569H40.5747V48.9314H40.0002V48.3569ZM37.1257 47.206V47.7805H36.5512V48.355H37.1257V48.9295H36.5512V48.355H35.9767V48.9295H35.4022V48.355H35.9767V47.7805H35.4022V47.206H35.9767V47.7805H36.5512V47.206H37.1257ZM31.3806 50.0804H30.8061V49.5059H31.3806V50.0804ZM30.8042 48.9314V48.3569H31.3787V48.9314H30.8042ZM30.8042 47.206H31.3787V47.7805H30.8042V47.206ZM30.8042 46.0569H31.3787V46.6314H30.8042V46.0569ZM30.8042 44.9079H31.3787V45.4824H30.8042V44.9079ZM30.8042 43.7589H31.3787V44.3334H30.8042V43.7589ZM29.6552 41.4589H30.2297V42.0334H29.6552V41.4589ZM25.0571 36.8628H25.6316V37.4373H25.0571V36.8628ZM26.2081 36.8628H26.7826V37.4373H26.2081V36.8628ZM38.2767 40.8844H37.7022V41.4589H38.2767V42.0334H37.7022V41.4589H37.1277V42.0334H36.5532V41.4589H37.1277V40.8844H36.5532V40.3099H37.1277V40.8844H37.7022V40.3099H38.2767V40.8844ZM38.2767 43.1844H37.7022V42.6098H38.2767V43.1844ZM35.9767 44.3334H35.4022V43.7589H35.9767V44.3334ZM34.8277 45.4824H34.2532V44.9079H34.8277V45.4824ZM34.8277 46.6314H34.2532V46.0569H34.8277V46.6314ZM34.8277 47.7805H34.2532V47.206H34.8277V47.7805ZM31.9551 47.206H32.5297V47.7805H31.9551V47.206ZM31.9551 46.0569H32.5297V46.6314H31.9551V46.0569ZM31.9551 44.9079H32.5297V45.4824H31.9551V44.9079ZM31.9551 43.7589H32.5297V44.3334H31.9551V43.7589ZM30.8042 41.4589H31.3787V42.0334H30.8042V41.4589ZM28.5061 38.0118H29.0807V38.5863H28.5061V38.0118ZM35.9767 39.7354H35.4022V39.1608H35.9767V39.7354ZM35.9767 40.8844H35.4022V41.4589H35.9767V42.0334H35.4022V41.4589H34.8277V42.0334H34.2532V41.4589H34.8277V40.8844H34.2532V40.3099H34.8277V40.8844H35.4022V40.3099H35.9767V40.8844ZM34.8277 43.1844H34.2532V42.6098H34.8277V43.1844ZM33.6787 44.3334H33.1042V43.7589H33.6787V44.3334ZM33.6787 45.4824H33.1042V44.9079H33.6787V45.4824ZM33.6787 46.6314H33.1042V46.0569H33.6787V46.6314ZM33.1042 43.1844V42.6098H33.6787V43.1844H33.1042ZM31.9551 41.4589H32.5297V40.8844H31.9551V40.3099H32.5297V40.8844H33.1042V40.3099H33.6787V40.8844H33.1042V41.4589H33.6787V42.0334H33.1042V41.4589H32.5297V42.0334H31.9551V41.4589ZM30.8042 39.1608H31.3787V39.7354H30.8042V39.1608ZM34.8277 39.7354H34.2532V39.1608H34.8277V39.7354ZM33.6787 39.7354H33.1042V39.1608H33.6787V39.7354ZM32.5297 39.7354H31.9551V39.1608H32.5297V39.7354ZM34.8277 38.5863H34.2532V38.0118H34.8277V38.5863ZM33.6787 38.5863H33.1042V38.0118H33.6787V38.5863ZM32.5297 38.5863H31.9551V38.0118H32.5297V38.5863ZM31.3806 38.5863H30.8061V38.0118H31.3806V38.5863ZM30.2297 38.5863H29.6552V38.0118H30.2297V38.5863ZM29.6552 39.1608H30.2297V39.7354H29.6552V39.1608ZM30.8042 40.3099H31.3787V40.8844H30.8042V40.3099ZM31.9551 42.6098H32.5297V43.1844H31.9551V42.6098ZM33.1042 47.206H33.6787V47.7805H33.1042V47.206ZM34.2532 44.3334V43.7589H34.8277V44.3334H34.2532ZM35.4022 43.1844V42.6098H35.9767V43.1844H35.4022ZM36.5512 42.6098H37.1257V43.1844H36.5512V42.6098ZM37.1257 39.7354H36.5512V39.1608H37.1257V39.7354ZM35.9767 38.5863H35.4022V38.0118H35.9767V38.5863ZM34.8277 37.4373H34.2532V36.8628H34.8277V37.4373ZM33.6787 37.4373H33.1042V36.8628H33.6787V37.4373ZM32.5297 37.4373H31.9551V36.8628H32.5297V37.4373ZM31.3806 37.4373H30.8061V36.8628H31.3806V37.4373ZM30.2297 37.4373H29.6552V36.8628H30.2297V37.4373ZM29.0807 37.4373H28.5061V36.8628H29.0807V37.4373ZM27.9316 37.4373H27.3571V36.8628H27.9316V37.4373ZM27.3571 38.0118H27.9316V38.5863H27.3571V38.0118ZM28.5061 39.1608H29.0807V39.7354H28.5061V39.1608ZM29.6552 40.3099H30.2297V40.8844H29.6552V40.3099ZM30.8042 42.6098H31.3787V43.1844H30.8042V42.6098ZM31.9551 48.3569H32.5297V48.9314H31.9551V48.3569ZM33.1042 48.3569H33.6787V48.9314H33.1042V48.3569ZM34.2532 48.3569H34.8277V48.9314H34.2532V48.3569ZM35.9767 46.6314H35.4022V46.0569H35.9767V46.6314ZM35.9767 45.4824H35.4022V44.9079H35.9767V45.4824ZM36.5512 44.3334V43.7589H37.1257V44.3334H36.5512ZM38.2767 44.3334H37.7022V43.7589H38.2767V44.3334ZM39.4257 43.1844H38.8512V42.6098H39.4257V43.1844ZM41.7238 42.0334H41.1493V41.4589H41.7238V42.0334ZM41.7238 40.3099V40.8844H41.1493V40.3099H41.7238ZM40.5747 40.3099V40.8844H40.0002V41.4589H40.5747V42.0334H40.0002V41.4589H39.4257V42.0334H38.8512V41.4589H39.4257V40.8844H38.8512V40.3099H39.4257V40.8844H40.0002V40.3099H40.5747ZM38.2767 38.0118V38.5863H38.8512V38.0118H39.4257V38.5863H38.8512V39.1608H39.4257V39.7354H38.8512V39.1608H38.2767V39.7354H37.7022V39.1608H38.2767V38.5863H37.7022V38.0118H38.2767ZM37.1257 38.0118V38.5863H36.5512V38.0118H37.1257ZM35.9767 37.4373H35.4022V36.8628H35.9767V37.4373ZM35.9767 35.7118V36.2863H35.4022V35.7118H35.9767ZM34.8277 35.7118V36.2863H34.2532V35.7118H34.8277ZM33.6787 35.7118V36.2863H33.1042V35.7118H33.6787ZM32.5297 35.7118V36.2863H31.9551V35.7118H32.5297ZM31.3806 35.7118V36.2863H30.8061V35.7118H31.3806ZM30.2297 35.7118V36.2863H29.6552V35.7118H30.2297ZM29.0807 35.7118V36.2863H28.5061V35.7118H29.0807ZM27.9316 35.7118V36.2863H27.3571V35.7118H27.9316ZM26.7826 35.7118V36.2863H26.2081V35.7118H26.7826ZM25.6316 35.7118V36.2863H25.0571V35.7118H25.6316ZM24.4826 35.7118V36.2863H23.9081V35.7118H24.4826ZM22.7591 35.7118H23.3336V36.2863H22.7591V35.7118ZM23.3336 33.4138V33.9883H22.7591V34.5628H23.3336V35.1373H22.7591V34.5628H22.1845V35.1373H21.61V34.5628H22.1845V33.9883H21.61V33.4138H22.1845V33.9883H22.7591V33.4138H23.3336ZM19.8846 36.2863H19.3101V35.7118H19.8846V36.2863ZM18.7355 37.4373H18.161V36.8628H18.7355V37.4373ZM14.714 36.8628H15.2885V37.4373H14.714V36.8628ZM14.714 35.7118H15.2885V36.2863H14.714V35.7118ZM14.714 34.5628H15.2885V35.1373H14.714V34.5628ZM15.863 33.4138H16.4375V33.9883H15.863V33.4138ZM15.863 32.2648H16.4375V32.8393H15.863V32.2648ZM15.863 31.1138H16.4375V31.6883H15.863V31.1138ZM15.863 29.9648H16.4375V30.5393H15.863V29.9648ZM17.012 28.8157H17.5865V29.3903H17.012V28.8157ZM17.012 27.6667H17.5865V28.2412H17.012V27.6667ZM18.161 26.5177H18.7355V27.0922H18.161V26.5177ZM18.161 25.3687H18.7355V25.9432H18.161V25.3687ZM22.1845 27.0922H21.61V26.5177H22.1845V27.0922ZM24.4826 29.3903H23.9081V28.8157H24.4826V29.3903ZM23.3336 29.3903H22.7591V28.8157H23.3336V29.3903ZM22.1845 30.5393H21.61V29.9648H22.1845V30.5393ZM21.0355 31.6902H20.461V31.1157H21.0355V31.6902ZM21.0355 32.8393H20.461V32.2648H21.0355V32.8393ZM21.0355 33.9883H20.461V33.4138H21.0355V33.9883ZM18.7355 35.1373H18.161V34.5628H18.7355V35.1373ZM17.5865 36.2863H17.012V35.7118H17.5865V36.2863ZM15.863 35.7118H16.4375V36.2863H15.863V35.7118ZM17.012 35.1373V34.5628H17.5865V35.1373H17.012ZM17.012 33.4138H17.5865V33.9883H17.012V33.4138ZM17.012 32.2648H17.5865V32.8393H17.012V32.2648ZM17.012 31.1138H17.5865V31.6883H17.012V31.1138ZM18.161 29.9648H18.7355V30.5393H18.161V29.9648ZM18.161 28.8157H18.7355V29.3903H18.161V28.8157ZM19.3101 27.6667H19.8846V28.2412H19.3101V27.6667ZM19.3101 26.5177H19.8846V27.0922H19.3101V26.5177ZM21.0355 27.0922H20.461V26.5177H21.0355V27.0922ZM21.0355 28.2412H20.461V27.6667H21.0355V28.2412ZM21.0355 29.3903H20.461V28.8157H21.0355V29.3903ZM19.8846 28.8157V29.3903H19.3101V28.8157H19.8846ZM19.8846 30.5393H19.3101V29.9648H19.8846V30.5393ZM19.8846 31.6902H19.3101V31.1157H19.8846V31.6902ZM19.8846 32.8393H19.3101V32.2648H19.8846V32.8393ZM18.161 32.2648H18.7355V32.8393H18.161V32.2648ZM18.7355 31.1138V31.6883H18.161V31.1138H18.7355ZM18.161 33.9883V33.4138H18.7355V33.9883H18.161ZM19.3101 33.4138H19.8846V33.9883H19.3101V33.4138ZM20.461 30.5393V29.9648H21.0355V30.5393H20.461ZM21.61 29.3903V28.8157H22.1845V29.3903H21.61ZM22.1845 28.2412H21.61V27.6667H22.1845V28.2412ZM21.0355 25.9432H20.461V25.3687H21.0355V25.9432ZM19.8846 25.9432H19.3101V25.3687H19.8846V25.9432ZM18.7355 27.6667V28.2412H18.161V27.6667H18.7355ZM17.5865 29.9648V30.5393H17.012V29.9648H17.5865ZM16.4375 34.5628V35.1373H15.863V34.5628H16.4375ZM15.863 36.8628H16.4375V37.4373H15.863V36.8628ZM17.012 36.8628H17.5865V37.4373H17.012V36.8628ZM18.161 36.2863V35.7118H18.7355V36.2863H18.161ZM19.3101 35.1373V34.5628H19.8846V35.1373H19.3101ZM20.461 34.5628H21.0355V35.1373H20.461V34.5628ZM22.1845 32.8393H21.61V32.2648H22.1845V32.8393ZM22.1845 31.6902H21.61V31.1157H22.1845V31.6902ZM22.7591 30.5393V29.9648H23.3336V30.5393H22.7591ZM24.4826 30.5393H23.9081V29.9648H24.4826V30.5393ZM25.6316 29.3903H25.0571V28.8157H25.6316V29.3903ZM25.6316 26.5177V27.0922H26.2061V26.5177H26.7806V27.0922H26.2061V27.6667H26.7806V28.2412H26.2061V27.6667H25.6316V28.2412H25.0571V27.6667H25.6316V27.0922H25.0571V26.5177H25.6316ZM24.4826 26.5177V27.0922H23.9081V27.6667H24.4826V28.2412H23.9081V27.6667H23.3336V28.2412H22.7591V27.6667H23.3336V27.0922H22.7591V26.5177H23.3336V27.0922H23.9081V26.5177H24.4826ZM23.3336 25.3687V25.9432H22.7591V25.3687H23.3336ZM22.1845 25.3687V25.9432H21.61V25.3687H22.1845ZM21.0355 24.2177V24.7922H20.461V24.2177H21.0355ZM19.8846 24.2177V24.7922H19.3101V24.2177H19.8846ZM18.7355 24.2177V24.7922H18.161V24.2177H18.7355ZM17.012 24.2177H17.5865V24.7922H17.012V24.2177ZM17.012 25.3687H17.5865V25.9432H17.012V25.3687ZM17.012 26.5177H17.5865V27.0922H17.012V26.5177ZM15.863 27.6667H16.4375V28.2412H15.863V27.6667ZM15.863 28.8157H16.4375V29.3903H15.863V28.8157ZM14.714 29.9648H15.2885V30.5393H14.714V29.9648ZM14.714 31.1138H15.2885V31.6883H14.714V31.1138ZM14.714 32.2648H15.2885V32.8393H14.714V32.2648ZM14.714 33.4138H15.2885V33.9883H14.714V33.4138ZM13.563 34.5628H14.1375V35.1373H13.563V34.5628ZM13.563 35.7118H14.1375V36.2863H13.563V35.7118ZM13.563 37.4373V36.8628H14.1375V37.4373H13.563ZM14.714 38.5863V38.0118H15.2885V38.5863H14.714ZM15.863 38.5863V38.0118H16.4375V38.5863H15.863ZM17.012 38.5863V38.0118H17.5865V38.5863H17.012ZM18.7355 38.5863H18.161V38.0118H18.7355V38.5863ZM19.3101 37.4373V36.8628H19.8846V37.4373H19.3101ZM21.61 37.4373V36.8628H21.0355V37.4373H20.461V36.8628H21.0355V36.2883H20.461V35.7138H21.0355V36.2883H21.61V35.7138H22.1845V36.2883H21.61V36.8628H22.1845V37.4373H21.61ZM22.7591 37.4373V36.8628H23.3336V37.4373H22.7591ZM23.9081 37.4373V36.8628H24.4826V37.4373H23.9081ZM25.0571 38.5863V38.0118H25.6316V38.5863H25.0571ZM26.2081 38.5863V38.0118H26.7826V38.5863H26.2081ZM27.3571 39.7354V39.1608H27.9316V39.7354H27.3571ZM28.5061 40.3099H29.0807V40.8844H28.5061V40.3099ZM28.5061 42.0334V41.4589H29.0807V42.0334H28.5061ZM29.6552 42.6098H30.2297V43.1844H29.6552V42.6098ZM29.6552 43.7589H30.2297V44.3334H29.6552V43.7589ZM29.6552 44.9079H30.2297V45.4824H29.6552V44.9079ZM29.6552 46.0569H30.2297V46.6314H29.6552V46.0569ZM29.6552 47.206H30.2297V47.7805H29.6552V47.206ZM29.6552 48.3569H30.2297V48.9314H29.6552V48.3569ZM29.6552 49.5059H30.2297V50.0804H29.6552V49.5059ZM29.6552 51.2295V50.655H30.2297V51.2295H29.6552ZM31.3806 51.2295H30.8061V50.655H31.3806V51.2295ZM31.9551 50.0804V49.5059H32.5297V50.0804H31.9551ZM33.1042 50.0804V49.5059H33.6787V50.0804H33.1042ZM34.2532 50.0804V49.5059H34.8277V50.0804H34.2532ZM35.4022 50.0804V49.5059H35.9767V50.0804H35.4022ZM36.5512 50.0804V49.5059H37.1257V50.0804H36.5512ZM37.7022 50.0804V49.5059H38.2767V50.0804H37.7022ZM38.8512 50.0804V49.5059H39.4257V50.0804H38.8512ZM40.0002 50.0804V49.5059H40.5747V50.0804H40.0002ZM41.1493 50.0804V49.5059H41.7238V50.0804H41.1493ZM42.2983 51.2295V50.655H42.8728V51.2295H42.2983ZM44.0237 53.5275H43.4492V52.953H44.0237V53.5275ZM44.0237 52.3785H43.4492V51.804H44.0237V52.3785ZM45.1728 51.2295H44.5983V50.655H45.1728V51.2295ZM45.1728 50.0804H44.5983V49.5059H45.1728V50.0804ZM46.3218 48.9314H45.7473V48.3569H46.3218V48.9314ZM46.3218 47.7805H45.7473V47.206H46.3218V47.7805Z" fill="#0100FE"/>
<path d="M46.8968 44.9077H46.3223V45.4822H46.8968V44.9077Z" fill="#0100FE"/>
<path d="M44.599 44.9077H44.0244V45.4822H44.599V44.9077Z" fill="#0100FE"/>
<path d="M42.2981 44.9077H41.7236V45.4822H42.2981V44.9077Z" fill="#0100FE"/>
<path d="M40.0003 44.9077H39.4258V45.4822H40.0003V44.9077Z" fill="#0100FE"/>
<path d="M57.8157 44.333H57.2412V44.9075H57.8157V44.333Z" fill="#0100FE"/>
<path d="M56.6673 44.3333H56.0928V44.9078H56.6673V44.3333Z" fill="#0100FE"/>
<path d="M55.5179 44.333H54.9434V44.9075H55.5179V44.333Z" fill="#0100FE"/>
<path d="M54.3665 44.3333H53.792V44.9078H54.3665V44.3333Z" fill="#0100FE"/>
<path d="M53.2181 44.333H52.6436V44.9075H53.2181V44.333Z" fill="#0100FE"/>
<path d="M52.0687 44.3333H51.4941V44.9078H52.0687V44.3333Z" fill="#0100FE"/>
<path d="M50.9202 44.333H50.3457V44.9075H50.9202V44.333Z" fill="#0100FE"/>
<path d="M49.7708 44.3333H49.1963V44.9078H49.7708V44.3333Z" fill="#0100FE"/>
<path d="M40.5755 44.9078V45.4823H41.15V44.9078H41.7245V44.3333H41.15V43.7588H40.5755V44.3333H40.001V44.9078H40.5755Z" fill="#0100FE"/>
<path d="M57.2415 43.7588H56.667V44.3333H57.2415V43.7588Z" fill="#0100FE"/>
<path d="M54.9437 43.7588H54.3691V44.3333H54.9437V43.7588Z" fill="#0100FE"/>
<path d="M52.6438 43.7588H52.0693V44.3333H52.6438V43.7588Z" fill="#0100FE"/>
<path d="M50.345 43.7588H49.7705V44.3333H50.345V43.7588Z" fill="#0100FE"/>
<path d="M49.1946 43.7588H48.6201V44.3333H49.1946V43.7588Z" fill="#0100FE"/>
<path d="M46.8968 43.7588H46.3223V44.3333H46.8968V43.7588Z" fill="#0100FE"/>
<path d="M44.599 43.7588H44.0244V44.3333H44.599V43.7588Z" fill="#0100FE"/>
<path d="M43.4498 43.7588H42.8753V44.3333H42.2988V44.9078H42.8753V45.4823H43.4498V44.9078H44.0243V44.3333H43.4498V43.7588Z" fill="#0100FE"/>
<path d="M42.2981 43.7588H41.7236V44.3333H42.2981V43.7588Z" fill="#0100FE"/>
<path d="M57.8157 43.1846H57.2412V43.7591H57.8157V43.1846Z" fill="#0100FE"/>
<path d="M56.6673 43.1843H56.0928V43.7588H56.6673V43.1843Z" fill="#0100FE"/>
<path d="M55.5179 43.1846H54.9434V43.7591H55.5179V43.1846Z" fill="#0100FE"/>
<path d="M54.3665 43.1843H53.792V43.7588H54.3665V43.1843Z" fill="#0100FE"/>
<path d="M53.2181 43.1846H52.6436V43.7591H53.2181V43.1846Z" fill="#0100FE"/>
<path d="M52.0687 43.1843H51.4941V43.7588H52.0687V43.1843Z" fill="#0100FE"/>
<path d="M50.9202 43.1846H50.3457V43.7591H50.9202V43.1846Z" fill="#0100FE"/>
<path d="M49.7708 43.1843H49.1963V43.7588H49.7708V43.1843Z" fill="#0100FE"/>
<path d="M48.6194 43.1843H48.0449V43.7588H48.6194V43.1843Z" fill="#0100FE"/>
<path d="M47.471 43.1846H46.8965V43.7591H47.471V43.1846Z" fill="#0100FE"/>
<path d="M46.3216 43.1843H45.7471V43.7588H46.3216V43.1843Z" fill="#0100FE"/>
<path d="M45.1722 43.1846H44.5977V43.7591H45.1722V43.1846Z" fill="#0100FE"/>
<path d="M44.0237 43.1843H43.4492V43.7588H44.0237V43.1843Z" fill="#0100FE"/>
<path d="M42.8733 43.1846H42.2988V43.7591H42.8733V43.1846Z" fill="#0100FE"/>
<path d="M41.7239 43.1843H41.1494V43.7588H41.7239V43.1843Z" fill="#0100FE"/>
<path d="M50.345 42.6096H49.7705V43.1841H50.345V42.6096Z" fill="#0100FE"/>
<path d="M49.1946 42.6094H48.6201V43.1839H49.1946V42.6094Z" fill="#0100FE"/>
<path d="M48.0452 42.6096H47.4707V43.1841H48.0452V42.6096Z" fill="#0100FE"/>
<path d="M46.8968 42.6094H46.3223V43.1839H46.8968V42.6094Z" fill="#0100FE"/>
<path d="M45.7474 42.6096H45.1729V43.1841H45.7474V42.6096Z" fill="#0100FE"/>
<path d="M44.599 42.6094H44.0244V43.1839H44.599V42.6094Z" fill="#0100FE"/>
<path d="M43.4485 42.6094H42.874V43.1839H43.4485V42.6094Z" fill="#0100FE"/>
<path d="M57.8157 42.0332H57.2412V42.6077H57.8157V42.0332Z" fill="#0100FE"/>
<path d="M56.6673 42.0334H56.0928V42.608H56.6673V42.0334Z" fill="#0100FE"/>
<path d="M55.5179 42.0332H54.9434V42.6077H55.5179V42.0332Z" fill="#0100FE"/>
<path d="M54.3665 42.0334H53.792V42.608H54.3665V42.0334Z" fill="#0100FE"/>
<path d="M53.2181 42.0332H52.6436V42.6077H53.2181V42.0332Z" fill="#0100FE"/>
<path d="M52.0687 42.0334H51.4941V42.608H52.0687V42.0334Z" fill="#0100FE"/>
<path d="M50.9202 42.0332H50.3457V42.6077H50.9202V42.0332Z" fill="#0100FE"/>
<path d="M49.7708 42.0334H49.1963V42.608H49.7708V42.0334Z" fill="#0100FE"/>
<path d="M48.6194 42.0334H48.0449V42.608H48.6194V42.0334Z" fill="#0100FE"/>
<path d="M47.471 42.0332H46.8965V42.6077H47.471V42.0332Z" fill="#0100FE"/>
<path d="M46.3216 42.0334H45.7471V42.608H46.3216V42.0334Z" fill="#0100FE"/>
<path d="M45.1722 42.0332H44.5977V42.6077H45.1722V42.0332Z" fill="#0100FE"/>
<path d="M44.0237 42.0334H43.4492V42.608H44.0237V42.0334Z" fill="#0100FE"/>
<path d="M51.4944 41.459H50.9199V42.0335H51.4944V41.459Z" fill="#0100FE"/>
<path d="M49.1946 41.459H48.6201V42.0335H49.1946V41.459Z" fill="#0100FE"/>
<path d="M48.0452 41.4587H47.4707V42.0333H48.0452V41.4587Z" fill="#0100FE"/>
<path d="M46.8968 41.459H46.3223V42.0335H46.8968V41.459Z" fill="#0100FE"/>
<path d="M45.7474 41.4587H45.1729V42.0333H45.7474V41.4587Z" fill="#0100FE"/>
<path d="M44.599 41.459H44.0244V42.0335H44.599V41.459Z" fill="#0100FE"/>
<path d="M43.4485 41.459H42.874V42.0335H43.4485V41.459Z" fill="#0100FE"/>
<path d="M58.9651 40.8843H58.3906V41.4588H58.9651V40.8843Z" fill="#0100FE"/>
<path d="M57.8157 40.8843H57.2412V41.4588H57.8157V40.8843Z" fill="#0100FE"/>
<path d="M56.6673 40.8843H56.0928V41.4588H56.6673V40.8843Z" fill="#0100FE"/>
<path d="M55.5179 40.8843H54.9434V41.4588H55.5179V40.8843Z" fill="#0100FE"/>
<path d="M54.3665 40.8843H53.792V41.4588H54.3665V40.8843Z" fill="#0100FE"/>
<path d="M53.2181 40.8843H52.6436V41.4588H53.2181V40.8843Z" fill="#0100FE"/>
<path d="M52.0687 40.8843H51.4941V41.4588H52.0687V40.8843Z" fill="#0100FE"/>
<path d="M50.9202 40.8843H50.3457V41.4588H50.9202V40.8843Z" fill="#0100FE"/>
<path d="M49.7708 40.8843H49.1963V41.4588H49.7708V40.8843Z" fill="#0100FE"/>
<path d="M48.6194 40.8843H48.0449V41.4588H48.6194V40.8843Z" fill="#0100FE"/>
<path d="M47.471 40.8843H46.8965V41.4588H47.471V40.8843Z" fill="#0100FE"/>
<path d="M46.3216 40.8843H45.7471V41.4588H46.3216V40.8843Z" fill="#0100FE"/>
<path d="M45.1722 40.8843H44.5977V41.4588H45.1722V40.8843Z" fill="#0100FE"/>
<path d="M44.0237 40.8843H43.4492V41.4588H44.0237V40.8843Z" fill="#0100FE"/>
<path d="M50.345 40.3098H49.7705V40.8843H50.345V40.3098Z" fill="#0100FE"/>
<path d="M48.0452 40.3098H47.4707V40.8843H48.0452V40.3098Z" fill="#0100FE"/>
<path d="M45.7474 40.3098H45.1729V40.8843H45.7474V40.3098Z" fill="#0100FE"/>
<path d="M44.599 40.3096H44.0244V40.8841H44.599V40.3096Z" fill="#0100FE"/>
<path d="M58.9651 39.7354H58.3906V40.3099H58.9651V39.7354Z" fill="#0100FE"/>
<path d="M57.8157 39.7354H57.2412V40.3099H57.8157V39.7354Z" fill="#0100FE"/>
<path d="M56.6673 39.7354H56.0928V40.3099H56.6673V39.7354Z" fill="#0100FE"/>
<path d="M55.5179 39.7354H54.9434V40.3099H55.5179V39.7354Z" fill="#0100FE"/>
<path d="M54.3665 39.7354H53.792V40.3099H54.3665V39.7354Z" fill="#0100FE"/>
<path d="M53.2181 39.7354H52.6436V40.3099H53.2181V39.7354Z" fill="#0100FE"/>
<path d="M52.0687 39.7354H51.4941V40.3099H52.0687V39.7354Z" fill="#0100FE"/>
<path d="M50.9202 39.7354H50.3457V40.3099H50.9202V39.7354Z" fill="#0100FE"/>
<path d="M49.7708 39.7354H49.1963V40.3099H49.7708V39.7354Z" fill="#0100FE"/>
<path d="M48.6194 39.7354H48.0449V40.3099H48.6194V39.7354Z" fill="#0100FE"/>
<path d="M47.471 39.7354H46.8965V40.3099H47.471V39.7354Z" fill="#0100FE"/>
<path d="M46.3216 39.7354H45.7471V40.3099H46.3216V39.7354Z" fill="#0100FE"/>
<path d="M45.1722 39.7354H44.5977V40.3099H45.1722V39.7354Z" fill="#0100FE"/>
<path d="M15.2884 39.7354H14.7139V40.3099H15.2884V39.7354Z" fill="#0100FE"/>
<path d="M57.2415 39.1606H56.667V39.7352H57.2415V39.1606Z" fill="#0100FE"/>
<path d="M54.9437 39.1606H54.3691V39.7352H54.9437V39.1606Z" fill="#0100FE"/>
<path d="M52.6438 39.1606H52.0693V39.7352H52.6438V39.1606Z" fill="#0100FE"/>
<path d="M50.345 39.1606H49.7705V39.7352H50.345V39.1606Z" fill="#0100FE"/>
<path d="M48.0452 39.1606H47.4707V39.7352H48.0452V39.1606Z" fill="#0100FE"/>
<path d="M46.8968 39.1606H46.3223V39.7352H46.8968V39.1606Z" fill="#0100FE"/>
<path d="M45.7474 39.1606H45.1729V39.7352H45.7474V39.1606Z" fill="#0100FE"/>
<path d="M58.9651 38.5862H58.3906V39.1607H58.9651V38.5862Z" fill="#0100FE"/>
<path d="M57.8157 38.5859H57.2412V39.1604H57.8157V38.5859Z" fill="#0100FE"/>
<path d="M56.6673 38.5862H56.0928V39.1607H56.6673V38.5862Z" fill="#0100FE"/>
<path d="M55.5179 38.5859H54.9434V39.1604H55.5179V38.5859Z" fill="#0100FE"/>
<path d="M54.3665 38.5862H53.792V39.1607H54.3665V38.5862Z" fill="#0100FE"/>
<path d="M53.2181 38.5859H52.6436V39.1604H53.2181V38.5859Z" fill="#0100FE"/>
<path d="M52.0687 38.5862H51.4941V39.1607H52.0687V38.5862Z" fill="#0100FE"/>
<path d="M50.9202 38.5859H50.3457V39.1604H50.9202V38.5859Z" fill="#0100FE"/>
<path d="M49.7708 38.5862H49.1963V39.1607H49.7708V38.5862Z" fill="#0100FE"/>
<path d="M48.6194 38.5862H48.0449V39.1607H48.6194V38.5862Z" fill="#0100FE"/>
<path d="M47.471 38.5859H46.8965V39.1604H47.471V38.5859Z" fill="#0100FE"/>
<path d="M46.3216 38.5862H45.7471V39.1607H46.3216V38.5862Z" fill="#0100FE"/>
<path d="M51.4944 38.0117H50.9199V38.5862H51.4944V38.0117Z" fill="#0100FE"/>
<path d="M49.1946 38.0117H48.6201V38.5862H49.1946V38.0117Z" fill="#0100FE"/>
<path d="M48.0452 38.0117H47.4707V38.5862H48.0452V38.0117Z" fill="#0100FE"/>
<path d="M45.7474 38.0117H45.1729V38.5862H45.7474V38.0117Z" fill="#0100FE"/>
<path d="M43.4485 38.0117H42.874V38.5862H43.4485V38.0117Z" fill="#0100FE"/>
<path d="M41.1497 38.0117H40.5752V38.5862H41.1497V38.0117Z" fill="#0100FE"/>
<path d="M58.9651 37.4373H58.3906V38.0118H58.9651V37.4373Z" fill="#0100FE"/>
<path d="M57.8157 37.4375H57.2412V38.012H57.8157V37.4375Z" fill="#0100FE"/>
<path d="M56.6673 37.4373H56.0928V38.0118H56.6673V37.4373Z" fill="#0100FE"/>
<path d="M55.5179 37.4375H54.9434V38.012H55.5179V37.4375Z" fill="#0100FE"/>
<path d="M54.3665 37.4373H53.792V38.0118H54.3665V37.4373Z" fill="#0100FE"/>
<path d="M53.2181 37.4375H52.6436V38.012H53.2181V37.4375Z" fill="#0100FE"/>
<path d="M52.0687 37.4373H51.4941V38.0118H52.0687V37.4373Z" fill="#0100FE"/>
<path d="M50.9202 37.4375H50.3457V38.012H50.9202V37.4375Z" fill="#0100FE"/>
<path d="M49.7708 37.4373H49.1963V38.0118H49.7708V37.4373Z" fill="#0100FE"/>
<path d="M48.6194 37.4373H48.0449V38.0118H48.6194V37.4373Z" fill="#0100FE"/>
<path d="M45.7471 37.4371V38.0116H46.3216V38.5861H46.8961V38.0116H47.4706V37.4371H46.8961V36.8625H46.3216V37.4371H45.7471Z" fill="#0100FE"/>
<path d="M43.4492 37.4371V38.0116H44.0237V38.5861H43.4492V39.1606H44.0237V39.7351H44.5983V39.1606H45.1728V38.5861H44.5983V38.0116H45.1728V37.4371H44.5983V36.8625H44.0237V37.4371H43.4492Z" fill="#0100FE"/>
<path d="M51.4944 36.8623H50.9199V37.4368H51.4944V36.8623Z" fill="#0100FE"/>
<path d="M49.7708 37.4373H50.3453V36.8628H50.9198V36.2864H50.3453H49.7708H49.1963V36.8628H49.7708V37.4373Z" fill="#0100FE"/>
<path d="M49.1946 36.8623H48.6201V37.4368H49.1946V36.8623Z" fill="#0100FE"/>
<path d="M48.0452 36.8625H47.4707V37.4371H48.0452V36.8625Z" fill="#0100FE"/>
<path d="M45.7474 36.8625H45.1729V37.4371H45.7474V36.8625Z" fill="#0100FE"/>
<path d="M43.4485 36.8623H42.874V37.4368H43.4485V36.8623Z" fill="#0100FE"/>
<path d="M41.1497 36.8623H40.5752V37.4368H41.1497V36.8623Z" fill="#0100FE"/>
<path d="M58.9651 36.2864H58.3906V36.8609H58.9651V36.2864Z" fill="#0100FE"/>
<path d="M57.8157 36.2861H57.2412V36.8606H57.8157V36.2861Z" fill="#0100FE"/>
<path d="M56.6673 36.2864H56.0928V36.8609H56.6673V36.2864Z" fill="#0100FE"/>
<path d="M55.5179 36.2861H54.9434V36.8606H55.5179V36.2861Z" fill="#0100FE"/>
<path d="M54.3665 36.2864H53.792V36.8609H54.3665V36.2864Z" fill="#0100FE"/>
<path d="M53.2181 36.2861H52.6436V36.8606H53.2181V36.2861Z" fill="#0100FE"/>
<path d="M52.0687 36.2864H51.4941V36.8609H52.0687V36.2864Z" fill="#0100FE"/>
<path d="M48.6194 36.2864H48.0449V36.8609H48.6194V36.2864Z" fill="#0100FE"/>
<path d="M47.471 36.2861H46.8965V36.8606H47.471V36.2861Z" fill="#0100FE"/>
<path d="M46.3216 36.2864H45.7471V36.8609H46.3216V36.2864Z" fill="#0100FE"/>
<path d="M45.1722 36.2861H44.5977V36.8606H45.1722V36.2861Z" fill="#0100FE"/>
<path d="M44.0237 36.2864H43.4492V36.8609H44.0237V36.2864Z" fill="#0100FE"/>
<path d="M42.8733 36.2861H42.2988V36.8606H42.8733V36.2861Z" fill="#0100FE"/>
<path d="M41.7239 36.2864H41.1494V36.8609H41.7239V36.2864Z" fill="#0100FE"/>
<path d="M40.5755 36.2861H40.001V36.8606H40.5755V36.2861Z" fill="#0100FE"/>
<path d="M52.6438 35.7119H52.0693V36.2864H52.6438V35.7119Z" fill="#0100FE"/>
<path d="M51.4944 35.7119H50.9199V36.2864H51.4944V35.7119Z" fill="#0100FE"/>
<path d="M48.0452 35.7119H47.4707V36.2864H48.0452V35.7119Z" fill="#0100FE"/>
<path d="M45.7474 35.7119H45.1729V36.2864H45.7474V35.7119Z" fill="#0100FE"/>
<path d="M43.4485 35.7119H42.874V36.2864H43.4485V35.7119Z" fill="#0100FE"/>
<path d="M42.2981 35.7119H41.7236V36.2864H42.2981V35.7119Z" fill="#0100FE"/>
<path d="M41.1497 35.7119H40.5752V36.2864H41.1497V35.7119Z" fill="#0100FE"/>
<path d="M40.0003 35.7119H39.4258V36.2864H40.0003V35.7119Z" fill="#0100FE"/>
<path d="M37.6995 35.7119H37.125V36.2864H37.6995V35.7119Z" fill="#0100FE"/>
<path d="M58.9651 35.1375H58.3906V35.712H58.9651V35.1375Z" fill="#0100FE"/>
<path d="M57.8157 35.1377H57.2412V35.7122H57.8157V35.1377Z" fill="#0100FE"/>
<path d="M56.6673 35.1375H56.0928V35.712H56.6673V35.1375Z" fill="#0100FE"/>
<path d="M55.5179 35.1377H54.9434V35.7122H55.5179V35.1377Z" fill="#0100FE"/>
<path d="M54.3665 35.1375H53.792V35.712H54.3665V35.1375Z" fill="#0100FE"/>
<path d="M53.2181 35.1377H52.6436V35.7122H53.2181V35.1377Z" fill="#0100FE"/>
<path d="M52.0687 35.1375H51.4941V35.712H52.0687V35.1375Z" fill="#0100FE"/>
<path d="M50.9202 35.1377H50.3457V35.7122H50.9202V35.1377Z" fill="#0100FE"/>
<path d="M49.7708 35.1375H49.1963V35.712H49.7708V35.1375Z" fill="#0100FE"/>
<path d="M48.6194 35.1375H48.0449V35.712H48.6194V35.1375Z" fill="#0100FE"/>
<path d="M47.471 35.1377H46.8965V35.7122H47.471V35.1377Z" fill="#0100FE"/>
<path d="M46.3216 35.1375H45.7471V35.712H46.3216V35.1375Z" fill="#0100FE"/>
<path d="M45.1722 35.1377H44.5977V35.7122H45.1722V35.1377Z" fill="#0100FE"/>
<path d="M44.0237 35.1375H43.4492V35.712H44.0237V35.1375Z" fill="#0100FE"/>
<path d="M42.8733 35.1377H42.2988V35.7122H42.8733V35.1377Z" fill="#0100FE"/>
<path d="M41.7239 35.1375H41.1494V35.712H41.7239V35.1375Z" fill="#0100FE"/>
<path d="M40.5755 35.1377H40.001V35.7122H40.5755V35.1377Z" fill="#0100FE"/>
<path d="M57.2415 34.563H56.667V35.1375H57.2415V34.563Z" fill="#0100FE"/>
<path d="M45.7474 34.563H45.1729V35.1375H45.7474V34.563Z" fill="#0100FE"/>
<path d="M43.4485 34.563H42.874V35.1375H43.4485V34.563Z" fill="#0100FE"/>
<path d="M42.2981 34.563H41.7236V35.1375H42.2981V34.563Z" fill="#0100FE"/>
<path d="M41.1497 34.563H40.5752V35.1375H41.1497V34.563Z" fill="#0100FE"/>
<path d="M40.0003 34.563H39.4258V35.1375H40.0003V34.563Z" fill="#0100FE"/>
<path d="M37.6995 34.563H37.125V35.1375H37.6995V34.563Z" fill="#0100FE"/>
<path d="M54.3665 33.9883H53.792V34.5628H54.3665V33.9883Z" fill="#0100FE"/>
<path d="M52.0687 33.9883H51.4941V34.5628H52.0687V33.9883Z" fill="#0100FE"/>
<path d="M49.7708 33.9883H49.1963V34.5628H49.7708V33.9883Z" fill="#0100FE"/>
<path d="M48.6194 33.9883H48.0449V34.5628H48.6194V33.9883Z" fill="#0100FE"/>
<path d="M47.471 33.9883H46.8965V34.5628H47.471V33.9883Z" fill="#0100FE"/>
<path d="M46.3216 33.9883H45.7471V34.5628H46.3216V33.9883Z" fill="#0100FE"/>
<path d="M45.1722 33.9883H44.5977V34.5628H45.1722V33.9883Z" fill="#0100FE"/>
<path d="M44.0237 33.9883H43.4492V34.5628H44.0237V33.9883Z" fill="#0100FE"/>
<path d="M42.8733 33.9883H42.2988V34.5628H42.8733V33.9883Z" fill="#0100FE"/>
<path d="M41.7239 33.9883H41.1494V34.5628H41.7239V33.9883Z" fill="#0100FE"/>
<path d="M40.5755 33.9883H40.001V34.5628H40.5755V33.9883Z" fill="#0100FE"/>
<path d="M39.4251 33.9883H38.8506V34.5628H39.4251V33.9883Z" fill="#0100FE"/>
<path d="M38.2767 33.9883H37.7021V34.5628H38.2767V33.9883Z" fill="#0100FE"/>
<path d="M37.1263 33.9883H36.5518V34.5628H37.1263V33.9883Z" fill="#0100FE"/>
<path d="M40.0003 33.4138H39.4258V33.9883H40.0003V33.4138Z" fill="#0100FE"/>
<path d="M38.8509 33.4141H38.2764V33.9886H38.8509V33.4141Z" fill="#0100FE"/>
<path d="M37.6995 33.4141H37.125V33.9886H37.6995V33.4141Z" fill="#0100FE"/>
<path d="M36.5511 33.4138H35.9766V33.9883H36.5511V33.4138Z" fill="#0100FE"/>
<path d="M34.2532 33.4138H33.6787V33.9883H34.2532V33.4138Z" fill="#0100FE"/>
<path d="M31.9554 33.4138H31.3809V33.9883H31.9554V33.4138Z" fill="#0100FE"/>
<path d="M29.6556 33.4138H29.0811V33.9883H29.6556V33.4138Z" fill="#0100FE"/>
<path d="M27.3567 33.4138H26.7822V33.9883H27.3567V33.4138Z" fill="#0100FE"/>
<path d="M25.0569 33.4141H24.4824V33.9886H25.0569V33.4141Z" fill="#0100FE"/>
<path d="M52.0687 32.8394H51.4941V33.4139H52.0687V32.8394Z" fill="#0100FE"/>
<path d="M49.7708 32.8394H49.1963V33.4139H49.7708V32.8394Z" fill="#0100FE"/>
<path d="M48.6194 32.8394H48.0449V33.4139H48.6194V32.8394Z" fill="#0100FE"/>
<path d="M47.471 32.8394H46.8965V33.4139H47.471V32.8394Z" fill="#0100FE"/>
<path d="M46.3216 32.8394H45.7471V33.4139H46.3216V32.8394Z" fill="#0100FE"/>
<path d="M45.1722 32.8394H44.5977V33.4139H45.1722V32.8394Z" fill="#0100FE"/>
<path d="M44.0237 32.8394H43.4492V33.4139H44.0237V32.8394Z" fill="#0100FE"/>
<path d="M42.8733 32.8394H42.2988V33.4139H42.8733V32.8394Z" fill="#0100FE"/>
<path d="M41.7239 32.8394H41.1494V33.4139H41.7239V32.8394Z" fill="#0100FE"/>
<path d="M40.5755 32.8394H40.001V33.4139H40.5755V32.8394Z" fill="#0100FE"/>
<path d="M39.4251 32.8394H38.8506V33.4139H39.4251V32.8394Z" fill="#0100FE"/>
<path d="M38.2767 32.8394H37.7021V33.4139H38.2767V32.8394Z" fill="#0100FE"/>
<path d="M37.1263 32.8394H36.5518V33.4139H37.1263V32.8394Z" fill="#0100FE"/>
<path d="M35.9769 32.8394H35.4023V33.4139H35.9769V32.8394Z" fill="#0100FE"/>
<path d="M34.8274 32.8394H34.2529V33.4139H34.8274V32.8394Z" fill="#0100FE"/>
<path d="M42.2981 32.2646H41.7236V32.8392H42.2981V32.2646Z" fill="#0100FE"/>
<path d="M40.0003 32.2646H39.4258V32.8392H40.0003V32.2646Z" fill="#0100FE"/>
<path d="M37.6995 32.2646H37.125V32.8392H37.6995V32.2646Z" fill="#0100FE"/>
<path d="M36.5511 32.2646H35.9766V32.8392H36.5511V32.2646Z" fill="#0100FE"/>
<path d="M35.4017 32.2646H34.8271V32.8392H35.4017V32.2646Z" fill="#0100FE"/>
<path d="M34.2532 32.2646H33.6787V32.8392H34.2532V32.2646Z" fill="#0100FE"/>
<path d="M31.9554 32.2646H31.3809V32.8392H31.9554V32.2646Z" fill="#0100FE"/>
<path d="M29.6556 32.2646H29.0811V32.8392H29.6556V32.2646Z" fill="#0100FE"/>
<path d="M27.3567 32.2646H26.7822V32.8392H27.3567V32.2646Z" fill="#0100FE"/>
<path d="M25.0569 32.2646H24.4824V32.8392H25.0569V32.2646Z" fill="#0100FE"/>
<path d="M53.2181 31.6904H52.6436V32.2649H53.2181V31.6904Z" fill="#0100FE"/>
<path d="M50.9202 31.6904H50.3457V32.2649H50.9202V31.6904Z" fill="#0100FE"/>
<path d="M48.6194 31.6902H48.0449V32.2647H48.6194V31.6902Z" fill="#0100FE"/>
<path d="M46.3216 31.6902H45.7471V32.2647H46.3216V31.6902Z" fill="#0100FE"/>
<path d="M44.0237 31.6902H43.4492V32.2647H44.0237V31.6902Z" fill="#0100FE"/>
<path d="M42.8733 31.6904H42.2988V32.2649H42.8733V31.6904Z" fill="#0100FE"/>
<path d="M41.7239 31.6902H41.1494V32.2647H41.7239V31.6902Z" fill="#0100FE"/>
<path d="M40.5755 31.6904H40.001V32.2649H40.5755V31.6904Z" fill="#0100FE"/>
<path d="M39.4251 31.6904H38.8506V32.2649H39.4251V31.6904Z" fill="#0100FE"/>
<path d="M38.2767 31.6902H37.7021V32.2647H38.2767V31.6902Z" fill="#0100FE"/>
<path d="M37.1263 31.6904H36.5518V32.2649H37.1263V31.6904Z" fill="#0100FE"/>
<path d="M35.9769 31.6902H35.4023V32.2647H35.9769V31.6902Z" fill="#0100FE"/>
<path d="M34.8274 31.6904H34.2529V32.2649H34.8274V31.6904Z" fill="#0100FE"/>
<path d="M33.679 31.6902H33.1045V32.2647H33.679V31.6902Z" fill="#0100FE"/>
<path d="M32.5296 31.6904H31.9551V32.2649H32.5296V31.6904Z" fill="#0100FE"/>
<path d="M31.3782 31.6904H30.8037V32.2649H31.3782V31.6904Z" fill="#0100FE"/>
<path d="M30.2298 31.6902H29.6553V32.2647H30.2298V31.6902Z" fill="#0100FE"/>
<path d="M29.0804 31.6904H28.5059V32.2649H29.0804V31.6904Z" fill="#0100FE"/>
<path d="M27.9319 31.6902H27.3574V32.2647H27.9319V31.6902Z" fill="#0100FE"/>
<path d="M26.7825 31.6904H26.208V32.2649H26.7825V31.6904Z" fill="#0100FE"/>
<path d="M25.6312 31.6902H25.0566V32.2647H25.6312V31.6902Z" fill="#0100FE"/>
<path d="M24.4827 31.6904H23.9082V32.2649H24.4827V31.6904Z" fill="#0100FE"/>
<path d="M38.8509 31.1138H38.2764V31.6883H38.8509V31.1138Z" fill="#0100FE"/>
<path d="M36.5511 31.1138H35.9766V31.6883H36.5511V31.1138Z" fill="#0100FE"/>
<path d="M34.2532 31.1138H33.6787V31.6883H34.2532V31.1138Z" fill="#0100FE"/>
<path d="M31.9554 31.1138H31.3809V31.6883H31.9554V31.1138Z" fill="#0100FE"/>
<path d="M30.805 31.1138H30.2305V31.6883H30.805V31.1138Z" fill="#0100FE"/>
<path d="M29.6556 31.1138H29.0811V31.6883H29.6556V31.1138Z" fill="#0100FE"/>
<path d="M28.5062 31.1138H27.9316V31.6883H28.5062V31.1138Z" fill="#0100FE"/>
<path d="M27.3567 31.1138H26.7822V31.6883H27.3567V31.1138Z" fill="#0100FE"/>
<path d="M26.2063 31.1138H25.6318V31.6883H26.2063V31.1138Z" fill="#0100FE"/>
<path d="M53.2181 30.5391H52.6436V31.1136H53.2181V30.5391Z" fill="#0100FE"/>
<path d="M52.0687 30.5393H51.4941V31.1138H52.0687V30.5393Z" fill="#0100FE"/>
<path d="M50.9202 30.5391H50.3457V31.1136H50.9202V30.5391Z" fill="#0100FE"/>
<path d="M48.6194 30.5393H48.0449V31.1138H48.6194V30.5393Z" fill="#0100FE"/>
<path d="M46.3216 30.5393H45.7471V31.1138H46.3216V30.5393Z" fill="#0100FE"/>
<path d="M45.1722 30.5391H44.5977V31.1136H45.1722V30.5391Z" fill="#0100FE"/>
<path d="M44.0237 30.5393H43.4492V31.1138H44.0237V30.5393Z" fill="#0100FE"/>
<path d="M42.8733 30.5391H42.2988V31.1136H42.8733V30.5391Z" fill="#0100FE"/>
<path d="M41.7239 30.5393H41.1494V31.1138H41.7239V30.5393Z" fill="#0100FE"/>
<path d="M40.5755 30.5391H40.001V31.1136H40.5755V30.5391Z" fill="#0100FE"/>
<path d="M39.4251 30.5391H38.8506V31.1136H39.4251V30.5391Z" fill="#0100FE"/>
<path d="M38.2767 30.5393H37.7021V31.1138H38.2767V30.5393Z" fill="#0100FE"/>
<path d="M37.1263 30.5391H36.5518V31.1136H37.1263V30.5391Z" fill="#0100FE"/>
<path d="M35.9769 30.5393H35.4023V31.1138H35.9769V30.5393Z" fill="#0100FE"/>
<path d="M34.8274 30.5391H34.2529V31.1136H34.8274V30.5391Z" fill="#0100FE"/>
<path d="M33.679 30.5393H33.1045V31.1138H33.679V30.5393Z" fill="#0100FE"/>
<path d="M32.5296 30.5391H31.9551V31.1136H32.5296V30.5391Z" fill="#0100FE"/>
<path d="M31.3782 30.5391H30.8037V31.1136H31.3782V30.5391Z" fill="#0100FE"/>
<path d="M30.2298 30.5393H29.6553V31.1138H30.2298V30.5393Z" fill="#0100FE"/>
<path d="M29.0804 30.5391H28.5059V31.1136H29.0804V30.5391Z" fill="#0100FE"/>
<path d="M27.9319 30.5393H27.3574V31.1138H27.9319V30.5393Z" fill="#0100FE"/>
<path d="M26.7825 30.5391H26.208V31.1136H26.7825V30.5391Z" fill="#0100FE"/>
<path d="M41.1497 29.9648H40.5752V30.5394H41.1497V29.9648Z" fill="#0100FE"/>
<path d="M38.8509 29.9648H38.2764V30.5394H38.8509V29.9648Z" fill="#0100FE"/>
<path d="M36.5511 29.9648H35.9766V30.5394H36.5511V29.9648Z" fill="#0100FE"/>
<path d="M35.4017 29.9648H34.8271V30.5394H35.4017V29.9648Z" fill="#0100FE"/>
<path d="M34.2532 29.9648H33.6787V30.5394H34.2532V29.9648Z" fill="#0100FE"/>
<path d="M33.1038 29.9648H32.5293V30.5394H33.1038V29.9648Z" fill="#0100FE"/>
<path d="M31.9554 29.9648H31.3809V30.5394H31.9554V29.9648Z" fill="#0100FE"/>
<path d="M30.805 29.9648H30.2305V30.5394H30.805V29.9648Z" fill="#0100FE"/>
<path d="M29.6556 29.9648H29.0811V30.5394H29.6556V29.9648Z" fill="#0100FE"/>
<path d="M28.5062 29.9648H27.9316V30.5394H28.5062V29.9648Z" fill="#0100FE"/>
<path d="M27.3567 29.9648H26.7822V30.5394H27.3567V29.9648Z" fill="#0100FE"/>
<path d="M52.0687 29.3904H51.4941V29.9649H52.0687V29.3904Z" fill="#0100FE"/>
<path d="M49.7708 29.3904H49.1963V29.9649H49.7708V29.3904Z" fill="#0100FE"/>
<path d="M45.1722 29.3906H44.5977V29.9651H45.1722V29.3906Z" fill="#0100FE"/>
<path d="M42.8733 29.3906H42.2988V29.9651H42.8733V29.3906Z" fill="#0100FE"/>
<path d="M41.7239 29.3904H41.1494V29.9649H41.7239V29.3904Z" fill="#0100FE"/>
<path d="M40.5755 29.3906H40.001V29.9651H40.5755V29.3906Z" fill="#0100FE"/>
<path d="M39.4251 29.3906H38.8506V29.9651H39.4251V29.3906Z" fill="#0100FE"/>
<path d="M38.2767 29.3904H37.7021V29.9649H38.2767V29.3904Z" fill="#0100FE"/>
<path d="M37.1263 29.3906H36.5518V29.9651H37.1263V29.3906Z" fill="#0100FE"/>
<path d="M35.9769 29.3904H35.4023V29.9649H35.9769V29.3904Z" fill="#0100FE"/>
<path d="M34.8274 29.3906H34.2529V29.9651H34.8274V29.3906Z" fill="#0100FE"/>
<path d="M33.679 29.3904H33.1045V29.9649H33.679V29.3904Z" fill="#0100FE"/>
<path d="M32.5296 29.3906H31.9551V29.9651H32.5296V29.3906Z" fill="#0100FE"/>
<path d="M31.3782 29.3906H30.8037V29.9651H31.3782V29.3906Z" fill="#0100FE"/>
<path d="M30.2298 29.3904H29.6553V29.9649H30.2298V29.3904Z" fill="#0100FE"/>
<path d="M29.0804 29.3906H28.5059V29.9651H29.0804V29.3906Z" fill="#0100FE"/>
<path d="M27.9319 29.3904H27.3574V29.9649H27.9319V29.3904Z" fill="#0100FE"/>
<path d="M37.6995 28.8154H37.125V29.3899H37.6995V28.8154Z" fill="#0100FE"/>
<path d="M35.4017 28.8154H34.8271V29.3899H35.4017V28.8154Z" fill="#0100FE"/>
<path d="M33.1038 28.8154H32.5293V29.3899H33.1038V28.8154Z" fill="#0100FE"/>
<path d="M30.805 28.8154H30.2305V29.3899H30.805V28.8154Z" fill="#0100FE"/>
<path d="M29.6556 28.8157H29.0811V29.3902H29.6556V28.8157Z" fill="#0100FE"/>
<path d="M52.0687 28.2412H51.4941V28.8157H52.0687V28.2412Z" fill="#0100FE"/>
<path d="M49.7708 28.2412H49.1963V28.8157H49.7708V28.2412Z" fill="#0100FE"/>
<path d="M47.471 28.2412H46.8965V28.8157H47.471V28.2412Z" fill="#0100FE"/>
<path d="M45.1722 28.2412H44.5977V28.8157H45.1722V28.2412Z" fill="#0100FE"/>
<path d="M44.0237 28.2412H43.4492V28.8157H44.0237V28.2412Z" fill="#0100FE"/>
<path d="M42.8733 28.2412H42.2988V28.8157H42.8733V28.2412Z" fill="#0100FE"/>
<path d="M41.7239 28.2412H41.1494V28.8157H41.7239V28.2412Z" fill="#0100FE"/>
<path d="M40.5755 28.2412H40.001V28.8157H40.5755V28.2412Z" fill="#0100FE"/>
<path d="M39.4251 28.2412H38.8506V28.8157H39.4251V28.2412Z" fill="#0100FE"/>
<path d="M38.2767 28.2412H37.7021V28.8157H38.2767V28.2412Z" fill="#0100FE"/>
<path d="M37.1263 28.2412H36.5518V28.8157H37.1263V28.2412Z" fill="#0100FE"/>
<path d="M35.9769 28.2412H35.4023V28.8157H35.9769V28.2412Z" fill="#0100FE"/>
<path d="M34.8274 28.2412H34.2529V28.8157H34.8274V28.2412Z" fill="#0100FE"/>
<path d="M33.679 28.2412H33.1045V28.8157H33.679V28.2412Z" fill="#0100FE"/>
<path d="M32.5296 28.2412H31.9551V28.8157H32.5296V28.2412Z" fill="#0100FE"/>
<path d="M31.3782 28.2412H30.8037V28.8157H31.3782V28.2412Z" fill="#0100FE"/>
<path d="M30.2298 28.2412H29.6553V28.8157H30.2298V28.2412Z" fill="#0100FE"/>
<path d="M40.0003 27.6667H39.4258V28.2413H40.0003V27.6667Z" fill="#0100FE"/>
<path d="M37.6995 27.667H37.125V28.2415H37.6995V27.667Z" fill="#0100FE"/>
<path d="M35.4017 27.667H34.8271V28.2415H35.4017V27.667Z" fill="#0100FE"/>
<path d="M33.1038 27.667H32.5293V28.2415H33.1038V27.667Z" fill="#0100FE"/>
<path d="M30.805 27.667H30.2305V28.2415H30.805V27.667Z" fill="#0100FE"/>
<path d="M29.6549 27.6667H30.2294V27.0922H29.6549V26.5177H30.2294V27.0922H30.8039V26.5177H31.3803V27.0922H31.9549V26.5177H32.5294V25.9432H31.9549V25.3687H31.3803V25.9432H30.8039V25.3687H30.2294V25.9432H29.6549V25.3687H29.0804V25.9432H28.5059V26.5177H29.0804V27.0922H28.5059V27.6667H29.0804V28.2412H29.6549V27.6667Z" fill="#0100FE"/>
<path d="M50.9202 27.0923H50.3457V27.6668H50.9202V27.0923Z" fill="#0100FE"/>
<path d="M48.6194 27.0923H48.0449V27.6668H48.6194V27.0923Z" fill="#0100FE"/>
<path d="M44.0237 27.0923H43.4492V27.6668H44.0237V27.0923Z" fill="#0100FE"/>
<path d="M41.7239 27.0923H41.1494V27.6668H41.7239V27.0923Z" fill="#0100FE"/>
<path d="M40.5755 27.0923H40.001V27.6668H40.5755V27.0923Z" fill="#0100FE"/>
<path d="M39.4251 27.0923H38.8506V27.6668H39.4251V27.0923Z" fill="#0100FE"/>
<path d="M38.2767 27.0923H37.7021V27.6668H38.2767V27.0923Z" fill="#0100FE"/>
<path d="M37.1263 27.0923H36.5518V27.6668H37.1263V27.0923Z" fill="#0100FE"/>
<path d="M35.9769 27.0923H35.4023V27.6668H35.9769V27.0923Z" fill="#0100FE"/>
<path d="M34.8274 27.0923H34.2529V27.6668H34.8274V27.0923Z" fill="#0100FE"/>
<path d="M33.679 27.0923H33.1045V27.6668H33.679V27.0923Z" fill="#0100FE"/>
<path d="M32.5296 27.0923H31.9551V27.6668H32.5296V27.0923Z" fill="#0100FE"/>
<path d="M31.3782 27.0923H30.8037V27.6668H31.3782V27.0923Z" fill="#0100FE"/>
<path d="M34.2532 26.5178H33.6787V27.0923H34.2532V26.5178Z" fill="#0100FE"/>
<path d="M28.5062 26.5176H27.9316V27.0921H28.5062V26.5176Z" fill="#0100FE"/>
<path d="M50.9202 25.9434H50.3457V26.5179H50.9202V25.9434Z" fill="#0100FE"/>
<path d="M49.7708 25.9431H49.1963V26.5176H49.7708V25.9431Z" fill="#0100FE"/>
<path d="M48.6194 25.9431H48.0449V26.5176H48.6194V25.9431Z" fill="#0100FE"/>
<path d="M46.3216 25.9431H45.7471V26.5176H46.3216V25.9431Z" fill="#0100FE"/>
<path d="M44.0237 25.9431H43.4492V26.5176H44.0237V25.9431Z" fill="#0100FE"/>
<path d="M42.8733 25.9434H42.2988V26.5179H42.8733V25.9434Z" fill="#0100FE"/>
<path d="M41.7239 25.9431H41.1494V26.5176H41.7239V25.9431Z" fill="#0100FE"/>
<path d="M40.5755 25.9434H40.001V26.5179H40.5755V25.9434Z" fill="#0100FE"/>
<path d="M39.4251 25.9434H38.8506V26.5179H39.4251V25.9434Z" fill="#0100FE"/>
<path d="M38.2767 25.9431H37.7021V26.5176H38.2767V25.9431Z" fill="#0100FE"/>
<path d="M37.1263 25.9434H36.5518V26.5179H37.1263V25.9434Z" fill="#0100FE"/>
<path d="M35.9769 25.9431H35.4023V26.5176H35.9769V25.9431Z" fill="#0100FE"/>
<path d="M34.8274 25.9434H34.2529V26.5179H34.8274V25.9434Z" fill="#0100FE"/>
<path d="M33.679 25.9431H33.1045V26.5176H33.679V25.9431Z" fill="#0100FE"/>
<path d="M38.8509 25.3687H38.2764V25.9432H38.8509V25.3687Z" fill="#0100FE"/>
<path d="M36.5511 25.3687H35.9766V25.9432H36.5511V25.3687Z" fill="#0100FE"/>
<path d="M34.2532 25.3687H33.6787V25.9432H34.2532V25.3687Z" fill="#0100FE"/>
<path d="M28.5065 25.3687H29.081V24.7923H28.5065V24.2178H27.9319V24.7923H27.3574V25.3687H27.9319V25.9432H28.5065V25.3687Z" fill="#0100FE"/>
<path d="M49.7708 24.7922H49.1963V25.3668H49.7708V24.7922Z" fill="#0100FE"/>
<path d="M47.471 24.792H46.8965V25.3665H47.471V24.792Z" fill="#0100FE"/>
<path d="M42.8733 24.792H42.2988V25.3665H42.8733V24.792Z" fill="#0100FE"/>
<path d="M40.5755 24.792H40.001V25.3665H40.5755V24.792Z" fill="#0100FE"/>
<path d="M39.4251 24.792H38.8506V25.3665H39.4251V24.792Z" fill="#0100FE"/>
<path d="M38.2767 24.7922H37.7021V25.3668H38.2767V24.7922Z" fill="#0100FE"/>
<path d="M37.1263 24.792H36.5518V25.3665H37.1263V24.792Z" fill="#0100FE"/>
<path d="M35.9769 24.7922H35.4023V25.3668H35.9769V24.7922Z" fill="#0100FE"/>
<path d="M34.8274 24.792H34.2529V25.3665H34.8274V24.792Z" fill="#0100FE"/>
<path d="M31.9551 24.7923V25.3687H32.5296V25.9432H33.1041V25.3687H33.6786V24.7923H33.1041V24.2178H32.5296V24.7923H31.9551Z" fill="#0100FE"/>
<path d="M31.3782 24.792H30.8037V25.3665H31.3782V24.792Z" fill="#0100FE"/>
<path d="M30.2298 24.7922H29.6553V25.3668H30.2298V24.7922Z" fill="#0100FE"/>
<path d="M35.4017 24.2178H34.8271V24.7923H35.4017V24.2178Z" fill="#0100FE"/>
<path d="M34.2532 24.2178H33.6787V24.7923H34.2532V24.2178Z" fill="#0100FE"/>
<path d="M31.9554 24.2178H31.3809V24.7923H31.9554V24.2178Z" fill="#0100FE"/>
<path d="M30.805 24.2178H30.2305V24.7923H30.805V24.2178Z" fill="#0100FE"/>
<path d="M29.6556 24.2178H29.0811V24.7923H29.6556V24.2178Z" fill="#0100FE"/>
<path d="M27.3567 24.2178H26.7822V24.7923H27.3567V24.2178Z" fill="#0100FE"/>
<path d="M25.0569 24.2178H24.4824V24.7923H25.0569V24.2178Z" fill="#0100FE"/>
<path d="M47.471 23.6436H46.8965V24.2181H47.471V23.6436Z" fill="#0100FE"/>
<path d="M46.3216 23.6433H45.7471V24.2178H46.3216V23.6433Z" fill="#0100FE"/>
<path d="M45.1722 23.6436H44.5977V24.2181H45.1722V23.6436Z" fill="#0100FE"/>
<path d="M42.8733 23.6436H42.2988V24.2181H42.8733V23.6436Z" fill="#0100FE"/>
<path d="M41.7239 23.6433H41.1494V24.2178H41.7239V23.6433Z" fill="#0100FE"/>
<path d="M40.5755 23.6436H40.001V24.2181H40.5755V23.6436Z" fill="#0100FE"/>
<path d="M39.4251 23.6436H38.8506V24.2181H39.4251V23.6436Z" fill="#0100FE"/>
<path d="M38.2767 23.6433H37.7021V24.2178H38.2767V23.6433Z" fill="#0100FE"/>
<path d="M37.1263 23.6436H36.5518V24.2181H37.1263V23.6436Z" fill="#0100FE"/>
<path d="M35.9769 23.6433H35.4023V24.2178H35.9769V23.6433Z" fill="#0100FE"/>
<path d="M34.8274 23.6436H34.2529V24.2181H34.8274V23.6436Z" fill="#0100FE"/>
<path d="M33.679 23.6433H33.1045V24.2178H33.679V23.6433Z" fill="#0100FE"/>
<path d="M32.5296 23.6436H31.9551V24.2181H32.5296V23.6436Z" fill="#0100FE"/>
<path d="M31.3782 23.6436H30.8037V24.2181H31.3782V23.6436Z" fill="#0100FE"/>
<path d="M30.2298 23.6433H29.6553V24.2178H30.2298V23.6433Z" fill="#0100FE"/>
<path d="M29.0804 23.6436H28.5059V24.2181H29.0804V23.6436Z" fill="#0100FE"/>
<path d="M27.9319 23.6433H27.3574V24.2178H27.9319V23.6433Z" fill="#0100FE"/>
<path d="M26.7825 23.6436H26.208V24.2181H26.7825V23.6436Z" fill="#0100FE"/>
<path d="M25.6312 23.6433H25.0566V24.2178H25.6312V23.6433Z" fill="#0100FE"/>
<path d="M40.0003 23.0686H39.4258V23.6431H40.0003V23.0686Z" fill="#0100FE"/>
<path d="M38.8509 23.0684H38.2764V23.6429H38.8509V23.0684Z" fill="#0100FE"/>
<path d="M30.805 23.0684H30.2305V23.6429H30.805V23.0684Z" fill="#0100FE"/>
<path d="M28.5062 23.0684H27.9316V23.6429H28.5062V23.0684Z" fill="#0100FE"/>
<path d="M27.3567 23.0686H26.7822V23.6431H27.3567V23.0686Z" fill="#0100FE"/>
<path d="M26.2063 23.0686H25.6318V23.6431H26.2063V23.0686Z" fill="#0100FE"/>
<path d="M25.0569 23.0684H24.4824V23.6429H25.0569V23.0684Z" fill="#0100FE"/>
<path d="M22.7591 23.0684H22.1846V23.6429H22.7591V23.0684Z" fill="#0100FE"/>
<path d="M37.1263 22.4941H36.5518V23.0687H37.1263V22.4941Z" fill="#0100FE"/>
<path d="M34.8274 22.4941H34.2529V23.0687H34.8274V22.4941Z" fill="#0100FE"/>
<path d="M33.679 22.4941H33.1045V23.0687H33.679V22.4941Z" fill="#0100FE"/>
<path d="M32.5296 22.4941H31.9551V23.0687H32.5296V22.4941Z" fill="#0100FE"/>
<path d="M31.3782 22.4941H30.8037V23.0687H31.3782V22.4941Z" fill="#0100FE"/>
<path d="M30.2298 22.4941H29.6553V23.0687H30.2298V22.4941Z" fill="#0100FE"/>
<path d="M29.0804 22.4941H28.5059V23.0687H29.0804V22.4941Z" fill="#0100FE"/>
<path d="M27.9319 22.4941H27.3574V23.0687H27.9319V22.4941Z" fill="#0100FE"/>
<path d="M26.7825 22.4941H26.208V23.0687H26.7825V22.4941Z" fill="#0100FE"/>
<path d="M25.6312 22.4941H25.0566V23.0687H25.6312V22.4941Z" fill="#0100FE"/>
<path d="M24.4827 22.4941H23.9082V23.0687H24.4827V22.4941Z" fill="#0100FE"/>
<path d="M23.3333 22.4941H22.7588V23.0687H23.3333V22.4941Z" fill="#0100FE"/>
<path d="M22.1849 22.4941H21.6104V23.0687H22.1849V22.4941Z" fill="#0100FE"/>
<path d="M18.7356 22.4941H18.1611V23.0687H18.7356V22.4941Z" fill="#0100FE"/>
<path d="M17.5862 22.4941H17.0117V23.0687H17.5862V22.4941Z" fill="#0100FE"/>
<path d="M27.3567 21.9197H26.7822V22.4942H27.3567V21.9197Z" fill="#0100FE"/>
<path d="M25.0569 21.9199H24.4824V22.4944H25.0569V21.9199Z" fill="#0100FE"/>
<path d="M22.7591 21.9199H22.1846V22.4944H22.7591V21.9199Z" fill="#0100FE"/>
<path d="M21.6106 21.9197H21.0361V22.4942H21.6106V21.9197Z" fill="#0100FE"/>
<path d="M19.3099 21.9197H18.7354V22.4942H19.3099V21.9197Z" fill="#0100FE"/>
<path d="M18.1614 21.9199H17.5869V22.4944H18.1614V21.9199Z" fill="#0100FE"/>
<path d="M38.2767 21.3452H37.7021V21.9197H38.2767V21.3452Z" fill="#0100FE"/>
<path d="M37.1263 21.3452H36.5518V21.9197H37.1263V21.3452Z" fill="#0100FE"/>
<path d="M35.9769 21.3452H35.4023V21.9197H35.9769V21.3452Z" fill="#0100FE"/>
<path d="M34.8274 21.3452H34.2529V21.9197H34.8274V21.3452Z" fill="#0100FE"/>
<path d="M33.679 21.3452H33.1045V21.9197H33.679V21.3452Z" fill="#0100FE"/>
<path d="M32.5296 21.3452H31.9551V21.9197H32.5296V21.3452Z" fill="#0100FE"/>
<path d="M31.3782 21.3452H30.8037V21.9197H31.3782V21.3452Z" fill="#0100FE"/>
<path d="M30.2298 21.3452H29.6553V21.9197H30.2298V21.3452Z" fill="#0100FE"/>
<path d="M29.0804 21.3452H28.5059V21.9197H29.0804V21.3452Z" fill="#0100FE"/>
<path d="M27.9319 21.3452H27.3574V21.9197H27.9319V21.3452Z" fill="#0100FE"/>
<path d="M26.7825 21.3452H26.208V21.9197H26.7825V21.3452Z" fill="#0100FE"/>
<path d="M25.6312 21.3452H25.0566V21.9197H25.6312V21.3452Z" fill="#0100FE"/>
<path d="M24.4827 21.3452H23.9082V21.9197H24.4827V21.3452Z" fill="#0100FE"/>
<path d="M23.3333 21.3452H22.7588V21.9197H23.3333V21.3452Z" fill="#0100FE"/>
<path d="M22.1849 21.3452H21.6104V21.9197H22.1849V21.3452Z" fill="#0100FE"/>
<path d="M18.7356 21.3452H18.1611V21.9197H18.7356V21.3452Z" fill="#0100FE"/>
<path d="M27.3567 20.7708H26.7822V21.3453H27.3567V20.7708Z" fill="#0100FE"/>
<path d="M25.0569 20.7705H24.4824V21.345H25.0569V20.7705Z" fill="#0100FE"/>
<path d="M23.9085 20.7708H23.334V21.3453H23.9085V20.7708Z" fill="#0100FE"/>
<path d="M22.7591 20.7705H22.1846V21.345H22.7591V20.7705Z" fill="#0100FE"/>
<path d="M21.6106 20.7708H21.0361V21.3453H21.6106V20.7708Z" fill="#0100FE"/>
<path d="M19.3099 20.7708H18.7354V21.3453H19.3099V20.7708Z" fill="#0100FE"/>
<path d="M38.2767 20.196H37.7021V20.7706H38.2767V20.196Z" fill="#0100FE"/>
<path d="M35.9769 20.196H35.4023V20.7706H35.9769V20.196Z" fill="#0100FE"/>
<path d="M33.679 20.196H33.1045V20.7706H33.679V20.196Z" fill="#0100FE"/>
<path d="M31.3782 20.1963H30.8037V20.7708H31.3782V20.1963Z" fill="#0100FE"/>
<path d="M30.2298 20.196H29.6553V20.7706H30.2298V20.196Z" fill="#0100FE"/>
<path d="M29.0804 20.1963H28.5059V20.7708H29.0804V20.1963Z" fill="#0100FE"/>
<path d="M27.9319 20.196H27.3574V20.7706H27.9319V20.196Z" fill="#0100FE"/>
<path d="M26.7825 20.1963H26.208V20.7708H26.7825V20.1963Z" fill="#0100FE"/>
<path d="M25.6312 20.196H25.0566V20.7706H25.6312V20.196Z" fill="#0100FE"/>
<path d="M24.4827 20.1963H23.9082V20.7708H24.4827V20.1963Z" fill="#0100FE"/>
<path d="M23.3333 20.196H22.7588V20.7706H23.3333V20.196Z" fill="#0100FE"/>
<path d="M22.1849 20.1963H21.6104V20.7708H22.1849V20.1963Z" fill="#0100FE"/>
<path d="M21.0354 20.196H20.4609V20.7706H21.0354V20.196Z" fill="#0100FE"/>
<path d="M19.8851 20.196H19.3105V20.7706H19.8851V20.196Z" fill="#0100FE"/>
<path d="M23.9085 19.6196H23.334V20.1941H23.9085V19.6196Z" fill="#0100FE"/>
<path d="M21.6106 19.6196H21.0361V20.1941H21.6106V19.6196Z" fill="#0100FE"/>
<path d="M20.4593 19.6196H19.8848V20.1941H20.4593V19.6196Z" fill="#0100FE"/>
<path d="M38.2767 19.0452H37.7021V19.6197H38.2767V19.0452Z" fill="#0100FE"/>
<path d="M35.9769 19.0452H35.4023V19.6197H35.9769V19.0452Z" fill="#0100FE"/>
<path d="M33.679 19.0452H33.1045V19.6197H33.679V19.0452Z" fill="#0100FE"/>
<path d="M31.3782 19.0449H30.8037V19.6194H31.3782V19.0449Z" fill="#0100FE"/>
<path d="M29.0804 19.0449H28.5059V19.6194H29.0804V19.0449Z" fill="#0100FE"/>
<path d="M27.9319 19.0452H27.3574V19.6197H27.9319V19.0452Z" fill="#0100FE"/>
<path d="M26.7825 19.0449H26.208V19.6194H26.7825V19.0449Z" fill="#0100FE"/>
<path d="M25.6312 19.0452H25.0566V19.6197H25.6312V19.0452Z" fill="#0100FE"/>
<path d="M24.4827 19.0449H23.9082V19.6194H24.4827V19.0449Z" fill="#0100FE"/>
<path d="M23.3333 19.0452H22.7588V19.6197H23.3333V19.0452Z" fill="#0100FE"/>
<path d="M22.1849 19.0449H21.6104V19.6194H22.1849V19.0449Z" fill="#0100FE"/>
<path d="M21.0354 19.0452H20.4609V19.6197H21.0354V19.0452Z" fill="#0100FE"/>
<path d="M19.8851 19.0452H19.3105V19.6197H19.8851V19.0452Z" fill="#0100FE"/>
<path d="M23.9085 18.4707H23.334V19.0452H23.9085V18.4707Z" fill="#0100FE"/>
<path d="M21.6106 18.4707H21.0361V19.0452H21.6106V18.4707Z" fill="#0100FE"/>
<path d="M37.1263 17.896H36.5518V18.4705H37.1263V17.896Z" fill="#0100FE"/>
<path d="M34.8274 17.896H34.2529V18.4705H34.8274V17.896Z" fill="#0100FE"/>
<path d="M27.9319 17.896H27.3574V18.4705H27.9319V17.896Z" fill="#0100FE"/>
<path d="M26.7825 17.896H26.208V18.4705H26.7825V17.896Z" fill="#0100FE"/>
<path d="M25.6312 17.896H25.0566V18.4705H25.6312V17.896Z" fill="#0100FE"/>
<path d="M24.4827 17.896H23.9082V18.4705H24.4827V17.896Z" fill="#0100FE"/>
<path d="M23.3333 17.896H22.7588V18.4705H23.3333V17.896Z" fill="#0100FE"/>
<path d="M22.1849 17.896H21.6104V18.4705H22.1849V17.896Z" fill="#0100FE"/>
<path d="M21.0354 17.896H20.4609V18.4705H21.0354V17.896Z" fill="#0100FE"/>
<path d="M37.1263 16.7471H36.5518V17.3216H37.1263V16.7471Z" fill="#0100FE"/>
<path d="M35.9769 16.7471H35.4023V17.3216H35.9769V16.7471Z" fill="#0100FE"/>
<path d="M34.8274 16.7471H34.2529V17.3216H34.8274V16.7471Z" fill="#0100FE"/>
<path d="M32.5296 16.7471H31.9551V17.3216H32.5296V16.7471Z" fill="#0100FE"/>
<path d="M30.2298 16.7471H29.6553V17.3216H30.2298V16.7471Z" fill="#0100FE"/>
<path d="M29.0804 16.7471H28.5059V17.3216H29.0804V16.7471Z" fill="#0100FE"/>
<path d="M27.9319 16.7471H27.3574V17.3216H27.9319V16.7471Z" fill="#0100FE"/>
<path d="M26.7825 16.7471H26.208V17.3216H26.7825V16.7471Z" fill="#0100FE"/>
<path d="M25.6312 16.7471H25.0566V17.3216H25.6312V16.7471Z" fill="#0100FE"/>
<path d="M24.4827 16.7471H23.9082V17.3216H24.4827V16.7471Z" fill="#0100FE"/>
<path d="M23.3333 16.7471H22.7588V17.3216H23.3333V16.7471Z" fill="#0100FE"/>
<path d="M22.1849 16.7471H21.6104V17.3216H22.1849V16.7471Z" fill="#0100FE"/>
<path d="M25.0569 16.1729H24.4824V16.7474H25.0569V16.1729Z" fill="#0100FE"/>
<path d="M22.7591 16.1729H22.1846V16.7474H22.7591V16.1729Z" fill="#0100FE"/>
<path d="M35.9769 15.5981H35.4023V16.1727H35.9769V15.5981Z" fill="#0100FE"/>
<path d="M33.679 15.5981H33.1045V16.1727H33.679V15.5981Z" fill="#0100FE"/>
<path d="M29.0804 15.5981H28.5059V16.1727H29.0804V15.5981Z" fill="#0100FE"/>
<path d="M27.9319 15.5981H27.3574V16.1727H27.9319V15.5981Z" fill="#0100FE"/>
<path d="M26.7825 15.5981H26.208V16.1727H26.7825V15.5981Z" fill="#0100FE"/>
<path d="M25.6312 15.5981H25.0566V16.1727H25.6312V15.5981Z" fill="#0100FE"/>
<path d="M24.4827 15.5981H23.9082V16.1727H24.4827V15.5981Z" fill="#0100FE"/>
<path d="M23.3333 15.5981H22.7588V16.1727H23.3333V15.5981Z" fill="#0100FE"/>
<path d="M22.1849 15.5981H21.6104V16.1727H22.1849V15.5981Z" fill="#0100FE"/>
<path d="M35.9769 14.449H35.4023V15.0235H35.9769V14.449Z" fill="#0100FE"/>
<path d="M33.679 14.449H33.1045V15.0235H33.679V14.449Z" fill="#0100FE"/>
<path d="M31.3782 14.4492H30.8037V15.0237H31.3782V14.4492Z" fill="#0100FE"/>
<path d="M29.0804 14.4492H28.5059V15.0237H29.0804V14.4492Z" fill="#0100FE"/>
<path d="M27.9319 14.449H27.3574V15.0235H27.9319V14.449Z" fill="#0100FE"/>
<path d="M26.7825 14.4492H26.208V15.0237H26.7825V14.4492Z" fill="#0100FE"/>
<path d="M25.6312 14.449H25.0566V15.0235H25.6312V14.449Z" fill="#0100FE"/>
<path d="M24.4827 14.4492H23.9082V15.0237H24.4827V14.4492Z" fill="#0100FE"/>
<path d="M23.3333 14.449H22.7588V15.0235H23.3333V14.449Z" fill="#0100FE"/>
<path d="M34.8274 13.2979H34.2529V13.8724H34.8274V13.2979Z" fill="#0100FE"/>
<path d="M32.5296 13.2979H31.9551V13.8724H32.5296V13.2979Z" fill="#0100FE"/>
<path d="M27.9319 13.2981H27.3574V13.8726H27.9319V13.2981Z" fill="#0100FE"/>
<path d="M25.6312 13.2981H25.0566V13.8726H25.6312V13.2981Z" fill="#0100FE"/>
<path d="M24.4827 13.2979H23.9082V13.8724H24.4827V13.2979Z" fill="#0100FE"/>
<path d="M32.5296 12.1489H31.9551V12.7234H32.5296V12.1489Z" fill="#0100FE"/>
<path d="M31.3782 12.1489H30.8037V12.7234H31.3782V12.1489Z" fill="#0100FE"/>
<path d="M30.2298 12.1489H29.6553V12.7234H30.2298V12.1489Z" fill="#0100FE"/>
<path d="M27.9319 12.1489H27.3574V12.7234H27.9319V12.1489Z" fill="#0100FE"/>
<path d="M25.6312 12.1489H25.0566V12.7234H25.6312V12.1489Z" fill="#0100FE"/>
<path d="M29.0804 11H28.5059V11.5745H29.0804V11Z" fill="#0100FE"/>
<path d="M27.9319 11H27.3574V11.5745H27.9319V11Z" fill="#0100FE"/>
<path d="M26.7825 11H26.208V11.5745H26.7825V11Z" fill="#0100FE"/>
</svg>
